<svg xmlns="http://www.w3.org/2000/svg" viewBox="0 0 200 200"><defs><style>.cls-1{fill:#2ccafa;}.cls-2{fill:#002955;}.cls-3{fill:#0070e1;}.cls-4{fill:#002a54;}.cls-5{fill:#ff7381;}.cls-6{fill:#ffc7db;}.cls-7{fill:#202020;}.cls-8{fill:#ffe200;}.cls-9{fill:#2082e5;}</style></defs><title>two_people_waving</title><g id="Layer_125" data-name="Layer 125"><g id="Layer_33-2" data-name="Layer 33"><path class="cls-1" d="M108.5,54.3c7.2-.9,7.7-9,8.7-12.1,1.5-5.1,3.3-10.3,8.6-12.6a11.78,11.78,0,0,1,6.9-.9c1.9.3,2,.4,3.7-.2,4.6-1.5,9.9-1.2,13.8,1.8,5.7,4.3,4.2,14.2,2.8,20.2a32.15,32.15,0,0,1-3.6,9.5c-1.5,2.4-3.5,3.2-6.3,3.4C136.5,63.9,112.4,64.6,108.5,54.3Z"/><path class="cls-2" d="M142.3,51.9c6.4-1.4,5.7-5.9,4.9-6.6-1.7-1.5-4.8,2.3-4.8,2.3-6.4-2.1-4.8-10.8-4.8-10.8-5.6,4.5-12.2,1.7-12.5,1.6,0,.1-.1.2-.1.3l-.8,2.3c-.6,2.2-2,8.3-1.1,10.2,1.1,2.1,6.3,2.8,6.9,3.8,2.7,4.5-4.4,10.3-8.5,12,2.3,10,18.4,3.3,23.1,1.1-3.6-.7-6.4-7.5-6.5-7.7C138.2,60.4,135.9,53.3,142.3,51.9Z"/><path class="cls-3" d="M71.8,31.5s5.6,10.8,4.5,16.6-11.5,4.3-11.5,4.3l3.4,7.1s-11.3.6-11,.4c.4-.4,0-10.8.1-10,0,0-3-9.5-2.9-10.3S60.2,30,60.2,30Z"/><path class="cls-4" d="M82.1,175.5c1.7-42.2-7.3-71.9-7.3-71.9H49.4s-2.5,30.7,2.6,72.7h3.9s5.1-61.2,7.9-60.7,14.4,60.1,14.4,60.1Z"/><path class="cls-1" d="M52.7,175.6a9,9,0,0,0-7,3h10l.1-3Z"/><path class="cls-1" d="M81.4,175.5a8.89,8.89,0,0,1,7,2.8l-10,.3-.2-3Z"/><path class="cls-3" d="M33.7,48.6s2.3-7.3.7-7.6-1.9,3.1-1.9,3.1-4.8-5.5-7.6-3.7,5.5,9.1,5.5,9.1l-.1,2.7,3.8-.8Z"/><path class="cls-2" d="M167.2,67.2s-1-7.6.7-7.6,1.3,3.4,1.3,3.4,5.7-4.6,8.2-2.4-7,8.1-7,8.1l-.3,2.6-3.6-1.5Z"/><path class="cls-2" d="M159.2,168.4s-29.1-21.8-29.4-50.3l2.1-2.8c-7,19-19,50.8-20.9,55.4l-4.7-1.3c6.2-39.7,7.1-41.7,7.1-41.7l21.8-30.2s5.2.1,6.6,16.5c2.5,19.1,10.1,39.9,19.3,49.3Z"/><path class="cls-5" d="M111,170.8c-1.5,5-3,7.4-4.7,7.5-2.6.3-12.7-1.5-12.8-3.2-.2-1.5,11.8-2,11.8-2l1-3.7Z"/><path class="cls-5" d="M160.7,162.8c3.4,4,4.6,6.5,3.8,8-1.2,2.3-8.1,9.9-9.6,9.1-1.3-.7,4.7-11,4.7-11l-2.7-2.3Z"/><path class="cls-6" d="M123.6,65.6c9.1,5.5,20.4,2.2,20.4,2.2,6.2.9,8.6,15.6,12.3,16.3s9.9-15.3,9.9-15.3l4.1,2.2s-6.2,23.9-13.1,22.8-14.6-13.3-14.6-13.3L136,95l-12.6.3Z"/><path class="cls-7" d="M49.4,113.8c.9-1.4,1.9-2.7,2.8-4.1a12.27,12.27,0,0,0,1.9-4.4c0-.1.4-.1.4,0a11.53,11.53,0,0,1-.3,2.6,12.81,12.81,0,0,1-1.1,2.4,17.36,17.36,0,0,1-3.3,3.8C49.5,114.2,49.3,113.9,49.4,113.8Z"/><path class="cls-7" d="M74.8,113a3.7,3.7,0,0,1-1.1-.5,6.47,6.47,0,0,1-.9-.8,3.59,3.59,0,0,1-.7-1c-.2-.3-.4-.7-.6-1a11.47,11.47,0,0,1-1.1-4.5c0-.1.3-.2.4-.1.6,1.4,1.1,2.8,1.7,4.1a9.29,9.29,0,0,1,.5,1c.2.3.3.6.5.9a5.36,5.36,0,0,0,1.5,1.5A.27.27,0,0,1,74.8,113Z"/><path class="cls-7" d="M129,74.9a2,2,0,0,1,.1-.7l.3-.6a2.09,2.09,0,0,1,.6-.4c.2-.1.5-.1.7-.2a1.7,1.7,0,0,1,.7.1,1.84,1.84,0,0,1,1,1,1.7,1.7,0,0,1,.1.7c0,.3-.1.5-.1.7a1.84,1.84,0,0,1-1,1,1.7,1.7,0,0,1-.7.1,1.85,1.85,0,0,1-.7-.2,2.09,2.09,0,0,1-.6-.4.86.86,0,0,1-.3-.6,1.48,1.48,0,0,1-.1-.7c0-.1.4-.1.4,0a1.37,1.37,0,0,0,.5.8,1.08,1.08,0,0,0,.8.2,1,1,0,0,0,.7-.4,1,1,0,0,0-.7-1.7,1.08,1.08,0,0,0-.8.2,1.13,1.13,0,0,0-.5.8C129.3,75.1,129,75.1,129,74.9Z"/><path class="cls-7" d="M128.3,81.2a2,2,0,0,1,.1-.7l.3-.6a2.09,2.09,0,0,1,.6-.4c.2-.1.5-.1.7-.2a1.7,1.7,0,0,1,.7.1,1.84,1.84,0,0,1,1,1,1.7,1.7,0,0,1,.1.7c0,.3-.1.5-.1.7a1.84,1.84,0,0,1-1,1,1.7,1.7,0,0,1-.7.1,1.85,1.85,0,0,1-.7-.2,2.09,2.09,0,0,1-.6-.4.86.86,0,0,1-.3-.6,1.48,1.48,0,0,1-.1-.7c0-.1.4-.1.4,0a1.37,1.37,0,0,0,.5.8,1.08,1.08,0,0,0,.8.2,1,1,0,0,0,.7-.4,1,1,0,0,0-.7-1.7,1.08,1.08,0,0,0-.8.2,1.13,1.13,0,0,0-.5.8C128.6,81.3,128.3,81.3,128.3,81.2Z"/><path class="cls-7" d="M100.1,175.9a2.45,2.45,0,0,1-.4-1.2,2.54,2.54,0,0,1,.2-1.2c.1,0,.2-.1.4,0a2.57,2.57,0,0,1,.2,2.4Z"/><path class="cls-7" d="M102.2,175.7a1.59,1.59,0,0,1-.4-1.2,2.66,2.66,0,0,1,.3-1.2h.4a3.06,3.06,0,0,1,.1,2.3C102.5,175.7,102.4,175.7,102.2,175.7Z"/><path class="cls-7" d="M160.6,171.8a4.18,4.18,0,0,1-1-.4,4.62,4.62,0,0,1-.7-.7c0-.1.1-.2.1-.4a1.38,1.38,0,0,1,1.2.3c.2.1.3.3.4.4a1.42,1.42,0,0,1,.2.6A.22.22,0,0,1,160.6,171.8Z"/><path class="cls-7" d="M159.2,174.2a2.62,2.62,0,0,1-.9-.5,2.7,2.7,0,0,1-.7-.8c0-.1.1-.2.2-.3a1.92,1.92,0,0,1,1.2.4,2,2,0,0,1,.6,1.1C159.4,174.1,159.3,174.2,159.2,174.2Z"/><path class="cls-7" d="M50.4,177.5c.2-.4.3-.8.5-1.3.1-.2.1-.4.2-.6v-.2h0v1.1h0l-.9.3-.1-.2-.2-.2-.2-.2h0v.1c0,.1,0,.1.1.2a2.09,2.09,0,0,0,.4.6c-.2.2,0,.3.2.4.2-.1.2.3.1.3a1.75,1.75,0,0,1-1.2-.4,1,1,0,0,1-.4-.5.37.37,0,0,1-.1-.3c0-.1,0-.1-.1-.2a.14.14,0,0,1,0-.2v-.4a.54.54,0,0,1,.3-.4.6.6,0,0,1,.4-.1c.2,0,.3,0,.4.1a1.47,1.47,0,0,1,.6.5c.1.1.1.2.2.2l.2.2-.9.3V175l.3-.6a2.19,2.19,0,0,1,.5-.3,1.27,1.27,0,0,1,.6.1c.2.1.3.3.4.4a1.27,1.27,0,0,1,.1.6v.3c0,.1,0,.1-.1.2s-.2.5-.3.7a8.34,8.34,0,0,1-.8,1.2C50.6,177.8,50.3,177.6,50.4,177.5Z"/><path class="cls-7" d="M83.2,176.4c.2-.4.3-.8.5-1.2a1.42,1.42,0,0,0,.2-.6.75.75,0,0,0,.1-.5h0a.37.37,0,0,0,.3-.1h0v.4h0a1.38,1.38,0,0,0-.3.4,10.91,10.91,0,0,0-.6,1.1l-.6,1.4-.3-1.4c0-.1-.1-.2-.1-.3v-.1h0v.1c0,.1.1.2.1.3a1.47,1.47,0,0,0,.5.6c.1.1-.1.4-.2.3-.3-.2-.5-.4-.8-.6a2.19,2.19,0,0,1-.3-.5.85.85,0,0,1,0-.7c0-.1.1-.2.2-.3s.2-.2.3-.2.2-.1.4,0a.6.6,0,0,1,.4.1c.1.1.2.1.3.3s.1.1.1.2l.1.1c.1.2.1.3.2.5h-.9a5.17,5.17,0,0,1,.6-1.3l.6-.6.1-.1h.1a.6.6,0,0,1,.4-.1.37.37,0,0,1,.3.1c.1.1.2.2.2.3s.1.1.1.2v.1a1.88,1.88,0,0,1-.2.8l-.3.6a4.44,4.44,0,0,1-.8,1.1C83.5,176.7,83.2,176.5,83.2,176.4Z"/><path class="cls-6" d="M123.6,65.6c-7.3,3.4-13.8,11.3-13,19.6.7,7,10.1,14.6,10.1,14.6l1.9-3.4s-5.8-8.3-5.6-11.2c.5-4.7,1.9-5.8,6.5-8.7"/><path class="cls-3" d="M136.1,95s5.2,1.5,6.7,11.7,5.8,28.8,15.2,35.2c0,0-22,15.9-47.4.1,0,0,2.6-34.1,12.9-46.6Z"/><path class="cls-8" d="M107.2,163.2c0,.3,6.1,1.6,6.1,1.6l-2.3,6-4.7-1.3,1-5.9"/><path class="cls-8" d="M157,166.7l-4.2-3.8,4.6-4.1,3.4,4.1Z"/><path class="cls-5" d="M82.5,100.7a13.8,13.8,0,0,1,2,.3c.5-1,1.1-2.1,1.5-3.1a1.85,1.85,0,0,0-.7-.2h-.9a13.4,13.4,0,0,1-2-.1,26.35,26.35,0,0,1-2.8-.2c-.4,1.1-.9,2.3-1.3,3.3A14.78,14.78,0,0,1,82.5,100.7Z"/><path class="cls-5" d="M76,62.1c-7.4,0-14.8-.1-22.2-.5a36,36,0,0,1-5.2,4.3c11.3.8,22.6,1.4,33.9,2.2A33.59,33.59,0,0,0,76,62.1Z"/><path class="cls-5" d="M86,73.2a28.51,28.51,0,0,0-3.1-4.6h-.1a319.48,319.48,0,0,1-35.2-2,11.54,11.54,0,0,1-6.3,2.1c-2-.1-3.6-2.7-4.8-5.9a54.57,54.57,0,0,1-6.7,2.6,36,36,0,0,0,1,7.8Q58.4,72,86,73.2Z"/><path class="cls-5" d="M35,57.1c-1.7.2-3.4.5-5.1.8-.1,2-.1,4.3,0,6.6a39.12,39.12,0,0,1,6.5-2.4A46.69,46.69,0,0,1,35,57.1Z"/><path class="cls-5" d="M49.4,103.5H74.8l-.6-4.9c-8,.8-16.1,1.2-24.2,1.3Z"/><path class="cls-5" d="M82.4,101.7c-1.5-.1-3-.3-4.5-.5-1.4,3.4-2.7,6-2.7,6l.9,6.6a94.83,94.83,0,0,0,7.8-12C83.5,101.8,83,101.7,82.4,101.7Z"/><path class="cls-5" d="M34.8,56.2c-.6-2.8-.9-5-.9-5l-3.8.8s-.2,1.9-.3,4.7c.3-.1.6-.1.9-.2Z"/><path class="cls-5" d="M67.4,57.7c-4.8,2.2-10.1.2-10.1.2s-1.1,1.3-2.7,3q10.2,0,20.4.6A36.38,36.38,0,0,0,67.4,57.7Z"/><path class="cls-5" d="M51.9,89,51,93.9a60.08,60.08,0,0,1,7.4-.4,74.74,74.74,0,0,1,14.1,1.3c.4.1.3.4-.1.4a140.69,140.69,0,0,0-21.5-.5l-.8,4.7q12-1.05,24-1.2L73,89.1C66,89,59,88.9,51.9,89Z"/><path class="cls-5" d="M67.4,79.9c-1.7,0-3.5-.1-5.2-.2s-3.4-.2-5.2-.4c-.9-.1-1.7-.1-2.6-.2a2.2,2.2,0,0,1-.8-.1L53,82.5c3.8.4,7.6.7,11.5.8l7.9.3-.5-4A22.21,22.21,0,0,1,67.4,79.9Z"/><path class="cls-5" d="M64.5,84.5A109.24,109.24,0,0,1,53,83.3l-.9,5.1a133.85,133.85,0,0,1,21,.1l-.5-3.9C69.9,84.6,67.2,84.6,64.5,84.5Z"/><path class="cls-5" d="M89.2,85.9a38.05,38.05,0,0,0-.7-5.9c-3.5,0-6.9-.1-10.4-.2a9.61,9.61,0,0,1,4.1,7.1c1.4-.3,2.9-.5,4.3-.7A12.41,12.41,0,0,1,89.2,85.9Z"/><path class="cls-5" d="M88.3,79.1a35,35,0,0,0-2-5.4c-18.4-.1-36.8-.1-55.3-.1a8.49,8.49,0,0,0,1.1,2.6c3.5,5.3,22.2-.5,22.2-.5l-.5,2.8h3.3c1.7,0,3.5.1,5.2.2l5.2.3c1.5.1,3,.2,4.5.2l-.3-2.7a18.6,18.6,0,0,1,5.6,2.4A101.41,101.41,0,0,1,88.3,79.1Z"/><path class="cls-5" d="M82.4,96.5a13.55,13.55,0,0,1,2,.2,1.69,1.69,0,0,1,1,.3,1.79,1.79,0,0,1,.7.5,34.25,34.25,0,0,0,2.2-6.1c-1.1-.1-2.2,0-3.4,0s-2.3,0-3.5-.1a47.5,47.5,0,0,1-1.8,5.3C80.7,96.5,81.5,96.5,82.4,96.5Z"/><path class="cls-5" d="M88.1,90.5c.2,0,.4.1.6.1a15.68,15.68,0,0,0,.5-3.7l-2.6.3c-1.5.1-2.9.3-4.4.4h0a13.28,13.28,0,0,1-.5,3c1.1-.1,2.2-.2,3.3-.2A10.63,10.63,0,0,1,88.1,90.5Z"/><path class="cls-7" d="M76,62.1l-1-.7q-10.2-.6-20.4-.6l-.8.8C61.2,62,68.6,62.2,76,62.1Z"/><path class="cls-7" d="M82.9,68.5c-.1-.1-.2-.3-.3-.4-11.3-.7-22.6-1.4-33.9-2.2a8.79,8.79,0,0,1-1,.6,318.1,318.1,0,0,0,35.2,2Z"/><path class="cls-7" d="M34.8,56.2a27.1,27.1,0,0,0-4,.4c-.3.1-.6.1-.9.2v1c1.7-.3,3.4-.6,5.1-.8A3.09,3.09,0,0,0,34.8,56.2Z"/><path class="cls-7" d="M36.4,62.1a39.12,39.12,0,0,0-6.5,2.4v.9a54.57,54.57,0,0,0,6.7-2.6A6.37,6.37,0,0,0,36.4,62.1Z"/><path class="cls-7" d="M86.2,73.7a2.19,2.19,0,0,0-.3-.5c-18.4-.8-36.8-.8-55.1-.1a4.33,4.33,0,0,0,.1.5C49.4,73.6,67.8,73.6,86.2,73.7Z"/><path class="cls-7" d="M53.1,82.6l-.1.6a112.09,112.09,0,0,0,11.5,1.2c2.7.1,5.4.2,8.1.2l-.1-.9-7.9-.3C60.7,83.3,56.9,83,53.1,82.6Z"/><path class="cls-7" d="M52.1,88.3,52,89c7.1-.1,14.1-.1,21.1.1l-.1-.6A132.7,132.7,0,0,0,52.1,88.3Z"/><path class="cls-7" d="M72.5,95.2c.4,0,.4-.3.1-.4a74,74,0,0,0-14.1-1.3,61.17,61.17,0,0,0-7.4.4l-.1.8A140.69,140.69,0,0,1,72.5,95.2Z"/><path class="cls-7" d="M50,100.1c8.1-.2,16.2-.6,24.2-1.3l-.1-.5q-12,.15-24,1.2Z"/><path class="cls-7" d="M88.3,79.1a68.56,68.56,0,0,0-11.1,0l.9.6c3.5.1,6.9.2,10.4.2A1.88,1.88,0,0,1,88.3,79.1Z"/><path class="cls-7" d="M89.2,86.8v-.9a24.52,24.52,0,0,0-2.7.2c-1.5.2-2.9.4-4.3.7v.7c1.5-.1,2.9-.2,4.4-.4Z"/><path class="cls-7" d="M85.1,91.3h3.4c.1-.3.1-.5.2-.8-.2,0-.4-.1-.6-.1a15.06,15.06,0,0,0-3-.1c-1.1,0-2.2.1-3.3.2-.1.3-.1.5-.2.8Z"/><path class="cls-7" d="M84.4,97.5h.9a1.45,1.45,0,0,1,.7.2c.1-.1.1-.3.2-.4a3,3,0,0,0-.7-.5l-1-.3a13.55,13.55,0,0,0-2-.2,21.75,21.75,0,0,0-2.6.1c-.1.2-.2.5-.3.7,1,.1,1.9.2,2.8.2A6.48,6.48,0,0,0,84.4,97.5Z"/><path class="cls-7" d="M84,101.8c.2-.3.3-.6.5-.9l-2-.3c-1.4-.1-2.9-.1-4.3-.1l-.2.6c1.5.2,3,.3,4.5.5A7.72,7.72,0,0,0,84,101.8Z"/><path class="cls-7" d="M62.3,78.7c-1.7-.1-3.5-.2-5.2-.2H53.8l-.1.6a2.2,2.2,0,0,1,.8.1c.9.1,1.7.1,2.6.2,1.7.1,3.4.3,5.2.4s3.5.2,5.2.2a35.4,35.4,0,0,0,4.6-.2l-.1-.5c-1.5,0-3-.1-4.5-.2C65.7,79,64,78.8,62.3,78.7Z"/><path class="cls-9" d="M55.3,42.4c.4,0,.4.1,0,0,0,.1-.3.1-.3.1-.3,0-.3,0,0-.1Z"/><path class="cls-6" d="M73.8,35.9l-.1-.1h-.2a10.19,10.19,0,0,1-11-2.1c-.7,1.9-2.2,7.4-5.8,9.3l.6,7s-5.8,1.8-9.4-2.7c-3-3.8-2.7-9.9,2.7-11.7-3-2.7-3.4-7,.3-9.3,3.2-2.1,7.2-1.9,8.8-6.1.2,1.5.4,3.6-.9,4.7,2.6-1.5,4.6-2.7,7.6-3,2.1-.2,6.7,1.6,8.9-.1.2,1.8-.6,3.3-2.9,4.3,2.5.6,5.5,3.2,6,5.1.8,3.3-.9,5.9-3.3,8.2Z"/><path class="cls-3" d="M57.4,43.4s-4.7-3.7-5.8-1.6c-1.8,3.3,6.1,5.5,6.1,5.5Z"/></g></g></svg>