<svg xmlns="http://www.w3.org/2000/svg" xmlns:xlink="http://www.w3.org/1999/xlink" viewBox="0 0 400 200"><defs><style>.cls-1{fill:#084480;}.cls-2{fill:#0073de;}.cls-3{fill:#ff727f;}.cls-4{fill:#00caff;}.cls-5{fill:#ffe200;}.cls-10,.cls-11,.cls-12,.cls-6,.cls-7,.cls-8,.cls-9{fill:none;stroke-width:2.53px;}.cls-11,.cls-6{stroke:#ffc7db;}.cls-12,.cls-6,.cls-7,.cls-8{stroke-miterlimit:10;}.cls-7,.cls-9{stroke:#0073de;}.cls-8{stroke:#084480;}.cls-10,.cls-11,.cls-9{stroke-linecap:round;stroke-linejoin:round;}.cls-10{stroke:#ff727f;}.cls-12{stroke:#ffe200;}.cls-13{fill:url(#linear-gradient);}.cls-14{fill:#002955;}.cls-15{fill:url(#linear-gradient-2);}.cls-16{fill:#202020;}</style><linearGradient id="linear-gradient" x1="147.4" y1="122.66" x2="167.41" y2="158.75" gradientTransform="matrix(1, 0, 0, -1, 0, 202)" gradientUnits="userSpaceOnUse"><stop offset="0" stop-color="#ff96bc"/><stop offset="1" stop-color="#ffc7db"/></linearGradient><linearGradient id="linear-gradient-2" x1="153.71" y1="130.1" x2="121.13" y2="87.85" gradientTransform="matrix(1, 0, 0, -1, 0, 202)" gradientUnits="userSpaceOnUse"><stop offset="0" stop-color="#06cbff"/><stop offset="1" stop-color="#0595e8"/></linearGradient></defs><title>scene</title><g id="Layer_36" data-name="Layer 36"><path class="cls-1" d="M144.52,32.34s6.44-3.12,5.61-4.55-3.3.73-3.3.73,1.26-8.38-2.23-8.52c-3.25-.11-2.47,10.24-2.47,10.24l-2,4.11,3.84.81Z"/><path class="cls-2" d="M267.08,35.29s-6-3.06-5.21-4.49,3.3.73,3.3.73-1.26-8.39,2.23-8.52c3.25-.11,2.47,10.24,2.47,10.24l2,4.11-3.84.81Z"/><path class="cls-1" d="M188.93,52.79s-6-3.07-5.21-4.49S187,49,187,49s-1.26-8.38,2.23-8.52c3.25-.1,2.47,10.24,2.47,10.24l2,4.11-3.84.81Z"/><path class="cls-2" d="M219.77,53.48s6.45-3.11,5.62-4.54-3.31.73-3.31.73,1.26-8.39-2.23-8.52c-3.24-.11-2.47,10.24-2.47,10.24l-2,4.11,3.84.81Z"/><path class="cls-1" d="M100.63,120.34A2.71,2.71,0,1,0,97,121.46,2.7,2.7,0,0,0,100.63,120.34Z"/><path class="cls-1" d="M325.33,80.51a2.71,2.71,0,1,0-3.66,1.12A2.71,2.71,0,0,0,325.33,80.51Z"/><path class="cls-1" d="M314.35,120.73a2.71,2.71,0,1,0-3.67,1.13A2.72,2.72,0,0,0,314.35,120.73Z"/><path class="cls-3" d="M79.5,85.05a2.71,2.71,0,1,0-3.62,1.26A2.71,2.71,0,0,0,79.5,85.05Z"/><path class="cls-3" d="M301.1,59a2.71,2.71,0,1,0-3.62,1.26A2.71,2.71,0,0,0,301.1,59Z"/><path class="cls-4" d="M81.17,129.71a2.71,2.71,0,1,0-3.49-1.59A2.72,2.72,0,0,0,81.17,129.71Z"/><path class="cls-4" d="M298.42,31.8a2.71,2.71,0,1,0-3.62,1.26A2.72,2.72,0,0,0,298.42,31.8Z"/><path class="cls-5" d="M202.82,30.16a2.71,2.71,0,1,0-3.62,1.26A2.71,2.71,0,0,0,202.82,30.16Z"/><path class="cls-4" d="M214,115.74a2.71,2.71,0,1,0-3.62,1.26A2.72,2.72,0,0,0,214,115.74Z"/><path class="cls-4" d="M125.83,102.72A2.71,2.71,0,1,0,122.2,104,2.72,2.72,0,0,0,125.83,102.72Z"/><path class="cls-3" d="M129.82,128.36a2.71,2.71,0,1,0-3.62,1.26A2.72,2.72,0,0,0,129.82,128.36Z"/><path class="cls-4" d="M91.67,52.45a2.72,2.72,0,1,0-3.26-2A2.72,2.72,0,0,0,91.67,52.45Z"/><path class="cls-6" d="M99.05,95.66a3.76,3.76,0,1,0-5.18,1.22A3.78,3.78,0,0,0,99.05,95.66Z"/><path class="cls-6" d="M201,135a3.76,3.76,0,1,0-5.18,1.22A3.77,3.77,0,0,0,201,135Z"/><path class="cls-7" d="M87.44,102.93a4.22,4.22,0,1,1-1,8.38"/><path class="cls-8" d="M120.73,40.56a4.22,4.22,0,0,1-1,8.38"/><path class="cls-7" d="M84.08,48.08a4.21,4.21,0,0,1-4.33-7.23"/><path class="cls-7" d="M325.22,105.2A4.21,4.21,0,0,1,320.9,98"/><path class="cls-7" d="M288.72,65.12a4.23,4.23,0,0,1-2.07,8.2"/><path class="cls-7" d="M182.32,28.67A4.21,4.21,0,0,1,178,21.44"/><path class="cls-9" d="M186.59,93.47c1.42,2.2-1.72,4.22-.32,6.42s4.56.16,6,2.37-1.72,4.24-.33,6.42,4.57.16,6,2.37"/><path class="cls-10" d="M124.65,27.44c-2.49.81-3.65-2.74-6.14-1.93s-1.32,4.38-3.82,5.19S111,28,108.55,28.76s-1.32,4.38-3.82,5.19"/><path class="cls-11" d="M318.89,54.61c-2.33-1.18-.64-4.54-3-5.72s-4,2.15-6.36,1-.64-4.55-3-5.73-4,2.15-6.36,1"/><path class="cls-2" d="M87.61,75.55l6.84.86-4.13,5.4Z"/><path class="cls-2" d="M308.83,63l6.84.86-4.13,5.4Z"/><path class="cls-1" d="M122.08,82.18l2.49-6.45,4.22,5.35Z"/><path class="cls-1" d="M233.65,28.76l-2.76-6.34,6.76.78Z"/><path class="cls-1" d="M110.75,114.57l2.52-6.45,4.22,5.34Z"/><path class="cls-12" d="M107.38,63.51a3.76,3.76,0,1,0-5.18,1.22A3.77,3.77,0,0,0,107.38,63.51Z"/><path class="cls-12" d="M288.76,98.05a3.76,3.76,0,1,0-5.17,1.22A3.76,3.76,0,0,0,288.76,98.05Z"/><path class="cls-12" d="M319.2,32.55A3.76,3.76,0,1,0,314,33.77,3.76,3.76,0,0,0,319.2,32.55Z"/><path class="cls-13" d="M158.64,73.77a6.28,6.28,0,0,1-8.8-5.13s-5.16-1.4-5.72-5.48,2.31-5.43,3.3-5.46c0,0-3.81-5.91.08-9.43s6.74-2.44,9.4-1.05c0,0-.14-4.83,4.45-5.4s6.47,3.87,6.47,3.87,5.27-2.31,7.58,1.37a5.59,5.59,0,0,1-.14,6.56s4,2.69-.08,6.23Z"/><path class="cls-2" d="M240.37,50.66s-6.77,10-6.61,16.07S245,71.89,245,71.89l-5.13,10.24s12.46.94,12.21.62.19-11.21.06-10.43c0,0,6.07-9.13,6-10s-5.8-11.13-5.8-11.13Z"/><path class="cls-4" d="M240.47,176.53c-16.86-30.12-17.37-47.88-12.08-60.3,4.06-9.48,10.12-13.14,10.12-13.14l14.15,1.34a19.4,19.4,0,0,1,5.13,11.91c.75,8.65,1.29,17.44,10.85,22,8.29,3.92,16.91-2.07,16.91-2.07l2.15,3.55s-12.06,10.64-26.77,5.91c-13.85-4.46-16.7-26-16.7-26s-13.1,13.71.32,56.78Z"/><path class="cls-3" d="M235.72,59.13s-6-6.72-3.52-12.2,7.68-6.4,11-3.77,6.28,5.11,11.6,5.54,8.24,2.18,8.32,7.58-6.74,14.78-5.4,17.39,10,17.14,8.65,21-10.2,9.75-17.78,8.41l3.09-36s4.83-1.1,4.3-3.71-5.45-.32-5.45-.32l.48-4.43s-7.65.53-12.62-4.06Z"/><path class="cls-14" d="M238,90.08c-5.82-2.09-14.52-5.37-19.09-11.63-8.75-12.12-2.81-24.64-2.81-24.64l3.41.86s-.62,10.72,5.5,18c8.8,10.43,22.09,7.66,22.09,7.66,5.21-.62,17-10.48,19.6-22a59.07,59.07,0,0,0,.73-21.39l3.92-.64A57.2,57.2,0,0,1,275.43,51c2.58,20.26-17.77,39.18-17.77,39.18l-5,14.27-14.15-1.35C238.7,100.27,238,90.08,238,90.08Z"/><path class="cls-1" d="M153,63.4c.54-2.61,5.45-.32,5.45-.32L158,58.64s8.7.62,13.66-4l1.67,4.38a25.15,25.15,0,0,1,2.15,8.76c-.16,6.12-10.23,5.34-10.23,5.34l4,9s-7.2.54-10.55.65l-1.35-15.72S152.47,66,153,63.4Z"/><path class="cls-5" d="M169.76,177.23c19-35.44,12.94-48.23,9.29-59-2-6-7.92-12-7.92-12L157,107.55s-4.14,3.33-4.81,11.07c-.75,8.66,1.94,15.67-1.23,24.24-2.18,5.89-16.24,10.7-18.55,11a.61.61,0,0,0-.54.67l.38,3.09a.59.59,0,0,0,.48.54c2.52.48,16,.13,25.32-6.91,9.85-7.44,7.75-29.75,7.75-29.75s12,15.24,0,55.31Z"/><path class="cls-15" d="M171,90.16c5.83-2.09,14.53-5.37,19.09-11.63a27.38,27.38,0,0,0,3.6-24.86l-4.19,1s.62,10.72-5.5,18c-8.81,10.43-22.1,7.66-22.1,7.66-5.21-.61-16.94-10.48-19.6-22-2.57-11.34,3.9-24.43,3.9-24.43L140,32.77s-5.48,10.31-6.5,18.24C131,71.27,151.31,90.19,151.31,90.19L157,107.53l14.15-1.35C170.94,103.39,171,90.16,171,90.16Z"/><path class="cls-14" d="M134,157.32s1.61,5.7-2.52,7l-1.37-10.05,3.41-.64Z"/><path class="cls-14" d="M169.6,176.45s5.82-1,6.71,3.31l-10.12.24-.24-3.44Z"/><path class="cls-10" d="M311.43,97.64c-2.2,1.42-4.21-1.72-6.42-.33s-.16,4.57-2.36,6-4.24-1.72-6.42-.33-.16,4.57-2.36,6"/><path class="cls-16" d="M161.92,72.35c.08,0,.24.05.37.08s.3,0,.43,0l.89.11.89.16c.29.06.59.16.85.19,0,0,.14.21.06.24a3.58,3.58,0,0,1-.48.11,2.74,2.74,0,0,1-.49,0c-.32,0-.62,0-.94-.06a5.25,5.25,0,0,1-.91-.21,4.47,4.47,0,0,1-.46-.19.85.85,0,0,1-.21-.14.71.71,0,0,1-.22-.21C161.65,72.4,161.92,72.38,161.92,72.35Z"/><path class="cls-16" d="M153.86,118.7a11.38,11.38,0,0,0,3-4.86,11.12,11.12,0,0,0,.24-5.7c0-.13.19-.21.24-.08a9.25,9.25,0,0,1,.16,6,9.13,9.13,0,0,1-3.43,4.86C153.89,119,153.76,118.84,153.86,118.7Z"/><path class="cls-16" d="M142.91,38a13.77,13.77,0,0,1-4.86-.83c-.05,0,0-.27,0-.25a15,15,0,0,1,4.86.81C143,37.74,143,38,142.91,38Z"/><path class="cls-16" d="M194.56,57.89A18,18,0,0,1,189.09,59c-.08,0-.11-.25-.06-.25a19.41,19.41,0,0,1,5.48-1.1C194.59,57.62,194.65,57.86,194.56,57.89Z"/><path class="cls-14" d="M240.9,176.45s-5.82-1-6.71,3.31h11.6l-1.24-3.2Z"/><path class="cls-14" d="M287.59,139.88s2.44,4.78,6.47,3.09l-5.61-8.47-3,1.78Z"/><path class="cls-5" d="M245.57,87.5a1.32,1.32,0,1,0-1.31-1.31A1.31,1.31,0,0,0,245.57,87.5Z"/><path class="cls-5" d="M245.57,92.8a1.32,1.32,0,1,0-1.31-1.32A1.32,1.32,0,0,0,245.57,92.8Z"/><path class="cls-16" d="M247.61,70.2a1.44,1.44,0,0,1-.4.75,3.13,3.13,0,0,1-.59.51,3.92,3.92,0,0,1-1.42.62s-.16-.19-.14-.22a14.75,14.75,0,0,1,1.16-1,4.44,4.44,0,0,1,.62-.41,1.55,1.55,0,0,0,.53-.4S247.61,70.15,247.61,70.2Z"/><path class="cls-16" d="M238.65,86.38c-.16,1.15-.24,2.15-.32,3.33,0,.05-.25.11-.25.05a3.76,3.76,0,0,1-.32-1.77,3.43,3.43,0,0,1,.62-1.69C238.43,86.24,238.65,86.32,238.65,86.38Z"/><path class="cls-16" d="M251.72,101.91a63.53,63.53,0,0,1-13.15-.16c-.16,0-.16-.27,0-.27,4.37,0,8.75,0,13.13.16A.14.14,0,0,1,251.72,101.91Z"/><path class="cls-16" d="M254.49,111.21a7.79,7.79,0,0,1-5.21-1.56,7.7,7.7,0,0,1-2.82-4.65c0-.14.21-.19.24-.06a8.91,8.91,0,0,0,3,4.17,9.24,9.24,0,0,0,4.78,1.85C254.62,110.94,254.62,111.18,254.49,111.21Z"/><path class="cls-16" d="M241.74,167a21.19,21.19,0,0,1-3.41.67,12.85,12.85,0,0,1-1.75.06c-.56,0-1.13,0-1.72,0-.08,0-.13-.25,0-.27a10.51,10.51,0,0,1,1.74-.32l1.69-.17c1.13-.13,2.28-.21,3.44-.24C241.79,166.75,241.82,167,241.74,167Z"/><path class="cls-16" d="M275.8,145.23a15.13,15.13,0,0,1-.21-2.66c0-.89,0-1.78.05-2.66,0-.08.24-.08.27,0a12.83,12.83,0,0,1,.38,2.69,15.14,15.14,0,0,1-.22,2.68S275.83,145.28,275.8,145.23Z"/><path class="cls-16" d="M135.72,156.67a6.16,6.16,0,0,1,0-3.3c0-.05.24-.05.26,0a6.48,6.48,0,0,1,0,3.3C136,156.73,135.72,156.73,135.72,156.67Z"/><path class="cls-16" d="M170.59,173.55a20,20,0,0,1-4,.75c-.05,0-.13-.21-.08-.24a6.51,6.51,0,0,1,4.05-.78C170.64,173.28,170.64,173.52,170.59,173.55Z"/><path class="cls-16" d="M171.21,85.87a8.82,8.82,0,0,1-.11,4.27s-.24,0-.27,0a14,14,0,0,1,.11-4.24C171,85.81,171.21,85.81,171.21,85.87Z"/></g></svg>