<?xml version="1.0"?>
<svg xmlns="http://www.w3.org/2000/svg" viewBox="0 0 64 64" width="512" height="512"><g id="transaction"><path d="M60.41,5.59A1.955,1.955,0,0,1,61,7a2.006,2.006,0,0,1-2,2,1.994,1.994,0,0,1-1.41-3.41,1.98,1.98,0,0,1,2.82,0Z" style="fill:#00d7df"/><path d="M60.41,15.59A1.955,1.955,0,0,1,61,17a2.006,2.006,0,0,1-2,2,2,2,0,1,1,1.41-3.41Z" style="fill:#ffeb99"/><path d="M60.41,25.59A1.955,1.955,0,0,1,61,27a2.006,2.006,0,0,1-2,2,2,2,0,1,1,1.41-3.41Z" style="fill:#57a4ff"/><path d="M59,35a2.006,2.006,0,0,1,2,2,2.015,2.015,0,0,1-2,2H41a2.006,2.006,0,0,1-2-2,2.015,2.015,0,0,1,2-2Z" style="fill:#ffeb99"/><path d="M59,45a2.006,2.006,0,0,1,2,2,2.015,2.015,0,0,1-2,2H41a2.006,2.006,0,0,1-2-2,2.015,2.015,0,0,1,2-2Z" style="fill:#ff7956"/><path d="M59,55a2.006,2.006,0,0,1,2,2,2.015,2.015,0,0,1-2,2H41a2.006,2.006,0,0,1-2-2,2.015,2.015,0,0,1,2-2Z" style="fill:#00d7df"/><path d="M24.41,5.59A1.955,1.955,0,0,1,25,7a2.006,2.006,0,0,1-2,2H5A2.015,2.015,0,0,1,3,7,2.006,2.006,0,0,1,5,5H23A1.955,1.955,0,0,1,24.41,5.59Z" style="fill:#ffeb99"/><path d="M24.41,15.59A1.955,1.955,0,0,1,25,17a2.006,2.006,0,0,1-2,2H5a2.015,2.015,0,0,1-2-2,2.006,2.006,0,0,1,2-2H23A1.955,1.955,0,0,1,24.41,15.59Z" style="fill:#ff7956"/><path d="M24.41,25.59A1.955,1.955,0,0,1,25,27a2.006,2.006,0,0,1-2,2H5a2.015,2.015,0,0,1-2-2,2.006,2.006,0,0,1,2-2H23A1.955,1.955,0,0,1,24.41,25.59Z" style="fill:#00d7df"/><path d="M6.41,35.59A2,2,0,0,1,5,39a2.006,2.006,0,0,1-2-2,2.015,2.015,0,0,1,2-2A1.955,1.955,0,0,1,6.41,35.59Z" style="fill:#00d7df"/><path d="M6.41,45.59A2,2,0,0,1,5,49a2.006,2.006,0,0,1-2-2,2.015,2.015,0,0,1,2-2A1.955,1.955,0,0,1,6.41,45.59Z" style="fill:#ffeb99"/><path d="M6.41,55.59A2,2,0,0,1,5,59a2.006,2.006,0,0,1-2-2,2.015,2.015,0,0,1,2-2A1.955,1.955,0,0,1,6.41,55.59Z" style="fill:#ff7956"/><path d="M42.219,17.624A1,1,0,0,0,43,18H56.184a3,3,0,1,0,0-2h-12.7l-3.217-4.021L40.861,8H56.184a3,3,0,1,0,0-2H40a1,1,0,0,0-.989.852l-.45,3-2.78-3.476A1,1,0,0,0,35,6H25.816A3,3,0,0,0,23,4H5a3,3,0,0,0,0,6H23a3,3,0,0,0,2.816-2h8.7l3.637,4.547-.892,5.945L35.82,16.427A1,1,0,0,0,35,16H25.816A3,3,0,0,0,23,14H5a3,3,0,0,0,0,6H23a3,3,0,0,0,2.816-2h8.663l2.355,3.364L36.139,26H25.816A3,3,0,0,0,23,24H5a3,3,0,0,0,0,6H23a3,3,0,0,0,2.816-2H37a1,1,0,0,0,.989-.852l.511-3.405,2.681,3.831A1,1,0,0,0,42,28H56.184a3,3,0,1,0,0-2H42.521L38.93,20.871l.93-6.2ZM59,16a1,1,0,1,1-1,1A1,1,0,0,1,59,16ZM59,6a1,1,0,1,1-1,1A1,1,0,0,1,59,6ZM23,8H5A1,1,0,0,1,5,6H23a1,1,0,0,1,0,2Zm0,10H5a1,1,0,0,1,0-2H23a1,1,0,0,1,0,2Zm0,10H5a1,1,0,0,1,0-2H23a1,1,0,0,1,0,2Zm36-2a1,1,0,1,1-1,1A1,1,0,0,1,59,26Z"/><path d="M29.48,38h8.7A3,3,0,0,0,41,40H59a3,3,0,0,0,0-6H41a3,3,0,0,0-2.816,2H29a1,1,0,0,0-.781.375l-2.78,3.476-.45-3A1,1,0,0,0,24,36H7.816a3,3,0,1,0,0,2H23.139l.6,3.979L20.519,46H7.816a3,3,0,1,0,0,2H21a1,1,0,0,0,.781-.376l2.359-2.949.93,6.2L21.479,56H7.816a3,3,0,1,0,0,2H22a1,1,0,0,0,.819-.426L25.5,53.743l.511,3.405A1,1,0,0,0,27,58H38.184A3,3,0,0,0,41,60H59a3,3,0,0,0,0-6H41a3,3,0,0,0-2.816,2H27.861l-.7-4.636L29.521,48h8.663A3,3,0,0,0,41,50H59a3,3,0,0,0,0-6H41a3,3,0,0,0-2.816,2H29a1,1,0,0,0-.82.427l-1.445,2.065-.892-5.945ZM41,36H59a1,1,0,0,1,0,2H41a1,1,0,0,1,0-2ZM5,38a1,1,0,1,1,1-1A1,1,0,0,1,5,38ZM5,48a1,1,0,1,1,1-1A1,1,0,0,1,5,48ZM5,58a1,1,0,1,1,1-1A1,1,0,0,1,5,58Zm36-2H59a1,1,0,0,1,0,2H41a1,1,0,0,1,0-2Zm0-10H59a1,1,0,0,1,0,2H41a1,1,0,0,1,0-2Z"/></g></svg>
