<svg id="Capa_1" enable-background="new 0 0 512.008 512.008" height="512" viewBox="0 0 512.008 512.008" width="512" xmlns="http://www.w3.org/2000/svg"><g><g><path d="m240.509 414.634h-186.167c-10 0-18.107 8.107-18.107 18.107v46.463h222.381v-46.463c0-10-8.107-18.107-18.107-18.107z" fill="#c86d36"/><path d="m248.009 414.634h-34.113c10 0 18.107 8.107 18.107 18.107v46.463h34.113v-46.463c0-10-8.107-18.107-18.107-18.107z" fill="#ac5e2e"/><g><path d="m496.469 407.749c-10.707 10.707-28.067 10.707-38.775 0l-198.048-198.048c-10.707-10.707-10.707-28.067 0-38.775 10.707-10.707 28.067-10.707 38.775 0l198.048 198.048c10.708 10.708 10.708 28.068 0 38.775z" fill="#9e5528"/><path d="m259.647 170.926c-3.268 3.268-5.533 7.156-6.806 11.285 9.4-2.899 20.05-.634 27.49 6.806l198.048 198.048c7.44 7.44 9.705 18.09 6.806 27.49 4.129-1.273 8.018-3.538 11.285-6.806 10.707-10.707 10.707-28.067 0-38.775l-198.049-198.048c-10.707-10.707-28.067-10.707-38.774 0z" fill="#904d24"/><path d="m139.18 97.313h262.184v168.478h-262.184z" fill="#ac5e2e" transform="matrix(.707 -.707 .707 .707 -49.216 244.287)"/><path d="m328.999 18.688h39.798v168.478h-39.798z" fill="#9e5528" transform="matrix(.707 -.707 .707 .707 29.41 276.855)"/><path d="m242.327 351.322 12.322-12.322c3.916-3.916 3.916-10.266 0-14.182l-127.641-127.643c-3.916-3.916-10.266-3.916-14.182 0l-12.322 12.322c-3.916 3.916-3.916 10.266 0 14.182l127.642 127.642c3.915 3.917 10.265 3.917 14.181.001z" fill="#c86d36"/><path d="m427.719 165.929 12.322-12.322c3.916-3.916 3.916-10.266 0-14.182l-127.641-127.642c-3.916-3.916-10.266-3.916-14.182 0l-12.322 12.322c-3.916 3.916-3.916 10.266 0 14.182l127.642 127.642c3.915 3.917 10.265 3.917 14.181 0z" fill="#c86d36"/><path d="m298.218 11.783-12.322 12.322c-.652.652-1.185 1.375-1.619 2.139 3.828-2.178 8.779-1.645 12.044 1.619l127.642 127.642c3.265 3.265 3.798 8.216 1.619 12.043.764-.435 1.488-.968 2.139-1.619l12.322-12.322c3.916-3.916 3.916-10.266 0-14.182l-127.643-127.642c-3.916-3.917-10.266-3.916-14.182 0z" fill="#ac5e2e"/></g><path d="m287.351 491.354v-19.836c0-6.522-5.287-11.809-11.809-11.809h-256.233c-6.522 0-11.809 5.287-11.809 11.809v19.836c0 6.522 5.287 11.809 11.809 11.809h256.233c6.522 0 11.809-5.287 11.809-11.809z" fill="#d77f4a"/><path d="m283.042 459.709h-34.112c6.522 0 11.809 5.287 11.809 11.809v19.836c0 6.522-5.287 11.809-11.809 11.809h34.113c6.522 0 11.809-5.287 11.809-11.809v-19.836c-.001-6.522-5.288-11.809-11.81-11.809z" fill="#c86d36"/></g><g><path d="m283.042 452.208h-9.426v-19.467c0-14.12-11.487-25.607-25.607-25.607h-149.088c-4.142 0-7.5 3.358-7.5 7.5s3.358 7.5 7.5 7.5h149.087c5.849 0 10.607 4.758 10.607 10.607v19.467h-214.88v-19.467c0-5.849 4.758-10.607 10.607-10.607h9.579c4.142 0 7.5-3.358 7.5-7.5s-3.358-7.5-7.5-7.5h-9.579c-14.12 0-25.607 11.487-25.607 25.607v19.467h-9.426c-10.647 0-19.309 8.662-19.309 19.309v19.836c0 10.647 8.662 19.309 19.309 19.309h263.733c10.646 0 19.309-8.662 19.309-19.309v-19.836c0-10.647-8.663-19.309-19.309-19.309zm4.309 39.146c0 2.376-1.933 4.309-4.309 4.309h-263.733c-2.376 0-4.309-1.933-4.309-4.309v-19.836c0-2.376 1.933-4.309 4.309-4.309h263.733c2.376 0 4.309 1.933 4.309 4.309z"/><path d="m501.773 363.671-38.891-38.891c-2.929-2.929-7.677-2.929-10.607 0-2.929 2.929-2.929 7.678 0 10.606l38.892 38.892c7.782 7.781 7.785 20.384 0 28.167-7.787 7.785-20.381 7.787-28.169.001l-141.94-141.94 14.084-14.084 14.084-14.084 78.3 78.3c2.93 2.929 7.678 2.929 10.607 0s2.929-7.678 0-10.606l-78.301-78.301 49.5-49.5c3.158 2.672 7.112 4.136 11.295 4.136 4.682 0 9.084-1.823 12.395-5.134h.001l12.322-12.322c6.833-6.834 6.833-17.955 0-24.789l-127.642-127.643c-3.311-3.311-7.713-5.134-12.395-5.134s-9.084 1.824-12.395 5.134l-12.321 12.322c-3.312 3.311-5.135 7.713-5.135 12.395 0 4.184 1.465 8.138 4.137 11.295l-148.382 148.383c-3.158-2.672-7.111-4.137-11.295-4.137-4.682 0-9.084 1.824-12.394 5.134l-12.323 12.322c-6.833 6.834-6.833 17.955 0 24.789l127.642 127.642c3.311 3.311 7.712 5.134 12.395 5.134s9.084-1.823 12.395-5.134l12.322-12.322c3.312-3.311 5.135-7.713 5.135-12.395 0-4.184-1.465-8.137-4.136-11.295l49.501-49.5 141.94 141.94c13.646 13.645 35.729 13.648 49.382 0 13.643-13.645 13.645-35.735-.003-49.381zm-210.574-334.263 12.322-12.323c.98-.981 2.583-.992 3.575 0l127.642 127.642c.986.986.986 2.59 0 3.576l-12.321 12.322c-.99.989-2.591.987-3.576 0-7.129-7.129-120.486-120.485-127.643-127.642-.987-.986-.987-2.587.001-3.575zm-41.853 304.288-12.322 12.322c-.988.988-2.587.988-3.576 0l-127.641-127.641c-.986-.986-.986-2.59 0-3.576l12.323-12.323c.978-.978 2.581-.994 3.575 0l127.641 127.642c.989.989.989 2.587 0 3.576zm1.049-23.741-108.526-108.525 148.281-148.281 108.525 108.525c-4.834 4.836-137.75 137.751-148.28 148.281z"/></g></g></svg>