<svg height="512pt" viewBox="-40 0 512 512.128" width="512pt" xmlns="http://www.w3.org/2000/svg"><path d="m360.0625 472.105469h64c0 17.6875-14.320312 32-32 32s-32-14.3125-32-32zm0 0" fill="#ccd1d9"/><path d="m112.0625 144.191406h208v24h-208zm0 0" fill="#656d78"/><path d="m263.984375 400.105469v40h-95.921875v-40l23.921875 8 24.078125-24 24 24zm0 0" fill="#ffce54"/><path d="m392.0625 504.105469h-288c-17.679688 0-32-14.3125-32-32v-432.082031h224c0-17.679688 14.320312-32 32-32s32 14.320312 32 32v432.082031c0 17.6875 14.320312 32 32 32zm-72-335.914063v-24h-208v24zm-56.078125 271.914063v-40l-23.921875 8-24-24-24.078125 24-23.921875-8v40zm0 0" fill="#e6e9ed"/><path d="m40.0625 8.023438h288c-17.679688 0-32 14.320312-32 32h-288c0-17.679688 14.320312-32 32-32zm0 0" fill="#f5f7fa"/><path d="m392.0625 512.128906c-22.054688 0-40-17.945312-40-40 0-4.425781 3.578125-8 8-8 4.425781 0 8 3.574219 8 8 0 13.230469 10.769531 24 24 24 13.234375 0 24-10.769531 24-24 0-4.425781 3.578125-8 8-8 4.425781 0 8 3.574219 8 8 0 22.054688-17.941406 40-40 40zm0 0"/><path d="m104.0625 512.128906c-22.054688 0-40-17.945312-40-40 0-4.425781 3.578125-8 8-8 4.425781 0 8 3.574219 8 8 0 13.230469 10.769531 24 24 24 4.425781 0 8 3.574219 8 8 0 4.421875-3.574219 8-8 8zm0 0"/><path d="m360.0625 48c-4.421875 0-8-3.574219-8-8 0-13.230469-10.765625-24-24-24-13.230469 0-24 10.769531-24 24 0 4.425781-3.574219 8-8 8-4.421875 0-8-3.574219-8-8 0-22.054688 17.945312-40 40-40 22.058594 0 40 17.945312 40 40 0 4.425781-3.574219 8-8 8zm0 0"/><path d="m360.0625 480.128906c-4.421875 0-8-3.578125-8-8v-432.128906c0-4.425781 3.578125-8 8-8 4.425781 0 8 3.574219 8 8v432.128906c0 4.421875-3.574219 8-8 8zm0 0"/><path d="m8.0625 48c-4.421875 0-8-3.574219-8-8 0-22.054688 17.945312-40 40-40 4.425781 0 8 3.574219 8 8s-3.574219 8-8 8c-13.230469 0-24 10.769531-24 24 0 4.425781-3.574219 8-8 8zm0 0"/><path d="m72.0625 480.128906c-4.421875 0-8-3.578125-8-8v-432.128906c0-4.425781 3.578125-8 8-8 4.425781 0 8 3.574219 8 8v432.128906c0 4.421875-3.574219 8-8 8zm0 0"/><path d="m296.0625 48h-288c-4.421875 0-8-3.574219-8-8s3.578125-8 8-8h288c4.425781 0 8 3.574219 8 8s-3.574219 8-8 8zm0 0"/><path d="m328.0625 16h-288c-4.421875 0-8-3.574219-8-8s3.578125-8 8-8h288c4.425781 0 8 3.574219 8 8s-3.574219 8-8 8zm0 0"/><path d="m392.0625 512.128906h-288c-4.421875 0-8-3.578125-8-8 0-4.425781 3.578125-8 8-8h288c4.425781 0 8 3.574219 8 8 0 4.421875-3.574219 8-8 8zm0 0"/><path d="m424.0625 480.128906h-64c-4.421875 0-8-3.578125-8-8 0-4.425781 3.578125-8 8-8h64c4.425781 0 8 3.574219 8 8 0 4.421875-3.574219 8-8 8zm0 0"/><path d="m320.03125 176.191406h-207.96875c-4.421875 0-8-3.574218-8-8v-24c0-4.421875 3.578125-8 8-8h207.96875c4.425781 0 8 3.578125 8 8v24c0 4.417969-3.574219 8-8 8zm-199.96875-16h191.96875v-8h-191.96875zm0 0"/><path d="m184.03125 224.191406h-72.015625c-4.421875 0-8-3.574218-8-8 0-4.421875 3.578125-8 8-8h72.015625c4.425781 0 8 3.578125 8 8 0 4.425782-3.574219 8-8 8zm0 0"/><path d="m320.078125 224.191406h-72.015625c-4.421875 0-8-3.574218-8-8 0-4.421875 3.578125-8 8-8h72.015625c4.425781 0 8 3.578125 8 8 0 4.425782-3.574219 8-8 8zm0 0"/><path d="m216.167969 224.191406c-4.425781 0-8.039063-3.574218-8.039063-8 0-4.421875 3.535156-8 7.949219-8h.089844c4.417969 0 8 3.578125 8 8 0 4.425782-3.59375 8-8 8zm0 0"/><path d="m320.046875 272.160156h-207.984375c-4.421875 0-8-3.574218-8-8 0-4.425781 3.578125-8 8-8h207.984375c4.425781 0 8 3.574219 8 8 0 4.425782-3.574219 8-8 8zm0 0"/><path d="m320.046875 304.144531h-207.984375c-4.421875 0-8-3.578125-8-8 0-4.425781 3.578125-8 8-8h207.984375c4.425781 0 8 3.574219 8 8 0 4.421875-3.574219 8-8 8zm0 0"/><path d="m264.015625 336.144531h-95.917969c-4.425781 0-8-3.578125-8-8 0-4.425781 3.574219-8 8-8h95.917969c4.425781 0 8 3.574219 8 8 0 4.421875-3.574219 8-8 8zm0 0"/><path d="m168.03125 448.128906c-4.421875 0-8-3.578125-8-8v-40.015625c0-4.425781 3.578125-8 8-8 4.425781 0 8 3.574219 8 8v40.015625c0 4.421875-3.574219 8-8 8zm0 0"/><path d="m264.015625 448.128906h-95.984375c-4.421875 0-8-3.578125-8-8 0-4.425781 3.578125-8 8-8h95.984375c4.425781 0 8 3.574219 8 8 0 4.421875-3.574219 8-8 8zm0 0"/><path d="m264.015625 448.128906c-4.421875 0-8-3.578125-8-8v-40.015625c0-4.425781 3.578125-8 8-8 4.425781 0 8 3.574219 8 8v40.015625c0 4.421875-3.574219 8-8 8zm0 0"/><path d="m240.046875 416.113281c-3.351563 0-6.472656-2.121093-7.582031-5.472656-1.402344-4.183594.855468-8.71875 5.054687-10.121094l23.96875-8c4.183594-1.40625 8.71875.863281 10.121094 5.054688 1.398437 4.195312-.855469 8.722656-5.058594 10.121093l-23.964843 8c-.84375.28125-1.699219.417969-2.539063.417969zm0 0"/><path d="m240.046875 416.113281c-2.046875 0-4.09375-.785156-5.65625-2.335937l-24.015625-23.984375c-3.128906-3.128907-3.128906-8.183594-.007812-11.320313 3.128906-3.128906 8.191406-3.121094 11.320312-.007812l24.015625 23.984375c3.128906 3.125 3.128906 8.183593.007813 11.320312-1.558594 1.558594-3.613282 2.34375-5.664063 2.34375zm0 0"/><path d="m192.015625 416.113281c-.832031 0-1.695313-.136719-2.527344-.417969l-23.96875-8c-4.191406-1.398437-6.457031-5.925781-5.054687-10.121093 1.398437-4.191407 5.925781-6.460938 10.121094-5.054688l23.964843 8c4.191407 1.402344 6.457031 5.929688 5.058594 10.121094-1.121094 3.351563-4.242187 5.472656-7.59375 5.472656zm0 0"/><path d="m192.015625 416.113281c-2.046875 0-4.105469-.785156-5.664063-2.34375-3.121093-3.136719-3.121093-8.195312.007813-11.320312l24.015625-23.984375c3.128906-3.113282 8.191406-3.121094 11.320312.007812 3.121094 3.136719 3.121094 8.191406-.007812 11.320313l-24.015625 23.984375c-1.558594 1.550781-3.609375 2.335937-5.65625 2.335937zm0 0"/></svg>