<svg id="Capa_1" enable-background="new 0 0 512 512" height="512" viewBox="0 0 512 512" width="512" xmlns="http://www.w3.org/2000/svg"><g><path d="m381.321 50.766v443.797c0 2.845-2.306 5.151-5.151 5.151h-289.433l-86.737-86.736v-362.211c0-2.845 2.306-5.151 5.151-5.151h371.019c2.845 0 5.151 2.306 5.151 5.15z" fill="#efedef"/><path d="m376.17 45.616h-28.231c2.845 0 5.151 2.306 5.151 5.151v443.797c0 2.845-2.306 5.151-5.151 5.151h28.231c2.845 0 5.151-2.306 5.151-5.151v-443.798c0-2.844-2.306-5.15-5.151-5.15z" fill="#e3e0e4"/><path d="m86.737 499.715v-81.586c0-2.845-2.306-5.151-5.151-5.151h-81.586z" fill="#d4cfd5"/><path d="m424.791 166.517c-2.392-1.381-5.449-.561-6.83 1.83l-102.434 177.421 14.216 16.003 22.847 5.395 104.934-181.751z" fill="#5766cc"/><path d="m273.259 469.492c-1.311 0-2.639-.334-3.856-1.037-3.695-2.133-4.962-6.859-2.828-10.554l15.294-26.49c2.133-3.696 6.857-4.963 10.554-2.828 3.695 2.133 4.962 6.859 2.828 10.554l-15.294 26.49c-1.431 2.479-4.028 3.865-6.698 3.865z" fill="#5766cc"/><path d="m315.527 345.768-34.8 60.275c-5.909 10.235-2.402 23.322 7.832 29.231 10.235 5.909 23.322 2.402 29.231-7.832l34.8-60.275z" fill="#ffd064"/><path d="m474.683 275.476-51.867-29.945 34.707-60.115 51.867 29.945c3.763 2.172 3.377 7.723-.65 9.355l-27.118 10.986c-2.217.898-3.539 3.188-3.208 5.557l4.045 28.977c.601 4.303-4.013 7.413-7.776 5.24z" fill="#e175a5"/><g fill="#5766cc"><path d="m70.187 17.436v56.356c0 2.845 2.306 5.151 5.151 5.151h25.648c2.845 0 5.151-2.306 5.151-5.151v-56.356c0-2.845-2.306-5.151-5.151-5.151h-25.648c-2.845 0-5.151 2.306-5.151 5.151z"/><path d="m275.194 17.436v56.356c0 2.845 2.306 5.151 5.151 5.151h25.648c2.845 0 5.151-2.306 5.151-5.151v-56.356c0-2.845-2.306-5.151-5.151-5.151h-25.648c-2.845 0-5.151 2.306-5.151 5.151z"/></g><g fill="#a4ace3"><path d="m305.505 183.553h-229.679c-4.268 0-7.726-3.459-7.726-7.726s3.459-7.726 7.726-7.726h229.679c4.268 0 7.726 3.459 7.726 7.726s-3.458 7.726-7.726 7.726z"/><path d="m305.505 280.389h-229.679c-4.268 0-7.726-3.459-7.726-7.726s3.459-7.726 7.726-7.726h229.679c4.268 0 7.726 3.459 7.726 7.726s-3.458 7.726-7.726 7.726z"/><path d="m179.133 377.224h-103.307c-4.268 0-7.726-3.459-7.726-7.726s3.459-7.726 7.726-7.726h103.307c4.268 0 7.726 3.459 7.726 7.726s-3.459 7.726-7.726 7.726z"/></g></g></svg>