<svg id="Capa_1" enable-background="new 0 0 512 512" height="512" viewBox="0 0 512 512" width="512" xmlns="http://www.w3.org/2000/svg"><g><g><path d="m377.649 56.779v430.796c0 2.761-2.239 5-5 5h-280.953l-84.196-84.196v-351.6c0-2.761 2.239-5 5-5h360.149c2.762 0 5 2.239 5 5z" fill="#efedef"/><path d="m372.649 51.779h-27.404c2.761 0 5 2.239 5 5v430.796c0 2.761-2.239 5-5 5h27.404c2.761 0 5-2.239 5-5v-430.796c0-2.761-2.238-5-5-5z" fill="#e3e0e4"/><path d="m91.696 492.575v-79.196c0-2.761-2.239-5-5-5h-79.196z" fill="#d4cfd5"/><path d="m415.643 166.712-135.64 234.935c-5.736 9.935-2.332 22.639 7.603 28.375s22.639 2.332 28.374-7.603l135.64-234.935z" fill="#5766cc"/><path d="m313.783 343.138-33.78 58.509c-5.736 9.935-2.332 22.639 7.603 28.375s22.639 2.332 28.374-7.603l33.78-58.509z" fill="#ffd064"/><path d="m468.277 274.906-50.347-29.068 33.691-58.354 50.347 29.068c3.653 2.109 3.278 7.497-.631 9.081l-26.323 10.664c-2.152.872-3.435 3.095-3.115 5.395l3.926 28.128c.583 4.176-3.896 7.194-7.548 5.086z" fill="#e175a5"/><g fill="#5766cc"><path d="m75.631 24.425v54.705c0 2.761 2.239 5 5 5h24.897c2.761 0 5-2.239 5-5v-54.705c0-2.761-2.239-5-5-5h-24.897c-2.762 0-5 2.239-5 5z"/><path d="m274.631 24.425v54.705c0 2.761 2.239 5 5 5h24.897c2.761 0 5-2.239 5-5v-54.705c0-2.761-2.239-5-5-5h-24.897c-2.761 0-5 2.239-5 5z"/></g></g><g><path d="m247.215 485.074h-148.02v-71.696c0-6.893-5.607-12.5-12.5-12.5h-71.695v-242.027c0-4.142-3.357-7.5-7.5-7.5s-7.5 3.358-7.5 7.5v249.528c0 2.045.839 3.946 2.196 5.303l84.195 84.196c1.338 1.338 3.261 2.197 5.304 2.197h155.52c4.143 0 7.5-3.358 7.5-7.5 0-4.143-3.357-7.501-7.5-7.501zm-163.02-10.606-58.589-58.589h58.589z"/><path d="m81.104 185.676h222.95c4.143 0 7.5-3.358 7.5-7.5s-3.357-7.5-7.5-7.5h-222.95c-4.143 0-7.5 3.358-7.5 7.5s3.358 7.5 7.5 7.5z"/><path d="m81.104 279.674h222.95c4.143 0 7.5-3.358 7.5-7.5s-3.357-7.5-7.5-7.5h-222.95c-4.143 0-7.5 3.358-7.5 7.5s3.358 7.5 7.5 7.5z"/><path d="m81.104 373.673h100.28c4.143 0 7.5-3.358 7.5-7.5s-3.357-7.5-7.5-7.5h-100.28c-4.143 0-7.5 3.358-7.5 7.5s3.358 7.5 7.5 7.5z"/><path d="m505.716 210.057-86.324-49.84c-1.724-.995-3.771-1.263-5.691-.75-1.921.515-3.56 1.772-4.554 3.495l-23.997 41.564v-147.746c0-6.893-5.607-12.5-12.5-12.5h-55.622v-19.854c0-6.893-5.607-12.5-12.5-12.5h-24.898c-6.893 0-12.5 5.607-12.5 12.5v19.854h-149.103v-19.854c0-6.893-5.607-12.5-12.5-12.5h-24.896c-6.893 0-12.5 5.607-12.5 12.5v19.854h-55.631c-6.893 0-12.5 5.608-12.5 12.5v67.07c0 4.142 3.357 7.5 7.5 7.5s7.5-3.358 7.5-7.5v-64.57h53.131v19.851c0 6.893 5.607 12.5 12.5 12.5h24.896c6.893 0 12.5-5.607 12.5-12.5v-19.851h149.103v19.851c0 6.893 5.607 12.5 12.5 12.5h24.897c6.893 0 12.5-5.607 12.5-12.5v-19.851h53.122v171.227l-96.642 167.39c-3.776 6.54-4.779 14.159-2.824 21.453 1.289 4.811 3.769 9.096 7.181 12.543l-11.6 20.092c-2.071 3.587-.842 8.174 2.745 10.245 1.182.682 2.471 1.006 3.743 1.006 2.592 0 5.113-1.346 6.502-3.751l11.598-20.089c2.317.608 4.696.92 7.092.92 2.455 0 4.928-.323 7.363-.976 7.294-1.955 13.391-6.633 17.166-13.172l47.676-82.576v141.477h-87.931c-4.143 0-7.5 3.358-7.5 7.5s3.357 7.5 7.5 7.5h90.431c6.893 0 12.5-5.607 12.5-12.5v-169.957l35.524-61.529 43.852 25.318c1.966 1.135 4.13 1.699 6.289 1.699 7.311 0 13.534-6.458 12.438-14.317l-3.664-26.248 24.564-9.951c4.486-1.818 7.481-5.947 7.816-10.775.336-4.83-2.061-9.333-6.252-11.752zm-402.689-133.426h-19.896v-49.705h19.896zm199.001 0h-19.898v-49.705h19.897v49.705zm116.359 100.326 22.987 13.272-94.36 163.436-22.987-13.272zm-108.903 241.712c-1.772 3.07-4.634 5.266-8.059 6.183-3.427.918-7.001.446-10.07-1.326-3.07-1.772-5.266-4.634-6.184-8.059-.917-3.424-.446-7 1.326-10.071l30.03-52.014 22.987 13.272zm162.714-189.324c-5.346 2.165-8.524 7.667-7.728 13.383l3.237 23.189-39.533-22.825 26.19-45.363 39.533 22.825z"/></g></g></svg>