<svg id="Layer_1" enable-background="new 0 0 512 512" height="512" viewBox="0 0 512 512" width="512" xmlns="http://www.w3.org/2000/svg"><g><g clip-rule="evenodd" fill-rule="evenodd"><path d="m331.223 96.783-95.064 95.064c-7.833 7.834-17.109 13.135-27.101 17.212 11.792-29.019 13.415-64.212 36.725-87.521l55.097-55.098c8.344-8.344 21.998-8.344 30.343 0 8.345 8.345 8.344 21.999 0 30.343z" fill="#e5ae8c"/><path d="m236.159 191.847 95.064-95.064 86.783-86.783 83.994 83.994-51.826 51.827c-3.896-5.491-10.302-9.092-17.508-9.092h-39.344c-11.8 0-21.455 9.655-21.455 21.456 0 11.798 9.65 21.451 21.447 21.455h-36.695c-11.8 0-21.456 9.655-21.456 21.456 0 11.798 9.651 21.452 21.449 21.455h-22.512c-11.8 0-21.456 9.655-21.456 21.456 0 11.799 9.652 21.452 21.449 21.455h-15.803c-11.8 0-21.456 9.655-21.455 21.456 0 9.536 6.305 17.671 14.952 20.441v67.352c0 11.801-9.655 21.455-21.456 21.455s-21.455-9.655-21.455-21.455v20.076c0 11.801-9.655 21.455-21.456 21.455-11.8 0-21.454-9.654-21.456-21.454v10.036c0 11.801-9.654 21.455-21.455 21.455s-21.456-9.655-21.455-21.455v10.038c0 11.801-9.655 21.456-21.456 21.456-.62 0-1.235-.027-1.843-.079-10.947-.942-19.613-10.197-19.613-21.376v-126.999l-43.359 43.359c-8.344 8.344-21.998 8.345-30.343 0-8.344-8.344-8.344-21.998 0-30.342l55.097-55.097c23.355-23.355 58.468-24.869 87.521-36.724 9.992-4.079 19.268-9.38 27.101-17.213z" fill="#ffdcd5"/><g fill="#e5ae8c"><path d="m393.313 179.64c-11.797-.004-21.447-9.657-21.447-21.455 0-11.801 9.655-21.456 21.455-21.456h39.344c7.206 0 13.612 3.601 17.508 9.092 2.484 3.501 3.947 7.769 3.947 12.364 0 11.801-9.655 21.455-21.455 21.456h-26.412z"/><path d="m356.618 179.64h36.695 12.941c11.8 0 21.456 9.654 21.456 21.455s-9.655 21.455-21.456 21.455h-32.811-16.832c-11.798-.003-21.448-9.657-21.449-21.455 0-11.8 9.656-21.455 21.456-21.455z"/><path d="m356.611 222.551h16.832c11.801 0 21.456 9.655 21.456 21.456s-9.655 21.455-21.456 21.455h-28.94-4.16-6.25c-11.798-.003-21.449-9.656-21.449-21.455 0-11.801 9.655-21.456 21.456-21.456z"/><path d="m344.504 265.462c11.8 0 21.456 9.654 21.456 21.455s-9.655 21.455-21.456 21.455h-26.213c-2.265 0-4.45-.355-6.503-1.013-8.647-2.771-14.952-10.906-14.952-20.442 0-11.801 9.656-21.456 21.455-21.456h15.803 6.25z"/><path d="m140.142 287.864v126.998c0 11.18 8.666 20.434 19.613 21.377l-65.761 65.761-83.994-83.994 86.783-86.783z"/></g></g><g><path d="m512 93.994c0-2.652-1.054-5.196-2.929-7.071l-83.994-83.994c-3.906-3.905-10.236-3.905-14.143 0l-66.074 66.074c-1.526-3.498-3.709-6.776-6.567-9.634-12.266-12.264-32.22-12.263-44.485 0l-55.097 55.097c-17.668 17.668-23.936 40.494-29.997 62.568-2.34 8.521-4.573 16.634-7.393 24.294-7.724 2.852-15.976 5.124-24.433 7.443-22.004 6.035-44.757 12.276-62.422 29.94l-55.097 55.099c-12.264 12.265-12.264 32.22 0 44.484 2.815 2.815 6.08 5.021 9.631 6.57l-66.071 66.071c-3.905 3.905-3.905 10.237 0 14.143l83.994 83.994c1.875 1.875 4.419 2.929 7.071 2.929s5.196-1.054 7.071-2.929l62.843-62.844c10.195-.745 19.059-6.364 24.254-14.537 4.767 2.911 10.363 4.589 16.346 4.589 11.16 0 20.98-5.841 26.565-14.627 4.767 2.911 10.364 4.589 16.346 4.589 8.378 0 16.271-3.278 22.225-9.231 3.83-3.831 6.554-8.464 8.008-13.514 3.881 1.716 8.17 2.669 12.679 2.669 17.345 0 31.456-14.111 31.456-31.456v-56.337h22.716c17.345 0 31.456-14.111 31.456-31.455 0-4.041-.766-7.905-2.16-11.458 17.182-.191 31.1-14.228 31.1-31.454 0-4.04-.766-7.904-2.159-11.456h3.515c17.345 0 31.455-14.111 31.455-31.456 0-4.087-.784-7.996-2.209-11.582 16.021-1.438 28.62-14.94 28.62-31.329 0-3.642-.629-7.139-1.773-10.395l46.724-46.724c1.875-1.874 2.928-4.417 2.928-7.07zm-418.006 393.864-69.852-69.852 79.712-79.712 26.288-26.288v102.856c0 10.043 4.737 18.996 12.088 24.759zm250.509-189.485h-26.213c-3.036 0-5.906-1.198-8.081-3.373-2.176-2.176-3.374-5.046-3.374-8.083 0-6.316 5.139-11.455 11.455-11.455h15.803 6.25 4.16c6.316 0 11.456 5.139 11.456 11.456s-5.139 11.455-11.456 11.455zm28.941-42.911h-33.101-6.247c-6.314-.002-11.452-5.141-11.452-11.456 0-3.036 1.198-5.906 3.374-8.082 2.175-2.176 5.045-3.374 8.081-3.374h22.513 16.832c6.316 0 11.455 5.139 11.455 11.456s-5.139 11.456-11.455 11.456zm32.81-42.911h-32.811-16.829c-6.314-.002-11.451-5.141-11.452-11.456 0-3.036 1.198-5.906 3.374-8.082 2.176-2.175 5.046-3.374 8.082-3.374h36.694 12.941c6.316 0 11.455 5.139 11.455 11.455s-5.137 11.457-11.454 11.457zm26.411-42.911h-26.411-12.938c-6.313-.002-11.45-5.142-11.451-11.456 0-3.036 1.198-5.906 3.374-8.082 2.175-2.176 5.046-3.374 8.082-3.374h39.344c6.316 0 11.455 5.139 11.455 11.456s-5.138 11.456-11.455 11.456zm17.272-37.726c-4.961-3.273-10.896-5.185-17.272-5.185h-39.344s0 0-.001 0c-8.378 0-16.271 3.278-22.224 9.231s-9.231 13.846-9.231 22.226c0 4.039.766 7.903 2.16 11.454h-7.407s0 0-.001 0c-8.378 0-16.27 3.278-22.223 9.231-5.954 5.953-9.232 13.846-9.232 22.225 0 4.295.867 8.394 2.434 12.128-5.904 1.243-11.338 4.176-15.721 8.558-5.953 5.953-9.231 13.846-9.231 22.224 0 5.021 1.183 9.771 3.284 13.987-11.217 4.812-19.093 15.965-19.093 28.924 0 8.378 3.278 16.271 9.231 22.224 1.75 1.751 3.672 3.263 5.721 4.536v61.033c0 6.316-5.14 11.456-11.456 11.456s-11.456-5.139-11.456-11.456v-18.02c0-5.523-4.478-10-10-10s-10 4.477-10 10v18.02 20.077c0 3.036-1.197 5.905-3.373 8.081-2.175 2.175-5.046 3.374-8.083 3.374-6.316 0-11.455-5.139-11.456-11.455v-18.019c0-5.523-4.477-10-10-10s-10 4.477-10 10v18.02 10.037c0 6.316-5.139 11.455-11.455 11.455s-11.456-5.139-11.456-11.455v-18.02c0-5.523-4.477-10-10-10s-10 4.477-10 10v18.02 10.038c0 6.316-5.139 11.456-11.456 11.456-6.316 0-11.456-5.139-11.456-11.456v-126.998c0-4.044-2.437-7.691-6.173-9.239-3.735-1.547-8.038-.693-10.898 2.167l-43.354 43.354c-.002.002-.003.003-.005.005l-.005.005c-2.147 2.144-5.021 3.324-8.095 3.324-3.076 0-5.953-1.182-8.1-3.33-4.466-4.466-4.466-11.733 0-16.2l55.098-55.098c13.919-13.92 33.179-19.202 53.569-24.795 21.617-5.929 43.971-12.06 61.052-29.142l15.838-15.839c3.905-3.905 3.905-10.237 0-14.142-3.904-3.905-10.237-3.905-14.142 0l-15.838 15.838c-.773.773-1.569 1.513-2.379 2.233.434-1.565.865-3.126 1.291-4.678 5.62-20.465 10.928-39.796 24.854-53.721l55.097-55.097c4.466-4.465 11.734-4.467 16.2 0 2.147 2.147 3.33 5.023 3.33 8.1 0 3.076-1.183 5.953-3.33 8.1l-15.585 15.585c-3.905 3.905-3.905 10.237 0 14.143 3.906 3.905 10.236 3.905 14.143 0l15.584-15.584s.001 0 .001-.001c0 0 .001-.001.001-.002l79.71-79.711 69.852 69.852z"/><path d="m283.816 134.187c-5.522 0-10 4.481-10 10.004s4.478 10 10 10 10-4.477 10-10v-.008c0-5.523-4.478-9.996-10-9.996z"/></g></g></svg>