<svg height="512pt" viewBox="0 -61 512 512" width="512pt" xmlns="http://www.w3.org/2000/svg"><path d="m464.574219 195.210938c0-74.476563-41.574219-139.421876-102.734375-172.851563-27.328125-14.9375-60.675782 5.078125-60.675782 36.222656 61.464844 15.046875 107.207032 70.59375 107.207032 136.628907 0 59.5-37.140625 110.484374-89.457032 131-10.726562 4.207031-17.75 14.59375-17.75 26.117187 0 19.847656 20.003907 33.394531 38.472657 26.125 73.082031-28.78125 124.9375-100.066406 124.9375-183.242187zm0 0" fill="#6f6797"/><path d="m502 195.210938c0 35.777343-29.003906 64.777343-64.78125 64.777343s-64.777344-29-64.777344-64.777343c0-35.777344 29-64.78125 64.777344-64.78125 5.953125 0 11.71875.804687 17.195312 2.304687 27.429688 7.535156 47.585938 32.652344 47.585938 62.476563zm0 0" fill="#fbcbc5"/><path d="m47.425781 195.210938c0 74.476562 41.574219 139.417968 102.734375 172.847656 27.328125 14.9375 60.675782-5.078125 60.675782-36.222656-61.464844-15.046876-107.207032-70.589844-107.207032-136.625 0-59.503907 37.140625-110.488282 89.457032-131.003907 10.726562-4.207031 17.75-14.59375 17.75-26.117187 0-19.847656-20.003907-33.394532-38.472657-26.121094-73.082031 28.777344-124.9375 100.0625-124.9375 183.242188zm0 0" fill="#f7a39f"/><path d="m139.558594 195.210938c0 35.777343-29 64.777343-64.777344 64.777343s-64.78125-29-64.78125-64.777343c0-35.777344 29.003906-64.78125 64.78125-64.78125s64.777344 29.003906 64.777344 64.78125zm0 0" fill="#e1be9c"/><path d="m256 296.34375c-10.054688-5.550781-23.464844-13.53125-36.601562-23.109375-14.492188-10.5625-24.109376-19.746094-30.308594-26.949219-6.457032-7.5-10.039063-17.394531-10.039063-27.671875v-88.433593c28.75-4.300782 55.984375-14.046876 76.949219-36.105469" fill="#b1e9f9"/><path d="m256 145.9375v150.40625c10.054688-5.550781 23.464844-13.53125 36.601562-23.109375 14.492188-10.5625 24.109376-19.746094 30.308594-26.949219 6.457032-7.5 10.039063-17.394531 10.039063-27.671875v-88.433593c-28.75-4.300782-55.984375-14.046876-76.949219-36.105469" fill="#6bcdf5"/><path d="m512 195.210938c0-31.773438-20.226562-60.03125-49.800781-70.503907-17.234375-47.40625-51.132813-86.835937-95.5625-111.125-15.898438-8.6875-34.71875-8.34375-50.347657.925781-15.730468 9.328126-25.125 25.804688-25.125 44.074219 0 5.523438 4.476563 10 10 10 5.523438 0 10-4.476562 10-10 0-11.132812 5.730469-21.179687 15.328126-26.871093 9.492187-5.632813 20.910156-5.847657 30.550781-.578126 36.636719 20.027344 65.347656 51.441407 81.921875 89.316407-.582032-.011719-1.164063-.019531-1.746094-.019531-12.355469 0-24.019531 3.011718-34.300781 8.339843-7.035157-14.28125-16.257813-27.304687-27.503907-38.808593-3.863281-3.949219-10.195312-4.019532-14.144531-.160157-3.949219 3.863281-4.019531 10.191407-.160156 14.144531 10.503906 10.742188 18.976563 23.003907 25.226563 36.511719-14.691407 13.664063-23.894532 33.152344-23.894532 54.753907 0 21.597656 9.203125 41.085937 23.894532 54.75-14.121094 30.433593-39.753907 54.660156-71.070313 66.941406-14.640625 5.738281-24.101563 19.644531-24.101563 35.425781 0 12.609375 6.222657 24.375 16.640626 31.46875 6.429687 4.378906 13.921874 6.621094 21.480468 6.621094 4.730469 0 9.484375-.878907 14.015625-2.664063 55.453125-21.835937 98.617188-66.207031 118.90625-122.058594 28.984375-10.304687 49.792969-38.011718 49.792969-70.484374zm-176.027344 173.933593c-5.695312 2.246094-11.859375 1.5625-16.910156-1.878906-5.019531-3.417969-7.898438-8.863281-7.898438-14.9375 0-7.378906 4.582032-14.132813 11.402344-16.808594 34.960938-13.710937 63.78125-40.335937 80.34375-73.875 10.28125 5.332031 21.949219 8.34375 34.308594 8.34375.585938 0 1.167969-.003906 1.75-.019531-19.765625 45.21875-56.625 80.917969-102.996094 99.175781zm101.246094-119.15625c-30.203125 0-54.777344-24.574219-54.777344-54.777343 0-30.207032 24.574219-54.78125 54.777344-54.78125 4.941406 0 9.835938.65625 14.546875 1.949218 23.6875 6.503906 40.234375 28.230469 40.234375 52.832032 0 30.203124-24.574219 54.777343-54.78125 54.777343zm0 0"/><path d="m210.835938 321.835938c-5.523438 0-10 4.476562-10 10 0 11.136718-5.730469 21.179687-15.328126 26.875-9.492187 5.625-20.914062 5.84375-30.550781.574218-36.675781-20.046875-65.355469-51.4375-81.925781-89.316406.582031.011719 1.164062.019531 1.75.019531 12.355469 0 24.019531-3.011719 34.300781-8.339843 7.035157 14.28125 16.257813 27.304687 27.503907 38.808593 1.960937 2.003907 4.554687 3.007813 7.152343 3.007813 2.519531 0 5.042969-.945313 6.988281-2.847656 3.949219-3.859376 4.019532-10.191407.160157-14.140626-10.5-10.742187-18.972657-23.007812-25.226563-36.515624 14.695313-13.664063 23.898438-33.152344 23.898438-54.75 0-21.597657-9.203125-41.089844-23.894532-54.753907 14.121094-30.4375 39.75-54.660156 71.070313-66.9375 14.640625-5.742187 24.101563-19.648437 24.101563-35.429687 0-12.609375-6.222657-24.371094-16.640626-31.46875-10.453124-7.117188-23.722656-8.59375-35.5-3.957032-55.40625 21.820313-98.613281 66.21875-118.902343 122.058594-28.984375 10.304688-49.792969 38.011719-49.792969 70.488282 0 32.472656 20.808594 60.179687 49.796875 70.484374 17.226563 47.421876 51.085937 86.824219 95.570313 111.140626 7.667968 4.191406 16.015624 6.28125 24.355468 6.28125 8.953125 0 17.898438-2.410157 25.988282-7.207032 15.730468-9.328125 25.125-25.804687 25.125-44.074218 0-5.523438-4.476563-10-10-10zm-34.808594-300.5625c5.695312-2.246094 11.859375-1.558594 16.910156 1.878906 5.019531 3.417968 7.898438 8.863281 7.898438 14.9375 0 7.378906-4.582032 14.132812-11.402344 16.808594-34.964844 13.710937-63.78125 40.335937-80.34375 73.875-10.28125-5.332032-21.949219-8.34375-34.308594-8.34375-.585938 0-1.167969.003906-1.75.019531 19.773438-45.210938 56.664062-80.929688 102.996094-99.175781zm-156.027344 173.9375c0-30.207032 24.574219-54.78125 54.78125-54.78125 30.203125 0 54.777344 24.574218 54.777344 54.78125 0 30.203124-24.574219 54.777343-54.777344 54.777343-30.207031 0-54.78125-24.574219-54.78125-54.777343zm0 0"/><path d="m260.992188 305.011719c9.472656-5.234375 23.613281-13.574219 37.5-23.695313 13.285156-9.683594 24.050781-19.277344 31.996093-28.507812 8.035157-9.335938 12.460938-21.476563 12.460938-34.195313v-88.429687c0-4.960938-3.640625-9.160156-8.542969-9.894532-31.574219-4.730468-54.179688-15.242187-71.140625-33.085937-.003906-.003906-.015625-.019531-.035156-.042969-3.757813-4.566406-10.753907-4.5625-14.484375.027344l-.007813.015625c-16.964843 17.84375-39.570312 28.359375-71.144531 33.085937-4.902344.738282-8.542969 4.933594-8.542969 9.894532v88.429687c0 12.71875 4.425781 24.859375 12.460938 34.195313 7.945312 9.234375 18.710937 18.824218 31.996093 28.507812 13.964844 10.179688 28.1875 18.554688 37.65625 23.785156.003907 0 .046876.023438.121094.058594 3.027344 1.519532 6.617188 1.507813 9.605469-.089844.042969-.023437.074219-.042968.101563-.058593zm-64.324219-65.25c-4.914063-5.707031-7.617188-13.21875-7.617188-21.148438v-79.988281c27.558594-5.265625 49.609375-15.367188 66.949219-30.671875 17.339844 15.308594 39.390625 25.40625 66.949219 30.671875v79.988281c0 7.929688-2.703125 15.4375-7.617188 21.148438-6.847656 7.953125-16.746093 16.734375-28.621093 25.394531-7.058594 5.144531-14.210938 9.8125-20.710938 13.796875v-83.742187c0-5.523438-4.476562-10-10-10s-10 4.476562-10 10v83.742187c-6.5-3.984375-13.652344-8.652344-20.710938-13.796875-11.875-8.660156-21.773437-17.441406-28.621093-25.394531zm0 0"/><path d="m256 163.769531c-.648438 0-1.308594-.070312-1.949219-.199219-.640625-.132812-1.269531-.320312-1.871093-.570312-.609376-.25-1.191407-.5625-1.730469-.921875-.550781-.367187-1.058594-.777344-1.519531-1.238281-.460938-.46875-.878907-.980469-1.238282-1.53125-.363281-.539063-.671875-1.121094-.921875-1.71875-.25-.601563-.449219-1.230469-.570312-1.871094-.128907-.648438-.199219-1.300781-.199219-1.960938 0-.648437.070312-1.296874.199219-1.949218.121093-.640625.320312-1.269532.570312-1.871094.25-.597656.558594-1.179688.921875-1.726562.359375-.542969.777344-1.0625 1.238282-1.523438.460937-.457031.96875-.878906 1.519531-1.238281.539062-.359375 1.121093-.667969 1.730469-.917969.601562-.25 1.230468-.441406 1.871093-.570312 1.289063-.261719 2.609375-.261719 3.898438 0 .640625.128906 1.269531.320312 1.871093.570312.609376.25 1.191407.558594 1.730469.917969.550781.359375 1.058594.78125 1.519531 1.238281.460938.460938.878907.980469 1.238282 1.523438.363281.546874.671875 1.128906.921875 1.726562.25.601562.449219 1.230469.570312 1.871094.128907.652344.199219 1.300781.199219 1.949218 0 .660157-.070312 1.3125-.199219 1.960938-.121093.640625-.320312 1.269531-.570312 1.871094-.25.597656-.558594 1.179687-.921875 1.71875-.359375.550781-.777344 1.0625-1.238282 1.53125-.460937.460937-.96875.871094-1.519531 1.238281-.539062.359375-1.121093.671875-1.730469.921875-.601562.25-1.230468.4375-1.871093.570312-.640625.128907-1.300781.199219-1.949219.199219zm0 0"/></svg>