<svg height="512" viewBox="0 0 64 64" width="512" xmlns="http://www.w3.org/2000/svg"><g id="Labor"><path d="m46 19h-1v-1a12.991 12.991 0 0 0 -7-11.526 12.8 12.8 0 0 0 -3-1.124v-.35a2 2 0 0 0 -2-2h-2a2 2 0 0 0 -2 2v.35a13 13 0 0 0 -10 12.65v1h-1a2 2 0 0 0 0 4h28a2 2 0 0 0 0-4z" fill="#ffcd00"/><path d="m46 19h-1v-1a12.991 12.991 0 0 0 -7-11.526 12.8 12.8 0 0 0 -3-1.124v-.35a2 2 0 0 0 -2-2h-2a2 2 0 0 1 2 2v.35a12.8 12.8 0 0 1 3 1.124 12.991 12.991 0 0 1 7 11.526v1h1a2 2 0 0 1 0 4h2a2 2 0 0 0 0-4z" fill="#ddb200"/><path d="m55 61-1.28-12.8a8 8 0 0 0 -7.72-7.189v19.989z" fill="#ed1c24"/><path d="m32 45a4 4 0 0 0 4-4v-4.838a9.966 9.966 0 0 1 -8 0v4.838a4 4 0 0 0 4 4z" fill="#ffbcab"/><path d="m46 41.01v19.99h-28v-19.99c.08 0 .16-.01.24-.01h3.76v4a6 6 0 0 0 6 6h8a6 6 0 0 0 6-6v-4h3.76c.08 0 .16.01.24.01z" fill="#ffcd00"/><path d="m18.24 41c-.08 0-.16.01-.24.01v19.99h2v-20z" fill="#ddb200"/><path d="m45.76 41h-1.76v20h2v-19.99c-.08 0-.16-.01-.24-.01z" fill="#ddb200"/><path d="m18 41.011a8 8 0 0 0 -7.72 7.189l-1.28 12.8h9z" fill="#ed1c24"/><path d="m28 51h8a6 6 0 0 0 6-6v-4h-6a4 4 0 0 1 -8 0h-6v4a6 6 0 0 0 6 6z" fill="#ed1c24"/><path d="m36 49h-8a6 6 0 0 1 -6-6v2a6 6 0 0 0 6 6h8a6 6 0 0 0 6-6v-2a6 6 0 0 1 -6 6z" fill="#d51920"/><path d="m19 23v1a3 3 0 0 0 3 3v-4z" fill="#ffa791"/><path d="m42 27a3 3 0 0 0 3-3v-1h-3z" fill="#ffa791"/><path d="m22 23v4a10 10 0 0 0 20 0v-4z" fill="#ffc2b3"/><path d="m22 55h20v6h-20z" fill="#58595b"/><path d="m40 55h2v6h-2z" fill="#4f5052"/><g fill="#231f20"><path d="m23 20h7a1 1 0 0 0 1-1v-2h2v2a1 1 0 0 0 1 1h8a1 1 0 0 0 0-2h-7v-1a2 2 0 0 0 -2-2h-2a2 2 0 0 0 -2 2v1h-6a1 1 0 0 0 0 2z"/><path d="m54.72 48.1a8.981 8.981 0 0 0 -8.96-8.1h-8.76v-3.21a11.032 11.032 0 0 0 5.96-8.92 4 4 0 0 0 3.04-3.87 3 3 0 0 0 0-6 13.935 13.935 0 0 0 -10.04-13.42 3 3 0 0 0 -2.96-2.58h-2a3 3 0 0 0 -2.96 2.58 13.935 13.935 0 0 0 -10.04 13.42 3 3 0 0 0 0 6 4 4 0 0 0 3.04 3.87 11.032 11.032 0 0 0 5.96 8.92v3.21h-8.76a8.981 8.981 0 0 0 -8.96 8.1l-1.28 12.8a1.036 1.036 0 0 0 .26.77 1 1 0 0 0 .74.33h46a1 1 0 0 0 .74-.33 1.036 1.036 0 0 0 .26-.77zm-37.72 11.9h-6.9l1.17-11.7a6.979 6.979 0 0 1 5.73-6.19zm26-34.27v-1.73h1a1.984 1.984 0 0 1 -1 1.73zm-22 0a1.984 1.984 0 0 1 -1-1.73h1zm-3-3.73a1 1 0 0 1 0-2 1 1 0 0 0 2 0v-2a11.942 11.942 0 0 1 5-9.75v2.75a1 1 0 0 0 2 0v-3.91c.33-.15.66-.28 1-.4v6.31a1 1 0 0 0 2 0v-8a1 1 0 0 1 1-1h2a1 1 0 0 1 1 1v8a1 1 0 0 0 2 0v-6.31c.34.12.67.25 1 .4v3.91a1 1 0 0 0 2 0v-2.75a11.942 11.942 0 0 1 5 9.75v2a1 1 0 0 0 2 0 1 1 0 0 1 0 2zm5 5v-3h4a1 1 0 0 0 0 2h1a1 1 0 0 0 0-2h8a1 1 0 0 0 0 2h1a1 1 0 0 0 0-2h4v3a9 9 0 0 1 -18 0zm12 10.57v3.43a3 3 0 0 1 -6 0v-3.43a10.68 10.68 0 0 0 6 0zm-12 4.43h4.1a5 5 0 0 0 9.8 0h4.1v3a5 5 0 0 1 -5 5h-8a5 5 0 0 1 -5-5zm18 18h-18v-4h18zm4 0h-2v-5a1 1 0 0 0 -1-1h-20a1 1 0 0 0 -1 1v5h-2v-18h2v3a7.008 7.008 0 0 0 7 7h8a7.008 7.008 0 0 0 7-7v-3h2zm2 0v-17.89a6.979 6.979 0 0 1 5.73 6.19l1.17 11.7z"/><path d="m35.536 31.878.171-.171a1 1 0 0 0 -1.414-1.414l-.171.171a3 3 0 0 1 -4.244 0l-.171-.171a1 1 0 0 0 -1.414 1.414l.171.171a5 5 0 0 0 7.072 0z"/></g></g></svg>