<svg id="Layer_1" enable-background="new 0 0 511.925 511.925" height="512" viewBox="0 0 511.925 511.925" width="512" xmlns="http://www.w3.org/2000/svg"><g><g><path d="m470.952 487.033s-10.82 2.22-30.63 5.079c-35.76 5.149-100.83 12.388-184.37 12.388-129.8 0-215-17.467-215-17.467 14.87-207.019 50.2-388.801 50.2-388.801l-.01-.07c37.69-4.689 94.75-9.779 164.81-9.779 52.63 0 97.93 2.87 133.19 6.299 11.68 1.12 22.25 2.32 31.62 3.479l-.01.07s35.32 181.783 50.2 388.802z" fill="#99f8ff"/><path d="m420.752 98.231s35.32 181.783 50.2 388.801c0 0-10.82 2.22-30.63 5.079-14.02-187.752-43.26-354.427-51.18-397.43 11.68 1.12 22.25 2.32 31.62 3.479z" fill="#92d3f7"/><ellipse cx="255.962" cy="317.875" fill="#92d3f7" rx="62.3" ry="49.558"/><g fill="#8389aa"><ellipse cx="155.924" cy="233.096" rx="17.631" ry="17.609"/><path d="m355.925 215.487c-9.737 0-17.631 7.884-17.631 17.609s7.894 17.609 17.631 17.609 17.631-7.884 17.631-17.609c-.001-9.725-7.894-17.609-17.631-17.609z"/></g></g><g><path d="m478.443 486.419c-14.337-199.542-48.069-377.946-50.213-389.147-.147-1.351-.66-2.648-1.499-3.746-1.223-1.598-3.036-2.638-5.032-2.886-13.043-1.621-28.97-3.354-47.357-4.906-4.658-15.936-11.691-29.878-21.098-41.774-32.258-40.79-82.616-43.96-97.282-43.96s-65.023 3.17-97.281 43.961c-9.405 11.893-16.437 25.83-21.095 41.761-16.165 1.367-31.99 3.009-47.36 4.92-1.996.248-3.804 1.326-5.026 2.923-.763.998-1.254 2.174-1.446 3.403-1.224 6.361-25.657 134.499-41.955 294.243-.421 4.121 2.579 7.802 6.7 8.223.259.026.516.039.77.039 3.8 0 7.059-2.877 7.452-6.739 14.68-143.889 35.979-261.979 40.807-287.871 11.889-1.418 24.054-2.667 36.421-3.761-5.771 31.089-3.731 68.675 6.136 112.451-5.658 4.608-9.28 11.622-9.28 19.467 0 13.845 11.273 25.108 25.131 25.108s25.131-11.264 25.131-25.108c0-13.845-11.273-25.109-25.131-25.109-.583 0-1.16.027-1.734.066-9.431-42.815-10.999-78.971-4.737-108.153 12.735-.972 25.655-1.782 38.73-2.406 4.138-.198 7.331-3.712 7.134-7.849s-3.674-7.314-7.849-7.134c-11.375.543-22.634 1.229-33.763 2.033 4.047-11.785 9.614-22.205 16.73-31.203 28.078-35.506 72.553-38.265 85.515-38.265s57.437 2.759 85.516 38.265c7.116 8.999 12.683 19.419 16.731 31.205-29.314-2.119-63.823-3.659-102.246-3.659-9.313 0-18.741.091-28.022.271-4.141.08-7.434 3.502-7.354 7.644s3.505 7.443 7.644 7.354c9.185-.178 18.515-.268 27.732-.268 40.387 0 76.392 1.718 106.499 4.015 6.262 29.182 4.693 65.339-4.738 108.155-.591-.042-1.186-.071-1.788-.071-13.857 0-25.131 11.264-25.131 25.109s11.273 25.108 25.131 25.108 25.131-11.264 25.131-25.108c0-7.824-3.602-14.822-9.234-19.431 9.873-43.791 11.916-81.389 6.144-112.486 13.674 1.207 25.882 2.505 36.421 3.76 5.772 30.978 35.089 193.861 48.598 375.956-6.875 1.226-19.061 3.25-35.711 5.44-4.107.54-6.999 4.307-6.458 8.414.496 3.775 3.719 6.523 7.426 6.523.326 0 .656-.021.987-.065 27.393-3.603 42.597-6.697 43.23-6.827 3.687-.756 6.243-4.129 5.973-7.885zm-312.377-253.399c0 5.574-4.545 10.108-10.131 10.108s-10.131-4.535-10.131-10.108c0-5.574 4.545-10.109 10.131-10.109s10.131 4.535 10.131 10.109zm189.869 10.108c-5.586 0-10.131-4.535-10.131-10.108 0-5.574 4.545-10.109 10.131-10.109s10.131 4.535 10.131 10.109-4.545 10.108-10.131 10.108z"/><path d="m386.708 490.838c-42.31 4.039-86.299 6.086-130.746 6.086-107.441 0-184.875-12.186-207.031-16.113 1.203-16.22 2.572-32.843 4.078-49.509.372-4.125-2.67-7.771-6.795-8.145-4.115-.367-7.771 2.668-8.145 6.795-1.722 19.055-3.266 38.053-4.588 56.466-.271 3.755 2.286 7.128 5.974 7.885.859.176 87.435 17.621 216.507 17.621 44.921 0 89.39-2.07 132.172-6.154 4.123-.394 7.146-4.055 6.753-8.178s-4.056-7.15-8.179-6.754z"/><path d="m255.962 275.811c11.249 0 22.065 2.618 31.281 7.571 3.649 1.96 8.197.591 10.157-3.056 1.961-3.648.593-8.196-3.056-10.157-11.392-6.122-24.664-9.358-38.383-9.358-38.487 0-69.8 25.599-69.8 57.064s31.313 57.064 69.8 57.064 69.8-25.599 69.8-57.064c0-6.465-1.307-12.811-3.884-18.86-1.625-3.811-6.028-5.585-9.84-3.96-3.811 1.624-5.584 6.029-3.961 9.839 1.781 4.181 2.685 8.548 2.685 12.981 0 23.194-24.583 42.064-54.8 42.064s-54.8-18.87-54.8-42.064 24.585-42.064 54.801-42.064z"/><path d="m303.347 401.402h-94.77c-4.143 0-7.5 3.358-7.5 7.5s3.357 7.5 7.5 7.5h94.77c4.143 0 7.5-3.358 7.5-7.5s-3.357-7.5-7.5-7.5z"/></g></g></svg>