<svg id="Layer_1" enable-background="new 0 0 512 512" height="512" viewBox="0 0 512 512" width="512" xmlns="http://www.w3.org/2000/svg"><g><g><path d="m504.5 256c0 27-4.31 52.99-12.28 77.33-15.9 48.64-46.42 90.67-86.36 120.9-22.52 17.06-48.04 30.37-75.63 38.99-23.44 7.33-48.37 11.28-74.23 11.28-4.47 0-8.91-.12-13.32-.35-21.11-1.12-41.52-4.87-60.91-10.93-27.38-8.56-52.73-21.73-75.13-38.6-40-30.13-70.61-72.06-86.64-120.62v-.01c-8.11-24.531-12.5-50.74-12.5-77.99 0-25.18 3.75-49.48 10.71-72.38 14.91-49.06 44.59-91.69 83.86-122.72 23.48-18.54 50.38-32.94 79.61-42.09 18.88-5.91 38.72-9.63 59.23-10.86 4.99-.3 10.02-.45 15.09-.45 25.89 0 50.85 3.96 74.32 11.31 29.23 9.15 56.13 23.55 79.61 42.09 39.27 31.03 68.95 73.66 83.86 122.72 6.96 22.899 10.71 47.2 10.71 72.38z" fill="#c7cde0"/><path d="m504.5 256c0 27-4.31 52.99-12.28 77.33-15.9 48.64-46.42 90.67-86.36 120.9-22.52 17.06-48.04 30.37-75.63 38.99-23.44 7.33-48.37 11.28-74.23 11.28-4.47 0-8.91-.12-13.32-.35 129.44-8.66 231.76-116.41 231.76-248.05 0-132.24-103.25-240.36-233.53-248.15 4.99-.3 10.02-.45 15.09-.45 25.89 0 50.85 3.96 74.32 11.31 29.23 9.15 56.13 23.55 79.61 42.09 39.27 31.03 68.95 73.66 83.86 122.72 6.96 22.899 10.71 47.2 10.71 72.38z" fill="#b1accc"/><path d="m328.27 301.24s-30.45 19.2-63.4 31.38c-2.94 1.08-5.91 2.11-8.87 3.07-36.14-11.66-72.27-34.45-72.27-34.45-4.64-46.53 0-90.27 0-90.27s36.13-22.79 72.27-34.46c1.97.64 3.94 1.31 5.91 2 34.06 12.09 66.36 32.46 66.36 32.46s4.64 43.739 0 90.27z" fill="#8389aa"/><path d="m328.27 301.24s-30.45 19.2-63.4 31.38c26.71-24.95 39.93-42.2 39.93-42.2 2.5-33.09 0-67.82 0-67.82-13.95-16.15-32.43-34.16-42.89-44.09 34.06 12.09 66.36 32.46 66.36 32.46s4.64 43.739 0 90.27z" fill="#646d91"/><g fill="#8389aa"><path d="m330.32 18.81c-.02 3.73-.09 7.59-.21 11.55-.28 9.3-.84 19.13-1.84 29.09 0 0-36.13 22.79-72.27 34.45-36.14-11.66-72.27-34.45-72.27-34.45-1.42-14.19-1.97-28.13-2.05-40.64 18.88-5.91 38.72-9.63 59.23-10.86 4.99-.3 10.02-.45 15.09-.45 25.89 0 50.85 3.959 74.32 11.31z"/><path d="m256 424.909c-36.14 11.66-72.27 34.45-72.27 34.45-1.17 11.68-1.75 23.18-1.96 33.86 23.44 7.33 48.37 11.28 74.23 11.28s50.79-3.95 74.23-11.28c-.21-10.68-.79-22.18-1.96-33.86 0 0-36.13-22.789-72.27-34.45z"/><path d="m18.21 183.62c9.82 6.71 20.87 13.75 32.54 20.3 0 0 39.4-16.53 69.68-39.44 11.17-36.29 13.23-78.96 13.23-78.96-10.63-9.15-21.53-17.46-31.59-24.62-39.27 31.03-68.95 73.66-83.86 122.72z"/><path d="m492.22 333.329c-15.9 48.64-46.42 90.67-86.36 120.9-5.04-3.64-10.26-7.56-15.53-11.73-4.33-3.41-8.68-6.98-13-10.69 0 0 2.06-42.67 13.23-78.96 30.28-22.92 69.68-39.44 69.68-39.44 2.23 1.25 4.44 2.52 6.62 3.81 9.02 5.291 17.57 10.8 25.36 16.11z"/><path d="m493.79 183.62c-7.88 5.38-16.55 10.98-25.71 16.37-2.25 1.32-4.53 2.63-6.83 3.93 0 0-39.4-16.53-69.68-39.44-11.17-36.29-13.23-78.96-13.23-78.96 5.14-4.43 10.35-8.66 15.49-12.66 5.49-4.26 10.91-8.27 16.1-11.96 39.27 31.03 68.95 73.66 83.86 122.72z"/><path d="m50.75 314.89c-10.97 6.16-21.38 12.75-30.75 19.1v.01c16.03 48.56 46.64 90.49 86.64 120.62 8.75-6.37 17.99-13.55 27.02-21.32 0 0-2.06-42.67-13.23-78.96-30.28-22.921-69.68-39.45-69.68-39.45z"/></g><g fill="#646d91"><path d="m256 7.5c25.89 0 50.85 3.96 74.32 11.31-.02 3.73-.09 7.59-.21 11.55-27.4-12.68-57.5-20.51-89.2-22.41 4.99-.301 10.02-.45 15.09-.45z"/><path d="m466.86 317.219c9.02 5.29 17.57 10.8 25.36 16.11-15.9 48.64-46.42 90.67-86.36 120.9-5.04-3.64-10.26-7.56-15.53-11.73 36.92-32.6 64.09-76.009 76.53-125.28z"/><path d="m393.83 72.859c5.49-4.26 10.91-8.27 16.1-11.96 39.27 31.03 68.95 73.66 83.86 122.72-7.88 5.38-16.55 10.98-25.71 16.37-11.48-49.749-37.88-93.78-74.25-127.13z"/></g></g><g><path d="m457.227 97.73c-34.748-44.12-83.687-76.015-137.8-89.81-4.017-1.024-8.098 1.402-9.12 5.415-1.023 4.014 1.401 8.097 5.415 9.12 2.355.6 4.696 1.25 7.03 1.922-.192 10.651-.723 20.921-1.592 30.63-9.151 5.487-37.081 21.566-65.16 31-28.04-9.423-56.002-25.513-65.16-31.002-.866-9.69-1.397-19.94-1.59-30.572 21.62-6.205 44.142-9.433 66.75-9.433 7.759 0 15.587.373 23.268 1.108 4.129.4 7.786-2.628 8.181-6.751.395-4.124-2.628-7.786-6.751-8.181-8.155-.78-16.465-1.176-24.698-1.176-41.091 0-81.944 9.971-118.143 28.834-35.027 18.253-65.84 44.831-89.108 76.859-2.434 3.352-1.69 8.042 1.66 10.476 1.331.967 2.874 1.433 4.402 1.433 2.319 0 4.606-1.072 6.073-3.092 11.898-16.378 25.905-31.226 41.49-44.143 8.385 6.119 16.286 12.293 23.564 18.425-.757 10.651-3.615 42.785-11.979 71.158-23.802 17.564-53.021 31.24-62.77 35.594-7.857-4.516-15.952-9.555-24.153-15.025 3.956-11.969 8.861-23.672 14.75-35.06 1.902-3.679.462-8.204-3.217-10.107-3.68-1.902-8.205-.463-10.107 3.217-18.619 36.012-28.462 76.618-28.462 117.431 0 68.38 26.629 132.667 74.98 181.02 48.353 48.351 112.64 74.98 181.02 74.98s132.668-26.629 181.02-74.98c48.351-48.353 74.98-112.64 74.98-181.02 0-58.043-18.94-112.772-54.773-158.27zm-11.785 9.281c17.628 22.382 30.902 47.141 39.569 73.477-8.214 5.48-16.326 10.53-24.201 15.057-9.744-4.349-38.935-18.005-62.77-35.595-8.363-28.374-11.222-60.507-11.979-71.158 7.275-6.129 15.174-12.301 23.556-18.419 13.155 10.874 25.198 23.144 35.825 36.638zm-181.942-7.724c34.738-12.149 67.338-32.584 68.774-33.49 1.955-1.233 3.232-3.299 3.462-5.599.979-9.815 1.618-20.202 1.911-30.987 21.236 7.677 41.338 18.361 59.637 31.614-8.497 6.317-16.488 12.686-23.836 19.005-1.752 1.507-2.712 3.739-2.601 6.048.082 1.703 2.052 40.44 12.132 75.984-22.741 18.683-45.867 34.329-54.835 40.24-10.007-5.987-36.627-21.169-64.645-30.968v-71.847zm-148.821-38.49c9.571-6.951 19.639-13.204 30.11-18.661 9.538-4.97 19.429-9.259 29.564-12.895.295 10.776.933 21.152 1.91 30.956.229 2.3 1.507 4.366 3.462 5.6 1.436.906 34.036 21.341 68.774 33.49v71.846c-28.018 9.798-54.638 24.981-64.645 30.968-8.968-5.91-32.093-21.557-54.835-40.24 10.08-35.544 12.049-74.28 12.132-75.984.111-2.309-.849-4.541-2.601-6.048-7.358-6.329-15.361-12.707-23.871-19.032zm-99.679 195.203c0-20.698 2.568-40.887 7.614-60.424 8.314 5.431 16.513 10.421 24.468 14.885 1.136.638 2.401.96 3.671.96.984 0 1.971-.193 2.901-.584 1.56-.654 36.701-15.512 66.496-36.851 23.475 19.232 46.696 34.898 55.69 40.804-1.02 12.085-3.245 46.022.02 82.909-8.804 6.51-32.698 24.683-56.082 46.862-29.714-21.196-64.571-35.931-66.124-36.583-2.117-.887-4.521-.758-6.531.353-.451.25-9.536 5.292-22.928 13.947-6.053-21.285-9.195-43.539-9.195-66.278zm161.269 202.571c-.05.47-1.026 9.813-1.632 24.413-19.566-6.999-38.159-16.558-55.386-28.479 11.772-8.981 18.974-15.234 19.336-15.55 1.73-1.507 2.676-3.724 2.565-6.017-.014-.285-.349-7.101-1.457-17.628-.434-4.119-4.122-7.109-8.244-6.674-4.119.434-7.107 4.125-6.674 8.244.593 5.63.957 10.191 1.164 13.129-3.552 2.965-10.316 8.482-19.253 15.188-7.334-5.811-14.385-12.07-21.101-18.786-25.667-25.667-44.829-56.104-56.663-89.312 10.023-6.583 18.076-11.386 22.277-13.826 9.753 4.354 38.932 18.006 62.758 35.59 2.054 6.967 3.923 14.658 5.565 22.901.711 3.568 3.843 6.037 7.348 6.036.485 0 .979-.047 1.473-.146 4.063-.809 6.7-4.758 5.891-8.821-1.579-7.928-3.368-15.385-5.327-22.256 22.369-21.359 46.023-39.48 55.207-46.317 10.201 6.091 36.606 21.098 64.385 30.812v78.454c-34.738 12.149-67.338 32.584-68.774 33.49-1.943 1.227-3.216 3.273-3.458 5.555zm79.731 38.429c-22.829 0-45.168-3.168-66.53-9.268.37-10.9.994-19.396 1.38-23.931 9.16-5.492 37.079-21.563 65.15-30.995 28.029 9.419 55.981 25.501 65.151 30.997.385 4.534 1.01 13.029 1.38 23.928-21.363 6.101-43.702 9.269-66.531 9.269zm81.364-14.016c-.606-14.601-1.583-23.943-1.633-24.413-.242-2.283-1.516-4.329-3.457-5.553-1.436-.906-34.036-21.341-68.774-33.49v-78.454c27.779-9.715 54.184-24.722 64.385-30.813 9.179 6.831 32.815 24.935 55.203 46.313-10.174 35.647-12.158 74.654-12.24 76.363-.11 2.292.835 4.51 2.565 6.017.363.315 7.564 6.569 19.337 15.55-17.227 11.923-35.82 21.482-55.386 28.48zm89.049-56.571c-6.717 6.716-13.767 12.975-21.101 18.786-8.935-6.705-15.697-12.221-19.25-15.186.759-10.663 3.618-42.784 11.979-71.147 23.796-17.559 53.003-31.231 62.762-35.59 4.196 2.436 12.237 7.231 22.274 13.825-11.836 33.207-30.997 63.645-56.664 89.312zm38.465-118.081c-2.01-1.111-4.416-1.24-6.531-.353-1.553.652-36.41 15.387-66.125 36.583-23.394-22.189-47.298-40.367-56.094-46.87.623-7.058 1.09-14.406 1.37-21.942.153-4.139-3.077-7.62-7.217-7.773-4.132-.165-7.62 3.077-7.773 7.216-.275 7.427-.729 14.677-1.348 21.604-9.151 5.487-37.081 21.565-65.16 31-28.04-9.423-56.002-25.513-65.16-31.001-3.237-36.219-.914-70.41.012-81.39 9.162-5.494 37.08-21.563 65.148-30.993 28.031 9.42 55.984 25.503 65.151 30.996.352 4.135.903 11.553 1.277 21.071.162 4.138 3.631 7.364 7.788 7.2 4.14-.163 7.362-3.649 7.2-7.789-.368-9.385-.896-16.701-1.262-21.097 8.991-5.904 32.217-21.573 55.695-40.807 29.796 21.339 64.937 36.197 66.497 36.851.931.391 1.917.584 2.901.584 1.27 0 2.535-.322 3.671-.96 7.969-4.473 16.181-9.471 24.506-14.91 5.012 19.5 7.575 39.75 7.575 60.449 0 22.739-3.142 44.992-9.195 66.279-13.391-8.657-22.474-13.699-22.926-13.948z"/></g></g></svg>