<svg id="Layer_1" enable-background="new 0 0 512.002 512.002" height="512" viewBox="0 0 512.002 512.002" width="512" xmlns="http://www.w3.org/2000/svg"><g><g><path d="m453.027 213.382c-8.97 61.55-47.71 150.95-197 150.95-4.03 0-7.99-.07-11.86-.2-139.49-4.61-176.4-90.85-185.13-150.75-4.71-32.34-1.22-56.99-1.22-56.99s82.47-3.96 198.61-3.96c67.83 0 123.91 1.35 158.82 2.48 24.87.79 39 1.48 39 1.48s3.49 24.65-1.22 56.99z" fill="#fab684"/><path d="m453.027 213.382c-8.97 61.55-47.71 150.95-197 150.95-4.03 0-7.99-.07-11.86-.2 168.49-6.44 172.48-170.64 171.08-209.22 24.87.79 39 1.48 39 1.48s3.49 24.65-1.22 56.99z" fill="#f79e60"/><path d="m453.027 213.382h-.01c-4.16-.19-18.78-.84-41.55-1.54-35.11-1.11-89.6-2.36-155.04-2.36-107.91 0-186.75 3.41-197.38 3.9h-.01c-4.71-32.34-1.22-56.99-1.22-56.99s82.47-3.96 198.61-3.96c67.83 0 123.91 1.35 158.82 2.48 24.87.79 39 1.48 39 1.48s3.49 24.65-1.22 56.99z" fill="#f4f1e1"/><path d="m453.027 213.382h-.01c-4.16-.19-18.78-.84-41.55-1.54 4.14-24.8 4.18-45.95 3.78-56.93 24.87.79 39 1.48 39 1.48s3.49 24.65-1.22 56.99z" fill="#f4e5cb"/><g><path d="m166.837 473.172c0 17.3-14.02 31.33-31.31 31.33-2.61 0-5.15-.32-7.57-.93-13.63-3.38-23.73-15.71-23.73-30.4s10.1-27.02 23.73-30.4c2.42-.61 4.96-.93 7.57-.93 17.29 0 31.31 14.03 31.31 31.33z" fill="#8389aa"/><path d="m166.837 473.172c0 17.3-14.02 31.33-31.31 31.33-2.61 0-5.15-.32-7.57-.93 10.67-5.94 17.88-17.33 17.88-30.4 0-13.08-7.21-24.47-17.88-30.4 2.42-.61 4.96-.93 7.57-.93 17.29 0 31.31 14.03 31.31 31.33z" fill="#646d91"/></g><g><path d="m407.839 473.171c0 17.3-14.02 31.33-31.31 31.33-2.61 0-5.15-.32-7.57-.93-13.63-3.38-23.73-15.71-23.73-30.4s10.1-27.02 23.73-30.4c2.42-.61 4.96-.93 7.57-.93 17.29 0 31.31 14.03 31.31 31.33z" fill="#8389aa"/><path d="m407.839 473.171c0 17.3-14.02 31.33-31.31 31.33-2.61 0-5.15-.32-7.57-.93 10.67-5.94 17.88-17.33 17.88-30.4 0-13.08-7.21-24.47-17.88-30.4 2.42-.61 4.96-.93 7.57-.93 17.29 0 31.31 14.03 31.31 31.33z" fill="#646d91"/></g></g><g><path d="m152.544 128.417c1.038 0 2.092-.217 3.099-.674 3.771-1.714 5.438-6.16 3.725-9.931-2.807-6.176-5.943-14.373-5.276-23.048.438-6.123 2.846-11.504 5.635-17.736 1.18-2.636 2.399-5.361 3.52-8.273.025-.065.049-.131.072-.196 4.833-13.693 3.355-28.996-4.161-43.089-1.949-3.654-6.492-5.038-10.147-3.088s-5.038 6.492-3.088 10.147c5.494 10.302 6.659 21.287 3.285 30.942-.967 2.503-2.087 5.007-3.172 7.43-3.087 6.898-6.279 14.031-6.902 22.754-.926 12.043 3.029 22.553 6.579 30.364 1.255 2.764 3.98 4.398 6.831 4.398z"/><path d="m359.516 128.417c1.038 0 2.092-.217 3.099-.674 3.771-1.714 5.438-6.16 3.725-9.931-2.807-6.176-5.943-14.373-5.276-23.048.438-6.123 2.846-11.504 5.635-17.736 1.18-2.636 2.399-5.361 3.52-8.273.025-.065.049-.131.072-.196 4.833-13.693 3.355-28.996-4.161-43.089-1.949-3.654-6.492-5.038-10.147-3.088-3.655 1.949-5.038 6.492-3.088 10.147 5.494 10.302 6.659 21.287 3.285 30.942-.967 2.503-2.087 5.007-3.172 7.43-3.087 6.898-6.279 14.031-6.902 22.754-.926 12.043 3.03 22.553 6.579 30.364 1.256 2.764 3.98 4.398 6.831 4.398z"/><path d="m256.487 128.417c1.075 0 2.168-.233 3.205-.724 3.743-1.773 5.341-6.245 3.568-9.989-4.894-10.333-9.712-25.535-4.939-39.378 1.205-2.997 2.587-5.954 4.049-9.081 3.826-8.184 7.782-16.646 8.973-26.77.016-.136.028-.272.037-.409.783-12.525-2.049-25.638-8.188-37.919-1.852-3.705-6.358-5.208-10.062-3.355-3.705 1.852-5.207 6.357-3.355 10.062 4.924 9.85 7.221 20.242 6.647 30.07-.94 7.638-4.195 14.601-7.639 21.969-1.511 3.231-3.073 6.573-4.451 10.019-.041.102-.079.204-.115.308-5.176 14.791-3.278 32.394 5.489 50.905 1.28 2.707 3.973 4.292 6.781 4.292z"/><path d="m461.671 155.344c-.505-3.563-3.469-6.265-7.063-6.439-.819-.04-83.184-3.968-198.181-3.968-40.25 0-80.812.472-120.559 1.403-4.141.097-7.419 3.533-7.322 7.674s3.557 7.423 7.674 7.322c39.629-.928 80.073-1.399 120.207-1.399 96.203 0 169.452 2.756 190.979 3.665.588 8.066 1.126 23.387-1.024 41.984-11.79-.491-36.287-1.419-69.663-2.204-4.135-.131-7.577 3.18-7.674 7.322-.097 4.141 3.181 7.577 7.322 7.674 31.823.748 55.517 1.626 67.779 2.128-4.767 25.75-15.102 55.229-36.63 79.98-32.518 37.386-83.485 56.342-151.485 56.342-.881 0-1.759-.003-2.632-.009-.018 0-.036 0-.054 0-4.117 0-7.469 3.323-7.499 7.447-.029 4.142 3.305 7.523 7.447 7.553.909.006 1.822.009 2.739.009 22.299 0 42.912-1.964 61.81-5.858 4.442 7.768 13.801 24.425 24.11 44.494-74.378-3.293-143.971-1.135-171.923.025 10.321-20.094 19.692-36.77 24.132-44.535 6.844 1.414 13.909 2.578 21.202 3.482.313.039.624.058.932.058 3.731 0 6.963-2.781 7.434-6.579.51-4.111-2.41-7.856-6.521-8.365-52.455-6.5-92.229-26.979-118.219-60.868-17.806-23.216-26.755-49.736-31.089-73.172 24.67-1 96.231-3.532 188.528-3.532 27.396 0 55.191.223 82.612.663.041 0 .082.001.123.001 4.086 0 7.431-3.279 7.497-7.38.066-4.142-3.237-7.553-7.379-7.619-27.501-.441-55.377-.665-82.853-.665-94.637 0-167.595 2.656-190.76 3.611-2.146-18.597-1.605-33.923-1.016-41.987 6.985-.294 19.395-.782 36.139-1.304 4.14-.129 7.392-3.59 7.263-7.73-.129-4.141-3.612-7.389-7.73-7.263-26.911.839-42.712 1.592-42.868 1.6-3.596.172-6.562 2.875-7.066 6.439-.486 3.429-11.351 84.707 36.61 147.357 22.069 28.828 52.921 48.784 91.985 59.595-7.818 13.822-23.577 42.429-37.602 72.486-1.909-.29-3.864-.442-5.853-.442-21.398 0-38.808 17.42-38.808 38.831s17.409 38.831 38.808 38.831 38.808-17.42 38.808-38.831c0-14.091-7.541-26.451-18.796-33.257 2.226-4.749 4.493-9.456 6.761-14.068 19.432-.929 101.113-4.295 187.382-.004 2.274 4.624 4.547 9.343 6.778 14.104-11.224 6.813-18.741 19.157-18.741 33.225 0 21.411 17.409 38.831 38.808 38.831s38.808-17.42 38.808-38.831-17.409-38.831-38.808-38.831c-2.012 0-3.989.154-5.919.451-14.019-30.047-29.771-58.646-37.594-72.476 35.553-9.821 64.311-27.217 85.906-52.088 22.81-26.271 37.435-61.378 42.292-101.526 3.651-30.175.589-52.425.456-53.357zm-302.333 317.827c0 13.141-10.68 23.831-23.808 23.831s-23.808-10.69-23.808-23.831 10.68-23.831 23.808-23.831 23.808 10.69 23.808 23.831zm217.193-23.831c13.127 0 23.808 10.69 23.808 23.831s-10.68 23.831-23.808 23.831-23.808-10.69-23.808-23.831 10.68-23.831 23.808-23.831z"/><path d="m135.53 465.673c-4.143 0-7.501 3.358-7.501 7.501s3.358 7.501 7.501 7.501 7.501-3.358 7.501-7.501-3.359-7.501-7.501-7.501z"/><path d="m376.53 480.675c4.143 0 7.501-3.358 7.501-7.501s-3.358-7.501-7.501-7.501-7.501 3.358-7.501 7.501 3.358 7.501 7.501 7.501z"/></g></g></svg>