<svg id="Layer_1" enable-background="new 0 0 511.998 511.998" height="512" viewBox="0 0 511.998 511.998" width="512" xmlns="http://www.w3.org/2000/svg"><g><g><path d="m281.66 418.635-88.507 64.891c-65.548 27.733-117.513 3.924-143.23-21.793-3.705-3.705-7.368-7.948-10.84-12.707-20.661-28.256-34.69-74.416-10.946-130.532l64.862-88.466c60.676-63.293 113.871-114.89 136.788-136.846l88.705-65.047c56.122-23.752 102.275-9.716 130.53 10.946 4.759 3.472 9.001 7.135 12.707 10.84 25.717 25.717 49.532 77.69 21.786 143.252l-64.855 88.501c-21.856 22.82-73.552 76.129-137 136.961z" fill="#ff7878"/><path d="m281.66 418.635-88.507 64.891c-65.548 27.733-117.513 3.924-143.23-21.793-3.705-3.705-7.368-7.948-10.84-12.707 28.517 20.782 75.843 34.988 132.149 11.165l87.093-64.891c63.448-60.832 115.144-114.141 137-136.959l64.855-87.087c23.829-56.314 9.624-103.654-11.158-132.172 4.759 3.472 9.001 7.135 12.707 10.84 25.717 25.717 49.532 77.69 21.786 143.252l-64.855 88.501c-21.856 22.819-73.552 76.128-137 136.96z" fill="#f4536f"/><g><path d="m275.43 488.928c-16.914 16.914-34.846-5.657-34.846-5.657l-44.314-41.387c-67.965-60.443-127.56-127.561-127.56-127.561l-39.647-42.575s-22.571-17.932-5.657-34.846c16.921-16.921 34.853 5.65 34.853 5.65l43.197 40.383s15.669 14.764 26.615 26.615c32.661-32.661 61.164-1.952 68.574 5.459 7.417 7.418 36.734 37.356 4.08 70.01 10.253 9.362 26.615 26.615 26.615 26.615l42.44 42.44c.001.001 22.571 17.933 5.65 34.854z" fill="#f4f1e1"/><path d="m275.43 488.928c-16.914 16.914-34.846-5.657-34.846-5.657l29.196-29.196c.001 0 22.571 17.932 5.65 34.853z" fill="#f4e5cb"/><g><path d="m215.807 504.5c-7.078-5.89-13.583-11.943-19.162-17.48-12.049-11.964-19.792-21.475-19.792-21.475 36.55-44.13 75.2-75.201 75.2-75.201s9.518 7.75 21.489 19.806c5.529 5.572 11.582 12.077 17.465 19.148 0 .001-31.07 38.652-75.2 75.202z" fill="#8389aa"/><path d="m215.807 504.5c-7.078-5.89-13.583-11.943-19.162-17.48 39.746-33.298 69.246-67.691 76.897-76.869 5.529 5.572 11.582 12.077 17.465 19.148 0 0-31.07 38.651-75.2 75.201z" fill="#646d91"/></g><g><path d="m46.458 335.149c-7.078-5.89-13.583-11.943-19.162-17.48-12.049-11.964-19.792-21.475-19.792-21.475 36.55-44.13 75.2-75.201 75.2-75.201s9.518 7.75 21.489 19.806c5.529 5.572 11.582 12.077 17.465 19.148 0 .002-31.07 38.652-75.2 75.202z" fill="#8389aa"/><path d="m46.458 335.149c-7.078-5.89-13.583-11.943-19.162-17.48 39.746-33.298 69.246-67.691 76.897-76.869 5.529 5.572 11.582 12.077 17.465 19.148 0 .001-31.07 38.651-75.2 75.201z" fill="#646d91"/></g><ellipse cx="163.766" cy="347.913" fill="#c7cde0" rx="16.908" ry="16.929" transform="matrix(.71 -.704 .704 .71 -197.465 216.098)"/></g><g><path d="m488.931 275.43c16.914-16.914-5.657-34.846-5.657-34.846l-41.386-44.314c-60.443-67.967-127.56-127.562-127.56-127.562l-42.574-39.647s-17.932-22.571-34.846-5.657c-16.921 16.921 5.65 34.853 5.65 34.853l40.382 43.197s14.764 15.669 26.615 26.615c-32.661 32.661-1.952 61.165 5.459 68.575 7.417 7.418 37.356 36.734 70.01 4.08 9.362 10.253 26.615 26.615 26.615 26.615l42.44 42.44c-.001.002 17.931 22.572 34.852 5.651z" fill="#f4f1e1"/><path d="m488.931 275.43c16.914-16.914-5.657-34.846-5.657-34.846l-29.196 29.196c0 .001 17.932 22.571 34.853 5.65z" fill="#f4e5cb"/><g><path d="m504.502 215.806c-5.89-7.078-11.943-13.584-17.479-19.163-11.964-12.049-21.475-19.792-21.475-19.792-44.13 36.55-75.2 75.201-75.2 75.201s7.75 9.518 19.806 21.489c5.572 5.53 12.077 11.582 19.148 17.465.001.001 38.651-31.069 75.2-75.2z" fill="#8389aa"/><path d="m504.502 215.806c-5.89-7.078-11.943-13.584-17.479-19.163-33.297 39.746-67.69 69.247-76.869 76.898 5.572 5.53 12.077 11.582 19.148 17.465.001.001 38.651-31.069 75.2-75.2z" fill="#646d91"/></g><g><path d="m335.154 46.456c-5.89-7.078-11.943-13.584-17.479-19.163-11.965-12.049-21.475-19.791-21.475-19.791-44.13 36.55-75.2 75.2-75.2 75.2s7.75 9.518 19.806 21.489c5.572 5.53 12.077 11.582 19.148 17.465 0 .001 38.65-31.07 75.2-75.2z" fill="#8389aa"/><path d="m335.154 46.456c-5.89-7.078-11.943-13.584-17.479-19.163-33.297 39.746-67.69 69.247-76.869 76.898 5.572 5.53 12.077 11.582 19.148 17.465 0 .001 38.65-31.07 75.2-75.2z" fill="#646d91"/></g><ellipse cx="347.917" cy="163.765" fill="#c7cde0" rx="16.908" ry="16.929" transform="matrix(.71 -.705 .705 .71 -14.376 292.64)"/></g></g><g><path d="m146.492 330.639c-9.517 9.517-9.51 25.008.014 34.533 4.766 4.765 11.023 7.147 17.28 7.147 6.25 0 12.498-2.378 17.253-7.133 9.517-9.517 9.51-25.008-.015-34.534-9.524-9.522-25.015-9.529-34.532-.013zm23.941 23.941c-3.668 3.667-9.643 3.661-13.32-.015-3.677-3.677-3.683-9.652-.015-13.32 3.667-3.668 9.643-3.662 13.32.015 3.677 3.676 3.684 9.652.015 13.32z"/><path d="m510.265 211.015c-6.057-7.291-12.261-13.948-17.924-19.657 6.196-15.857 9.84-31.775 10.825-47.39.261-4.134-2.879-7.697-7.013-7.958-4.115-.241-7.696 2.879-7.958 7.013-.766 12.149-3.34 24.55-7.655 36.991-5.916-5.421-9.899-8.681-10.267-8.98-2.776-2.26-6.762-2.243-9.519.041-6.166 5.108-12.06 10.24-17.659 15.301-21.311-23.707-45.525-48.813-72.062-74.71-2.965-2.893-7.712-2.836-10.606.129-2.893 2.964-2.835 7.713.129 10.606 26.368 25.732 50.409 50.659 71.538 74.174-7.582 7.211-14.451 14.112-20.453 20.373-5.786-5.595-15.139-14.773-21.085-21.285-1.381-1.513-3.321-2.395-5.369-2.441-2.041-.047-4.025.747-5.473 2.195-18.354 18.354-38.34 16.984-59.399-4.075l-.731-.727c-5.164-5.123-17.255-17.118-17.285-31.796-.017-8.541 4.205-17.102 12.547-25.444 1.443-1.442 2.235-3.411 2.195-5.45-.04-2.04-.909-3.975-2.407-5.36-7.256-6.708-15.73-15.323-21.044-20.819 6.658-6.341 14.086-13.697 21.883-21.898 4.614 4.195 11.611 10.622 20.294 18.795 1.449 1.363 3.295 2.039 5.139 2.039 1.996 0 3.987-.792 5.463-2.359 2.839-3.017 2.695-7.763-.321-10.602-8.682-8.171-15.709-14.627-20.378-18.874 5.044-5.583 10.16-11.458 15.251-17.604 2.301-2.778 2.298-6.802-.007-9.577-3.072-3.698-6.181-7.23-9.239-10.562 54.869-18.986 100.01-.613 124.75 24.125 8.162 8.162 22.795 26.001 29.104 53.784.791 3.48 3.883 5.84 7.307 5.84.55 0 1.109-.061 1.668-.188 4.039-.917 6.57-4.936 5.653-8.975-5.295-23.313-17.059-45.001-33.126-61.068-29.01-29.011-82.491-50.422-146.737-25.306-10.663-10.511-18.834-17.197-19.369-17.633-2.776-2.26-6.763-2.243-9.519.041-6.82 5.649-13.318 11.333-19.44 16.912-4.585-3.944-11.607-8.496-19.971-8.974-7.401-.424-14.45 2.497-20.397 8.444-5.947 5.946-8.867 13-8.444 20.397.477 8.359 5.025 15.379 8.967 19.964-10.319 11.296-16.417 18.839-16.975 19.533-2.217 2.758-2.205 6.69.029 9.434.202.248 1.754 2.144 4.398 5.159-17.323 16.662-47.687 46.199-83.976 82.927-2.911 2.947-2.883 7.695.063 10.606 1.462 1.444 3.367 2.165 5.271 2.165 1.935 0 3.869-.744 5.335-2.229 36.012-36.447 66.158-65.78 83.46-82.424 6.77 7.044 15.519 15.554 25.429 23.787 1.388 1.153 3.09 1.731 4.792 1.731 1.663 0 3.326-.551 4.699-1.655.661-.532 7.54-6.094 17.954-15.538 4.168 4.315 10.332 10.604 16.463 16.518-7.833 9.621-11.785 19.808-11.764 30.367.042 20.908 15.792 36.533 21.72 42.415l.689.685c24.829 24.829 51.763 28.013 74.884 9.253 5.711 5.911 12.339 12.396 16.797 16.703-10.269 11.247-16.339 18.754-16.895 19.446-2.217 2.758-2.205 6.69.029 9.434.512.629 9.651 11.795 23.482 25.159-22.101 22.971-69.234 71.337-126.086 126.041-13.354-13.819-24.508-22.948-25.137-23.46-2.744-2.234-6.676-2.246-9.434-.029-.692.557-8.199 6.626-19.446 16.895-4.306-4.456-10.787-11.082-16.697-16.792 14.578-17.903 13.474-34.879 9.616-46.426-4.812-14.402-15.396-24.986-18.875-28.463l-.684-.688c-5.882-5.929-21.506-21.679-42.415-21.721-.028 0-.056 0-.084 0-10.529 0-20.688 3.952-30.283 11.764-5.914-6.131-12.202-12.295-16.518-16.463 9.444-10.414 15.006-17.293 15.538-17.954 2.235-2.78 2.203-6.749-.076-9.492-8.224-9.899-16.724-18.64-23.763-25.407 6.168-6.41 12.453-12.905 18.758-19.379 2.89-2.967 2.827-7.716-.141-10.605-2.967-2.889-7.715-2.827-10.605.141-6.407 6.579-12.792 13.177-19.056 19.689-3.029-2.658-4.935-4.217-5.184-4.42-2.744-2.233-6.676-2.246-9.434-.029-.694.558-8.237 6.656-19.533 16.974-4.585-3.942-11.604-8.49-19.963-8.967-7.402-.425-14.451 2.497-20.397 8.444-5.947 5.947-8.867 13-8.444 20.397.478 8.364 5.03 15.386 8.974 19.971-5.579 6.122-11.262 12.62-16.911 19.44-2.284 2.757-2.3 6.743-.041 9.519.436.536 7.121 8.706 17.632 19.369-25.115 64.247-3.705 117.729 25.307 146.741 10.236 10.237 23.056 18.938 37.073 25.162.989.439 2.022.647 3.04.647 2.874 0 5.617-1.662 6.858-4.458 1.681-3.786-.025-8.217-3.811-9.898-15.603-6.928-26.315-15.82-32.554-22.059-24.739-24.74-43.112-69.882-24.126-124.751 3.332 3.058 6.864 6.167 10.561 9.239 1.389 1.154 3.091 1.731 4.793 1.731 1.698 0 3.396-.575 4.784-1.724 6.147-5.092 12.023-10.209 17.608-15.255 16.114 17.698 64.051 69.344 117.526 117.426-5.061 5.6-10.194 11.494-15.302 17.661-2.284 2.757-2.3 6.743-.041 9.519.3.368 3.559 4.351 8.979 10.266-21.056 7.313-41.805 9.574-61.815 6.692-4.098-.586-7.902 2.254-8.493 6.354-.59 4.1 2.254 7.902 6.354 8.493 6.358.916 12.772 1.373 19.232 1.373 18.408 0 37.182-3.721 56.068-11.109 5.708 5.663 12.365 11.866 19.655 17.923 1.389 1.154 3.091 1.731 4.793 1.731 1.698 0 3.396-.575 4.784-1.724 6.812-5.642 13.301-11.318 19.416-16.89 4.572 4.013 11.744 8.8 20.335 9.291.469.027.937.04 1.402.04 6.885 0 13.425-2.915 18.995-8.484 5.947-5.947 8.867-13 8.444-20.397-.49-8.585-5.273-15.754-9.284-20.327 10.305-11.282 16.395-18.815 16.952-19.509 2.235-2.78 2.203-6.749-.076-9.492-1.557-1.874-3.124-3.703-4.689-5.488 57.328-55.154 104.843-103.924 126.954-126.91 1.778 1.558 3.598 3.117 5.463 4.667 1.389 1.153 3.09 1.731 4.793 1.731 1.663 0 3.326-.551 4.699-1.655.694-.558 8.226-6.648 19.508-16.952 4.573 4.011 11.741 8.794 20.327 9.284.469.027.936.04 1.402.04 6.884 0 13.425-2.915 18.995-8.484 5.947-5.946 8.867-13 8.444-20.397-.49-8.59-5.278-15.763-9.291-20.335 5.572-6.115 11.247-12.604 16.889-19.416 2.306-2.775 2.303-6.799-.002-9.574zm-272.136-173.367c-.177-3.094 1.156-6.016 4.075-8.935 2.907-2.907 5.809-4.243 8.895-4.077 3.492.185 7.01 2.182 9.802 4.346-6.782 6.504-12.961 12.729-18.43 18.43-2.144-2.773-4.143-6.281-4.342-9.764zm21.869 74.197c-13.072-11.417-23.717-22.977-29.188-29.205 9.191-10.798 33.58-38.317 65.335-65.312 6.229 5.475 17.777 16.109 29.181 29.166-26.974 31.732-54.526 56.154-65.328 65.351zm-235.36 139.254c-.164-3.078 1.17-5.988 4.077-8.895 2.907-2.906 5.813-4.248 8.895-4.077 3.494.185 7.013 2.184 9.803 4.345-5.701 5.469-11.925 11.648-18.429 18.43-2.164-2.793-4.161-6.31-4.346-9.803zm21.859 74.227c-13.058-11.406-23.691-22.953-29.165-29.181 26.965-31.72 54.505-56.133 65.312-65.335 6.228 5.473 17.788 16.118 29.203 29.188-9.197 10.802-33.619 38.354-65.35 65.328zm33.355-9.854c8.2-7.796 15.555-15.223 21.895-21.88 5.494 5.313 14.106 13.784 20.818 21.045 1.385 1.498 3.32 2.367 5.36 2.407 2.05.04 4.008-.753 5.45-2.195 8.326-8.326 16.869-12.547 25.393-12.547h.052c14.677.029 26.673 12.122 31.795 17.285l.727.73c3.162 3.162 11.563 11.562 15.254 22.61 4.316 12.917.659 24.951-11.179 36.789-1.448 1.448-2.241 3.426-2.195 5.473.046 2.048.928 3.987 2.441 5.369 6.512 5.946 15.69 15.299 21.285 21.085-6.26 6.001-13.161 12.87-20.371 20.452-53.189-47.806-100.905-99.242-116.725-116.623zm194.359 159.258c.164 3.078-1.17 5.988-4.077 8.895s-5.829 4.24-8.895 4.077c-3.653-.194-7.335-2.369-10.184-4.645 6.815-6.534 13.021-12.788 18.511-18.511 2.276 2.849 4.451 6.531 4.645 10.184zm-58.366 19.947c-13.058-11.406-23.691-22.953-29.165-29.181 26.965-31.72 54.505-56.133 65.312-65.335 6.229 5.473 17.788 16.117 29.204 29.188-9.197 10.801-33.62 38.353-65.351 65.328zm271.853-233.478c.177 3.094-1.156 6.016-4.075 8.935-2.906 2.907-5.809 4.247-8.895 4.077-3.655-.194-7.339-2.37-10.184-4.644 5.725-5.491 11.98-11.699 18.516-18.516 2.253 2.827 4.43 6.503 4.638 10.148zm-58.352 19.997c-13.07-11.416-23.715-22.976-29.187-29.204 9.201-10.806 33.614-38.347 65.334-65.313 6.229 5.475 17.776 16.109 29.181 29.166-26.974 31.731-54.526 56.153-65.328 65.351z"/><path d="m330.638 146.492c-9.517 9.517-9.51 25.008.015 34.533 4.765 4.765 11.023 7.148 17.28 7.148 6.249 0 12.498-2.378 17.253-7.133 4.611-4.611 7.149-10.744 7.145-17.268-.004-6.521-2.547-12.652-7.16-17.265-4.613-4.613-10.744-7.156-17.265-7.16-.006 0-.01 0-.016 0-6.517-.001-12.645 2.537-17.252 7.145zm23.927 10.621c1.782 1.782 2.765 4.15 2.766 6.667.001 2.514-.976 4.876-2.751 6.652-3.668 3.667-9.644 3.661-13.32-.015s-3.683-9.651-.014-13.32c1.774-1.774 4.134-2.751 6.646-2.751h.006c2.516.002 4.884.984 6.667 2.767z"/></g></g></svg>