<svg id="Layer_1" enable-background="new 0 0 512 512" height="512" viewBox="0 0 512 512" width="512" xmlns="http://www.w3.org/2000/svg"><g><g><g><g><path d="m385.747 498.74s-11.55.85-30.64 1.91c-30.46 1.67-80.11 3.85-132.59 3.85-85.37 0-163.23-5.76-163.23-5.76-.48-9.34-.92-18.64-1.33-27.91-10.75-242.208 1.33-457.566 1.33-457.566s30.24-2.24 73.69-3.92c26.27-1.02 57.37-1.84 89.54-1.84 31.1 0 61.21.76 86.92 1.74 17.71.66 33.34 1.43 45.76 2.11 19.03 1.06 30.55 1.91 30.55 1.91s13.02 232.159 0 485.476z" fill="#99f8ff"/><path d="m385.747 498.74s-11.55.85-30.64 1.91c11.48-229.828 2.73-428.766.09-489.295 19.03 1.06 30.55 1.91 30.55 1.91s13.02 232.158 0 485.475z" fill="#92d3f7"/><path d="m309.437 9.245c-.45 14.59-1.05 34.49-1.82 49.52 0 0-11.85.88-29.82 1.69-15.53.71-35.63 1.36-56.59 1.36-45.19 0-86.4-3.05-86.4-3.05-.77-15-1.37-34.86-1.83-49.42 26.27-1.02 57.37-1.84 89.54-1.84 19.41 0 38.44.3 56.25.76 10.73.28 21.01.61 30.67.98z" fill="#8389aa"/><path d="m309.437 9.245c-.45 14.59-1.05 34.49-1.82 49.52 0 0-11.85.88-29.82 1.69 1.28-18.78 1.36-38.16.97-52.189 10.73.279 21.01.609 30.67.979z" fill="#646d91"/></g><path d="m458.518 256.358c0 79.909-64.79 144.699-144.7 144.699-6.79 0-13.48-.47-20.02-1.38-19.77-2.73-38.27-9.47-54.65-19.35-37 16.46-66.82 18.09-66.82 18.09s1.63-29.62 18.13-66.379c-13.53-22.02-21.34-47.94-21.34-75.679 0-73.129 54.25-133.599 124.7-143.339 6.54-.9 13.21-1.37 20-1.37 79.91-.001 144.7 64.788 144.7 144.708z" fill="#c7cde0"/><path d="m458.518 256.358c0 79.909-64.79 144.699-144.7 144.699-6.79 0-13.48-.47-20.02-1.38 70.46-9.73 124.72-70.189 124.72-143.329 0-73.129-54.25-133.589-124.7-143.329 6.54-.9 13.21-1.37 20-1.37 79.91 0 144.7 64.789 144.7 144.709z" fill="#b1accc"/></g><path d="m404.428 256.348c0 50.05-40.57 90.619-90.61 90.619-5.11 0-10.12-.42-15-1.24-42.91-7.14-75.62-44.44-75.62-89.379s32.71-82.239 75.62-89.379c4.88-.82 9.89-1.24 15-1.24 50.04 0 90.61 40.569 90.61 90.619z" fill="#fff"/><path d="m404.428 256.348c0 50.05-40.57 90.619-90.61 90.619-5.11 0-10.12-.42-15-1.24 42.9-7.14 75.61-44.44 75.61-89.379s-32.71-82.239-75.61-89.379c4.88-.82 9.89-1.24 15-1.24 50.04 0 90.61 40.569 90.61 90.619z" fill="#f4f1e1"/></g><g><path d="m276.02 496.308c-18.5.459-36.502.692-53.504.692-69.936 0-135.53-3.934-156.077-5.291-7.578-152.512-5.888-296.497-3.102-390.996.122-4.141-3.135-7.596-7.275-7.718-4.17-.133-7.596 3.135-7.718 7.275-2.835 96.144-4.537 243.386 3.45 398.849.194 3.775 3.167 6.815 6.937 7.095.781.058 79.118 5.785 163.785 5.785 17.125 0 35.252-.234 53.876-.696 4.141-.103 7.415-3.543 7.312-7.684-.103-4.139-3.495-7.41-7.684-7.311z"/><path d="m221.207 464.352c28.636 0 55.14-1.414 55.405-1.428 4.136-.224 7.308-3.758 7.084-7.894s-3.768-7.306-7.893-7.085c-.261.014-26.38 1.407-54.596 1.407s-54.335-1.393-54.596-1.407c-4.144-.226-7.67 2.949-7.893 7.085-.224 4.136 2.948 7.67 7.084 7.894.264.014 26.769 1.428 55.405 1.428z"/><path d="m466.016 256.351c0-53.051-27.283-99.849-68.555-127.102-1.697-70.818-4.2-115.948-4.226-116.404-.211-3.761-3.178-6.782-6.935-7.06-.78-.058-79.117-5.785-163.784-5.785s-163.004 5.727-163.785 5.785c-3.756.278-6.724 3.299-6.935 7.06-.011.189-1.075 19.299-2.274 51.816-.152 4.139 3.08 7.619 7.219 7.772 4.154.164 7.619-3.08 7.771-7.219.784-21.259 1.509-36.746 1.917-44.922 10.238-.676 31.685-1.994 59.289-3.145.426 13.595.945 29.376 1.594 42.001.194 3.775 3.167 6.815 6.937 7.095.415.031 42.011 3.072 86.958 3.072s86.542-3.042 86.958-3.072c3.77-.279 6.743-3.32 6.937-7.095.651-12.662 1.17-28.478 1.597-42.109 28.861 1.176 51.342 2.555 61.904 3.253.702 14.095 2.346 49.96 3.635 100.122-20.581-10.401-43.83-16.264-68.422-16.264-16.982 0-33.662 2.779-49.578 8.259-3.917 1.349-5.998 5.617-4.649 9.533 1.349 3.917 5.618 5.999 9.533 4.649 14.34-4.938 29.377-7.442 44.694-7.442 75.653 0 137.201 61.548 137.201 137.201s-61.548 137.2-137.201 137.2c-25.017 0-49.497-6.795-70.795-19.652-2.1-1.267-4.686-1.428-6.926-.431-23.423 10.428-44.012 14.706-55.218 16.403 1.693-11.109 5.966-31.451 16.43-54.763 1.017-2.265.847-4.885-.454-7-13.24-21.531-20.238-46.345-20.238-71.758 0-45.65 22.615-88.182 60.496-113.774 3.432-2.319 4.335-6.981 2.016-10.414-2.319-3.432-6.979-4.334-10.414-2.016-42.015 28.385-67.099 75.564-67.099 126.203 0 26.86 7.051 53.12 20.428 76.211-15.413 35.908-17.135 64.218-17.203 65.444-.117 2.129.677 4.207 2.184 5.715s3.589 2.303 5.714 2.187c1.234-.067 29.754-1.784 65.905-17.188 22.831 12.986 48.734 19.832 75.172 19.832 24.633 0 47.917-5.882 68.523-16.315-.895 33.994-2.152 67.368-3.746 99.474-10.594.702-33.151 2.091-61.927 3.262-4.139.168-7.357 3.66-7.189 7.798.164 4.035 3.486 7.195 7.488 7.195.103 0 .207-.002.31-.006 40.457-1.646 68.745-3.724 69.026-3.745 3.77-.279 6.743-3.32 6.937-7.095 1.908-37.15 3.364-76.068 4.33-115.739 41.214-27.259 68.45-74.022 68.45-127.027zm-165.578-204.627c-13.402.841-45.355 2.59-79.232 2.59s-65.83-1.75-79.232-2.59c-.499-11.167-.914-23.918-1.267-35.161 24.593-.888 52.828-1.563 81.809-1.563 27.958 0 55.222.629 79.192 1.47-.353 11.276-.77 24.057-1.27 35.254z"/><path d="m313.815 354.467c54.102 0 98.116-44.015 98.116-98.117s-44.015-98.116-98.116-98.116-98.116 44.015-98.116 98.116 44.015 98.117 98.116 98.117zm0-181.232c45.831 0 83.116 37.286 83.116 83.116s-37.286 83.117-83.116 83.117-83.116-37.286-83.116-83.117 37.286-83.116 83.116-83.116z"/><path d="m313.815 263.851h42.7c4.142 0 7.5-3.358 7.5-7.5s-3.358-7.5-7.5-7.5h-35.2v-35.2c0-4.142-3.358-7.5-7.5-7.5s-7.5 3.358-7.5 7.5v42.7c0 4.142 3.358 7.5 7.5 7.5z"/></g></g></svg>