<?xml version="1.0" encoding="UTF-8" standalone="no"?>
<svg
   xmlns:dc="http://purl.org/dc/elements/1.1/"
   xmlns:cc="http://creativecommons.org/ns#"
   xmlns:rdf="http://www.w3.org/1999/02/22-rdf-syntax-ns#"
   xmlns:svg="http://www.w3.org/2000/svg"
   xmlns="http://www.w3.org/2000/svg"
   id="svg867"
   viewBox="0 0 112.82 112.82"
   style="shape-rendering:geometricPrecision; text-rendering:geometricPrecision; image-rendering:optimizeQuality; fill-rule:evenodd; clip-rule:evenodd"
   version="1.1"
   height="23mm"
   width="22.9999mm"
   xml:space="preserve"><metadata
   id="metadata871"><rdf:RDF><cc:Work
       rdf:about=""><dc:format>image/svg+xml</dc:format><dc:type
         rdf:resource="http://purl.org/dc/dcmitype/StillImage" /><dc:title></dc:title></cc:Work></rdf:RDF></metadata>
 <defs
   id="defs846">
  <style
   id="style844"
   type="text/css">
   <![CDATA[
    .fil0 {fill:none}
    .fil2 {fill:#FEFEFE}
    .fil1 {fill:#FEFEFE;fill-rule:nonzero}
   ]]>
  </style>
 
  
  
 
   
   
  
    
    
    
   </defs>
 <rect
   style="fill:none"
   y="0"
   id="rect849"
   height="112.82"
   width="112.82"
   x="0"
   class="fil0" /><g
   id="g857"
   style="fill:#b30000;fill-opacity:1;stroke:none;stroke-opacity:1">
     <path
   class="fil1"
   d="M 81.33,34.2 H 18.64 v 31.11 h 44.07 l 0.01,0.08 0.01,0.08 v 0.02 l 0.01,0.06 0.01,0.08 v 0.05 0.03 l 0.01,0.08 0.01,0.08 v 0.01 l 0.01,0.07 0.01,0.08 v 0.04 0.04 l 0.01,0.08 0.01,0.07 v 0.01 l 0.01,0.08 0.01,0.08 v 0.03 l 0.01,0.05 0.01,0.08 0.01,0.06 v 0.02 l 0.01,0.08 0.01,0.08 v 0.01 l 0.01,0.06 0.01,0.08 0.01,0.05 0.02,0.11 0.02,0.08 v 0 l 0.02,0.08 0.02,0.08 0.01,0.03 0.01,0.04 0.03,0.13 v 0.01 0.01 0.01 l 0.03,0.15 0.01,0.02 0.01,0.06 0.02,0.08 0.01,0.05 0.01,0.02 0.02,0.08 0.02,0.08 v 0.01 l 0.02,0.07 0.02,0.08 0.01,0.04 0.01,0.03 0.02,0.08 0.02,0.07 v 0 l 0.02,0.08 0.02,0.08 0.01,0.03 0.01,0.05 0.02,0.08 v 0.01 l 0.02,0.06 0.02,0.08 0.02,0.08 v 0.02 l 0.02,0.06 0.03,0.07 0.02,0.05 0.01,0.03 0.03,0.07 v 0.01 l 0.05,0.13 v 0.01 l 0.03,0.07 0.01,0.04 0.01,0.04 0.03,0.07 0.03,0.07 v 0.01 l 0.03,0.07 0.03,0.07 0.01,0.02 0.02,0.05 0.03,0.07 0.02,0.05 0.01,0.02 0.03,0.07 H 17.57 c -1.06,0 -2.02,-0.43 -2.72,-1.13 l -0.01,-0.01 c -0.7,-0.7 -1.13,-1.66 -1.13,-2.72 v -33.2 c 0,-1.06 0.43,-2.02 1.13,-2.72 v -0.01 c 0.7,-0.7 1.66,-1.13 2.73,-1.13 h 64.79 c 1.06,0 2.03,0.43 2.73,1.13 0.7,0.7 1.13,1.66 1.13,2.73 V 50.67 L 86.21,50.66 86.15,50.62 86.08,50.58 86.06,50.57 86.01,50.54 85.94,50.5 85.91,50.48 85.87,50.46 85.8,50.42 85.76,50.4 85.73,50.38 85.66,50.34 85.61,50.31 85.59,50.3 85.52,50.26 85.37,50.18 85.3,50.14 v 0 L 85.23,50.1 85.16,50.06 H 85.15 L 85.08,50.03 85.01,49.99 84.99,49.98 84.93,49.95 84.86,49.92 84.83,49.91 84.78,49.89 84.7,49.86 84.66,49.84 84.62,49.82 84.54,49.79 84.49,49.77 84.46,49.76 84.38,49.73 84.32,49.71 84.3,49.7 84.22,49.67 84.15,49.64 h -0.01 l -0.08,-0.03 -0.08,-0.03 v 0 L 83.9,49.55 83.82,49.52 H 83.81 L 83.74,49.5 83.66,49.47 83.64,49.46 83.58,49.44 83.5,49.41 83.47,49.4 83.42,49.38 83.34,49.35 83.3,49.33 83.27,49.32 83.19,49.29 83.14,49.27 83.12,49.26 83.04,49.23 82.98,49.21 h -0.01 l -0.08,-0.02 -0.08,-0.02 v 0 L 82.73,49.15 82.65,49.13 H 82.64 L 82.57,49.11 82.49,49.09 H 82.47 L 82.41,49.07 82.33,49.05 82.3,49.04 82.25,49.03 82.17,49.01 82.13,49 82.09,48.99 82.01,48.97 81.96,48.96 81.93,48.95 81.85,48.93 81.79,48.92 H 81.77 L 81.69,48.9 81.62,48.88 h -0.01 l -0.08,-0.02 -0.08,-0.02 v 0 L 81.37,48.82 81.29,48.8 V 34.23 Z"
   id="path851"
   style="fill:#b30000;fill-opacity:1;fill-rule:nonzero;stroke:none;stroke-opacity:1" />
     <path
   class="fil1"
   d="M 38.15,54.34 H 26.93 v 3.72 H 38.15 Z M 25.89,49.43 H 39.2 c 1.06,0 2.03,0.43 2.73,1.13 0.7,0.7 1.13,1.66 1.13,2.73 v 5.82 c 0,1.06 -0.43,2.03 -1.13,2.73 h -0.01 c -0.7,0.7 -1.66,1.13 -2.72,1.13 H 25.89 c -1.06,0 -2.02,-0.43 -2.72,-1.13 l -0.01,-0.01 c -0.7,-0.7 -1.13,-1.66 -1.13,-2.72 v -5.82 c 0,-1.06 0.43,-2.02 1.13,-2.72 v -0.01 c 0.7,-0.7 1.66,-1.13 2.73,-1.13 z"
   id="path853"
   style="fill:#b30000;fill-opacity:1;fill-rule:nonzero;stroke:none;stroke-opacity:1" />
     <polygon
   class="fil1"
   points="14.35,38.92 85.62,38.92 85.62,43.82 14.35,43.82 "
   id="polygon855"
   style="fill:#b30000;fill-opacity:1;fill-rule:nonzero;stroke:none;stroke-opacity:1" />
    </g><path
   class="fil1"
   d="m 87.64,54.8 c 2.58,2.58 3.87,5.96 3.87,9.33 0,3.37 -1.29,6.75 -3.87,9.33 v 0.01 c -2.58,2.58 -5.96,3.87 -9.33,3.87 -3.38,0 -6.76,-1.29 -9.33,-3.87 -2.58,-2.58 -3.87,-5.96 -3.87,-9.33 0,-3.38 1.29,-6.76 3.87,-9.33 2.58,-2.58 5.96,-3.87 9.33,-3.87 3.37,0 6.75,1.29 9.32,3.87 h 0.01 z m -1.04,9.33 c 0,-2.12 -0.81,-4.25 -2.43,-5.87 v 0 c -1.62,-1.62 -3.74,-2.42 -5.87,-2.42 -2.12,0 -4.25,0.81 -5.87,2.43 -1.62,1.62 -2.43,3.74 -2.43,5.87 0,2.12 0.81,4.25 2.43,5.87 1.62,1.62 3.74,2.43 5.87,2.43 2.12,0 4.25,-0.81 5.87,-2.43 v 0 c 1.62,-1.62 2.42,-3.74 2.42,-5.87 z"
   id="path859"
   style="fill:#b30000;fill-opacity:1;fill-rule:nonzero;stroke:none;stroke-opacity:1" /><path
   class="fil2"
   d="m 89.17,70.14 9.21,9.21 c 0.95,0.95 0.95,2.51 0,3.47 v 0 c -0.95,0.95 -2.51,0.95 -3.47,0 L 85.7,73.61 c -0.95,-0.95 -0.95,-2.51 0,-3.47 v 0 c 0.95,-0.95 2.51,-0.95 3.47,0 z"
   id="path861"
   style="fill:#b30000;fill-opacity:1;stroke:none;stroke-opacity:1" />
</svg>