<?xml version="1.0" encoding="UTF-8"?>
<!DOCTYPE svg PUBLIC "-//W3C//DTD SVG 1.1//EN" "http://www.w3.org/Graphics/SVG/1.1/DTD/svg11.dtd">
<!-- Creator: CorelDRAW 2019 (64-Bit) -->
<svg xmlns="http://www.w3.org/2000/svg" xml:space="preserve" width="22.9999mm" height="23mm" version="1.1" style="shape-rendering:geometricPrecision; text-rendering:geometricPrecision; image-rendering:optimizeQuality; fill-rule:evenodd; clip-rule:evenodd"
viewBox="0 0 112.82 112.82"
 xmlns:xlink="http://www.w3.org/1999/xlink"
 xmlns:xodm="http://www.corel.com/coreldraw/odm/2003">
 <defs>
  <style type="text/css">
   <![CDATA[
    .fil0 {fill:none}
    .fil2 {fill:#FEFEFE}
    .fil1 {fill:#FEFEFE;fill-rule:nonzero}
   ]]>
  </style>
 </defs>
 <g id="Capa_x0020_1">
  <metadata id="CorelCorpID_0Corel-Layer"/>
  <g id="_2935470757744">
   <rect class="fil0" x="-0" width="112.82" height="112.82"/>
   <g>
    <g>
     <path class="fil1" d="M81.33 34.2l-62.69 0 0 31.11 44.07 0 0.01 0.08 0.01 0.08 0 0.02 0.01 0.06 0.01 0.08 0 0.05 0 0.03 0.01 0.08 0.01 0.08 0 0.01 0.01 0.07 0.01 0.08 0 0.04 0 0.04 0.01 0.08 0.01 0.07 0 0.01 0.01 0.08 0.01 0.08 0 0.03 0.01 0.05 0.01 0.08 0.01 0.06 0 0.02 0.01 0.08 0.01 0.08 0 0.01 0.01 0.06 0.01 0.08 0.01 0.05 0.02 0.11 0.02 0.08 0 0 0.02 0.08 0.02 0.08 0.01 0.03 0.01 0.04 0.03 0.13 0 0.01 0 0.01 0 0.01 0.03 0.15 0.01 0.02 0.01 0.06 0.02 0.08 0.01 0.05 0.01 0.02 0.02 0.08 0.02 0.08 0 0.01 0.02 0.07 0.02 0.08 0.01 0.04 0.01 0.03 0.02 0.08 0.02 0.07 0 0 0.02 0.08 0.02 0.08 0.01 0.03 0.01 0.05 0.02 0.08 0 0.01 0.02 0.06 0.02 0.08 0.02 0.08 0 0.02 0.02 0.06 0.03 0.07 0.02 0.05 0.01 0.03 0.03 0.07 0 0.01 0.05 0.13 0 0.01 0.03 0.07 0.01 0.04 0.01 0.04 0.03 0.07 0.03 0.07 0 0.01 0.03 0.07 0.03 0.07 0.01 0.02 0.02 0.05 0.03 0.07 0.02 0.05 0.01 0.02 0.03 0.07 -46.29 0c-1.06,0 -2.02,-0.43 -2.72,-1.13l-0.01 -0.01c-0.7,-0.7 -1.13,-1.66 -1.13,-2.72l0 -33.2c0,-1.06 0.43,-2.02 1.13,-2.72l0 -0.01c0.7,-0.7 1.66,-1.13 2.73,-1.13l64.79 0c1.06,0 2.03,0.43 2.73,1.13 0.7,0.7 1.13,1.66 1.13,2.73l0 17.48 -0.01 -0.01 -0.06 -0.04 -0.07 -0.04 -0.02 -0.01 -0.05 -0.03 -0.07 -0.04 -0.03 -0.02 -0.04 -0.02 -0.07 -0.04 -0.04 -0.02 -0.03 -0.02 -0.07 -0.04 -0.05 -0.03 -0.02 -0.01 -0.07 -0.04 -0.15 -0.08 -0.07 -0.04 -0 -0 -0.07 -0.04 -0.07 -0.04 -0.01 -0 -0.07 -0.03 -0.07 -0.04 -0.02 -0.01 -0.06 -0.03 -0.07 -0.03 -0.03 -0.01 -0.05 -0.02 -0.08 -0.03 -0.04 -0.02 -0.04 -0.02 -0.08 -0.03 -0.05 -0.02 -0.03 -0.01 -0.08 -0.03 -0.06 -0.02 -0.02 -0.01 -0.08 -0.03 -0.07 -0.03 -0.01 -0 -0.08 -0.03 -0.08 -0.03 -0 -0 -0.08 -0.03 -0.08 -0.03 -0.01 -0 -0.07 -0.02 -0.08 -0.03 -0.02 -0.01 -0.06 -0.02 -0.08 -0.03 -0.03 -0.01 -0.05 -0.02 -0.08 -0.03 -0.04 -0.02 -0.03 -0.01 -0.08 -0.03 -0.05 -0.02 -0.02 -0.01 -0.08 -0.03 -0.06 -0.02 -0.01 -0 -0.08 -0.02 -0.08 -0.02 -0 -0 -0.08 -0.02 -0.08 -0.02 -0.01 -0 -0.07 -0.02 -0.08 -0.02 -0.02 -0 -0.06 -0.02 -0.08 -0.02 -0.03 -0.01 -0.05 -0.01 -0.08 -0.02 -0.04 -0.01 -0.04 -0.01 -0.08 -0.02 -0.05 -0.01 -0.03 -0.01 -0.08 -0.02 -0.06 -0.01 -0.02 -0 -0.08 -0.02 -0.07 -0.02 -0.01 -0 -0.08 -0.02 -0.08 -0.02 -0 -0 -0.08 -0.02 -0.08 -0.02 0 -14.57z"/>
     <path class="fil1" d="M38.15 54.34l-11.22 0 0 3.72 11.22 0 0 -3.72zm-12.26 -4.91l13.31 0c1.06,0 2.03,0.43 2.73,1.13 0.7,0.7 1.13,1.66 1.13,2.73l0 5.82c0,1.06 -0.43,2.03 -1.13,2.73l-0.01 0c-0.7,0.7 -1.66,1.13 -2.72,1.13l-13.31 0c-1.06,0 -2.02,-0.43 -2.72,-1.13l-0.01 -0.01c-0.7,-0.7 -1.13,-1.66 -1.13,-2.72l0 -5.82c0,-1.06 0.43,-2.02 1.13,-2.72l0 -0.01c0.7,-0.7 1.66,-1.13 2.73,-1.13z"/>
     <polygon class="fil1" points="14.35,38.92 85.62,38.92 85.62,43.82 14.35,43.82 "/>
    </g>
    <path class="fil1" d="M87.64 54.8c2.58,2.58 3.87,5.96 3.87,9.33 0,3.37 -1.29,6.75 -3.87,9.33l0 0.01c-2.58,2.58 -5.96,3.87 -9.33,3.87 -3.38,0 -6.76,-1.29 -9.33,-3.87 -2.58,-2.58 -3.87,-5.96 -3.87,-9.33 0,-3.38 1.29,-6.76 3.87,-9.33 2.58,-2.58 5.96,-3.87 9.33,-3.87 3.37,0 6.75,1.29 9.32,3.87l0.01 0zm-1.04 9.33c0,-2.12 -0.81,-4.25 -2.43,-5.87l0 -0c-1.62,-1.62 -3.74,-2.42 -5.87,-2.42 -2.12,0 -4.25,0.81 -5.87,2.43 -1.62,1.62 -2.43,3.74 -2.43,5.87 0,2.12 0.81,4.25 2.43,5.87 1.62,1.62 3.74,2.43 5.87,2.43 2.12,0 4.25,-0.81 5.87,-2.43l0 0c1.62,-1.62 2.42,-3.74 2.42,-5.87z"/>
    <path class="fil2" d="M89.17 70.14l9.21 9.21c0.95,0.95 0.95,2.51 0,3.47l0 0c-0.95,0.95 -2.51,0.95 -3.47,0l-9.21 -9.21c-0.95,-0.95 -0.95,-2.51 0,-3.47l0 0c0.95,-0.95 2.51,-0.95 3.47,0z"/>
   </g>
  </g>
 </g>
</svg>
