<?xml version="1.0" encoding="UTF-8"?>
<!-- Created with Inkscape (http://www.inkscape.org/) -->
<svg width="23mm" height="23mm" version="1.1" viewBox="0 0 23 23" xmlns="http://www.w3.org/2000/svg" xmlns:cc="http://creativecommons.org/ns#" xmlns:dc="http://purl.org/dc/elements/1.1/" xmlns:rdf="http://www.w3.org/1999/02/22-rdf-syntax-ns#">
 <metadata>
  <rdf:RDF>
   <cc:Work rdf:about="">
    <dc:format>image/svg+xml</dc:format>
    <dc:type rdf:resource="http://purl.org/dc/dcmitype/StillImage"/>
    <dc:title/>
   </cc:Work>
  </rdf:RDF>
 </metadata>
 <g transform="translate(-79.592 -210.66)">
  <path d="m88.443 226.19c-0.31776 0.13588-0.93056 0.58919-1.2937 0.79314-0.43122 0.27194-0.86247 0.54387-1.2937 0.81581-0.74899 0.45323-0.77169 0.27194-0.79438 1.3144 0 0.36258-0.068 0.7025 0.34045 0.72516 0.31776 0.0227 0.70361 0 1.044 0 0.6582 0 10.327 0.0454 10.486-0.0226 0.27234-0.0907 0.27234-1.4503-0.068-1.6769-0.7944-0.54387-1.7476-1.1104-2.5874-1.609-0.7944-0.47589-0.52203-0.45323-1.4072-0.0227-0.47664 0.22662-0.95327 0.45323-1.4299 0.65718-0.52203 0.24928-1.0667-0.15856-1.5207-0.36258-0.22696-0.11319-1.2937-0.67984-1.4753-0.61185zm5.4018-2.4474c0.47663-0.0681 0.79439-0.24928 1.0667-0.49855-0.11341-0.18125-0.31773-0.15856-0.47661-0.61186-0.0454-0.13588-0.0227-0.20393-0.0907-0.27193-0.0907 0.15856-0.11342 0.49854-0.20438 0.7025-0.068 0.13587-0.24966 0.52121-0.29505 0.67984zm0.77168 1.8129c0.31776 0 0.90789-0.11319 1.2256-0.15856-0.0454-0.0907-0.27236-0.20393-0.40856-0.52119-0.0907-0.18125-0.1361-0.61185-0.20416-0.74782-0.34043 0.15856-0.49931 0.31726-0.95325 0.43056-0.31775 0.0681-1.044 0.0226-1.2029 0.15856-0.15879 0.13588-0.49934 0.20394 0.40854 0.58918 0.31776 0.15856 0.7263 0.24927 1.1348 0.24927zm-8.2843-0.20393c0.49935 0.47589 2.7009 0.0907 2.9733-0.43054-0.11342-0.24928-0.77169-0.5892-1.2256-1.7902-0.068-0.13588-0.22698-0.72517-0.24968-0.77049-0.11342 0.13587-0.0907 0.43057-0.38583 0.7025-0.38586 0.36258-0.43125 0.0226-0.47664 0.67984-0.0227 0.2946-0.068 0.67984-0.15879 0.95177-0.1361 0.45323-0.20438 0.40791-0.47664 0.65716zm0.68091-5.1214c-0.11342-0.31726 0.18147-1.609 0.27237-1.9036 1.4299-4.1017 6.1508-4.1244 7.5807-0.0226 0.11341 0.31726 0.40853 1.5863 0.29507 1.9262-0.11342 0.15857-0.34046 0.15857-0.49934 0.52122-0.11343 0.29459-0.0454 0.63451-0.0454 0.92911-0.0454 0.7025 0.0227 1.2917 0.63551 1.4277-0.0907 0.54388-1.2483 0.97444-2.0427 0.86113-0.93057-0.13588-0.47664-0.29459-0.90787-0.56653-0.40856-0.24928-0.86249 0.11319-0.83978 0.49855 0.0226 0.4079 0.49932 0.7025 0.86246 0.43056 0.29506-0.22661 0.29506 0.0681 1.1802 0.0907 0.93059 0 1.6569-0.43056 2.02-0.90645 0.15878-0.20393 0.13611-0.33992 0.36315-0.38525 0.72629-0.18124 0.72629-0.79314 0.72629-1.473 0-0.54387 0.0454-0.90645-0.27236-1.2011-0.15879-0.15855-0.38586-0.15855-0.40854-0.33992-0.0227-0.20392-0.0227-0.47588-0.0454-0.7025-0.15879-1.6996-1.0894-3.1499-1.9973-3.8751-3.2456-2.6514-6.9906-0.0227-7.558 3.5352-0.0454 0.22662-0.068 0.43057-0.0907 0.65719-0.0226 0.31725 0.0681 0.45322-0.15879 0.56653-0.36314 0.15856-0.52202 0.43056-0.52202 0.95177 0 0.38524-0.068 1.0878 0.0907 1.3824 0.34047 0.72515 1.5661 0.7025 1.8612-0.0454 0.0907-0.27194 0.068-1.0878 0.068-1.4277-0.0226-0.74782-0.40854-0.67984-0.56742-0.92911zm0.70361 0.43057c0.29505-0.0454 1.1802-0.7025 1.3391-0.86113 0.20415-0.18125 0.34044-0.33992 0.54471-0.56654 0.0907-0.13587 0.36315-0.63451 0.43124-0.7025 0.15879 0.0907 0.72631 0.65718 0.95328 0.81581 0.31776 0.27194 0.63551 0.52121 0.99866 0.79315 0.31776 0.22661 1.8384 1.2237 2.3832 1.1331 0.0681-0.47589 0-0.5892 0.29506-0.92912 0.34046-0.40791 0.34046-0.0907 0.24965-0.92911-0.22695-1.7676-1.498-3.7391-3.4726-3.9431-1.6342-0.15856-2.6782 0.81581-3.291 1.6316-0.31776 0.45323-0.59011 1.0651-0.74898 1.6996-0.45396 1.7223 0.068 1.2237 0.31775 1.8582z" fill="#b30000" fill-rule="evenodd"/>
  <rect class="fil0" x="79.592" y="210.66" width="23" height="23" clip-rule="evenodd" fill="none" image-rendering="optimizeQuality" shape-rendering="geometricPrecision" stroke-width=".2462"/>
 </g>
</svg>
