<?xml version="1.0" encoding="UTF-8" standalone="no"?>
<svg
   xmlns:dc="http://purl.org/dc/elements/1.1/"
   xmlns:cc="http://creativecommons.org/ns#"
   xmlns:rdf="http://www.w3.org/1999/02/22-rdf-syntax-ns#"
   xmlns:svg="http://www.w3.org/2000/svg"
   xmlns="http://www.w3.org/2000/svg"
   id="svg1901"
   viewBox="0 0 9552.36 9552.36"
   style="shape-rendering:geometricPrecision; text-rendering:geometricPrecision; image-rendering:optimizeQuality; fill-rule:evenodd; clip-rule:evenodd"
   version="1.1"
   height="22.9998mm"
   width="22.9998mm"
   xml:space="preserve"><metadata
   id="metadata1905"><rdf:RDF><cc:Work
       rdf:about=""><dc:format>image/svg+xml</dc:format><dc:type
         rdf:resource="http://purl.org/dc/dcmitype/StillImage" /><dc:title></dc:title></cc:Work></rdf:RDF></metadata>
 <defs
   id="defs1878">
  <style
   id="style1876"
   type="text/css">
   <![CDATA[
    .fil0 {fill:none}
    .fil1 {fill:#FEFEFE}
   ]]>
  </style>
 
  
  
 
   
   
  
    
    
    
    
    
    
    
   </defs>
 <g
   id="g2494"><rect
     class="fil0"
     x="-0.02"
     y="0.02"
     width="9552.3604"
     height="9552.3604"
     id="rect1881"
     style="fill:none" /><g
     id="g2483"><path
       class="fil1"
       d="m 7842.93,3585.66 v 0 -105.28 c 0,0 332.92,10.26 490.83,-151.05 0,0 -229.67,-64.96 -188.68,-483.98 41.03,-418.4 -51.25,-786.17 -388.29,-755.39 0,0 -145.57,-175.68 -436.13,-64.96 -99.8,37.63 -367.06,133.98 -353.4,713.69 13.66,579.67 -206.46,583.11 -206.46,583.11 0,0 113.47,164.72 497.68,161.31 v 108.03 l 293.26,853.78 291.89,-851.75 -0.71,-7.52 z"
       id="path1883"
       style="fill:#b30000;fill-opacity:0.94117647" /><path
       class="fil1"
       d="m 6474.19,5378.19 c 0,36.71 10.72,72.6 30.9,103.25 l 319.05,485.43 v 1274.96 c 0,103.83 84.14,188.02 187.98,188.02 h 1064.93 c 103.83,0 188.02,-84.19 188.02,-188.06 V 5966.87 l 318.97,-485.43 c 20.18,-30.73 30.94,-66.58 30.94,-103.25 0,-500.42 25.71,-769.18 -46.06,-1245.68 -19.15,-105.24 -86.8,-195.49 -183.2,-242.63 l -367.77,-181.87 c -21.18,-10.26 -41.7,-21.89 -62.22,-33.52 l 116.21,342.52 -162.02,-12.29 c -455.65,644.5 -260.7,644.79 -715.69,0 l -162.06,12.29 118.28,-342.52 -73.84,37.63 -358.84,177.05 c -95.77,47.18 -164.09,137.43 -183.28,242.67 -71.77,477.91 -60.31,734.92 -60.31,1246.35 z m 368.89,-54.24 289.4,440.33 c 41.28,62.84 60.6,127.38 60.6,202.59 v 1094 h 703.02 v -1094 c 0,-75.17 19.31,-139.76 60.64,-202.59 l 289.4,-440.45 c 1.29,-336.04 13.17,-640.76 -20.93,-969.74 -39.41,17.94 -82.19,28.53 -127.17,31.27 -40,61.26 -79.33,122.81 -119.78,184.49 -102.21,155.62 -220.79,287.4 -426.58,287.32 -205.75,-0.08 -324.24,-131.82 -426.33,-287.57 -40.37,-61.55 -79.58,-123.06 -119.41,-184.24 -45.48,-2.82 -88.63,-13.62 -128.46,-31.94 -37.05,330.1 -34.72,631.42 -34.39,970.53 z"
       id="path1885"
       style="fill:#b30000;fill-opacity:0.94117647" /><path
       class="fil1"
       d="m 2003.27,3626.52 c 346.92,0 629.22,-282.25 629.22,-629.17 0,-346.92 -282.3,-629.17 -629.22,-629.17 -346.92,0 -629.22,282.21 -629.22,629.17 0,346.92 282.3,629.17 629.22,629.17 z"
       id="path1887"
       style="fill:#b30000;fill-opacity:0.94117647" /><path
       class="fil1"
       d="m 2647.23,3835.35 c -1.5,-0.5 -159.98,-49.17 -159.98,-49.17 -57.44,-17.53 -119.78,-6.69 -167.83,29.28 l -316.14,236.65 -316.1,-236.65 c -48.05,-36.01 -110.48,-46.85 -167.83,-29.28 0,0 -158.49,48.68 -159.98,49.17 -255.05,85.02 -426.41,322.79 -426.41,591.67 v 951.17 c 0,36.71 10.72,72.6 30.86,103.25 l 319.05,485.43 v 1274.96 c 0,103.79 84.14,188.02 187.98,188.02 l 1064.93,-0.04 c 103.83,0 187.98,-84.19 187.98,-187.98 V 5966.87 l 319.01,-485.43 c 20.14,-30.69 30.9,-66.58 30.9,-103.25 v -951.17 c 0,-268.88 -171.36,-506.65 -426.41,-591.67 v 0 z m -180.25,330.47 -242.59,181.66 c -133.07,99.64 -309.13,99.64 -442.2,0 l -242.63,-181.66 c -22.1,6.77 -43.48,13.33 -63.5,19.52 -104.45,34.8 -174.19,131.57 -174.19,241.68 v 897.06 l 289.31,440.2 c 41.32,62.84 60.6,127.38 60.6,202.59 v 1094 l 703.02,-0.04 V 5966.87 c 0,-75.22 19.27,-139.76 60.6,-202.59 l 289.31,-440.2 v -897.06 c 0,-110.1 -69.73,-206.87 -167.42,-239.48 -23.42,-7.27 -46.85,-14.54 -70.31,-21.72 z"
       id="path1889"
       style="fill:#b30000;fill-opacity:0.94117647" /><path
       class="fil1"
       d="m 5585.48,2110.59 c 0,-447.47 -364.07,-811.54 -811.54,-811.54 -447.47,0 -811.54,364.07 -811.54,811.54 0,447.51 364.07,811.54 811.54,811.54 447.47,0 811.54,-364.03 811.54,-811.54 z"
       id="path1891"
       style="fill:#b30000;fill-opacity:0.94117647" /><path
       class="fil1"
       d="m 5665.31,3315.45 -1.37,-0.46 -231.63,-71.06 c -36.51,-11.21 -75.55,8.1 -88.67,44.15 l -487.09,1336.35 c -28.08,77.13 -137.1,77.13 -165.22,0 L 4204.24,3288.08 c -10.55,-29.07 -38.04,-47.35 -67.49,-47.35 -6.98,0 -252.52,74.18 -252.52,74.18 -295.96,98.6 -493.61,372.92 -493.61,683.04 v 1413.72 c 0,14 4.11,27.74 11.84,39.46 l 508.23,773.37 v 1956.84 c 0,39.75 32.19,71.93 71.93,71.93 h 1582.63 c 39.75,0 71.98,-32.19 71.98,-71.93 V 6224.5 l 508.23,-773.37 c 7.68,-11.71 11.8,-25.46 11.8,-39.46 V 3994.29 c -0.04,-308.83 -198.48,-582.7 -491.95,-678.85 z m -72.85,367.27 -389.28,1068.05 c -145.57,399.33 -712.94,399.33 -858.47,0 L 3955.63,3683.43 c -118.95,58.56 -196.03,178.67 -196.03,314.52 v 1324.84 l 459.39,699.11 c 41.32,62.84 60.64,127.38 60.64,202.59 v 1659.84 h 988.68 V 6224.49 c 0,-75.22 19.27,-139.76 60.6,-202.59 l 459.43,-699.11 v -1328.5 c 0,-133.94 -77,-255.17 -195.87,-311.58 z"
       id="path1893"
       style="fill:#b30000;fill-opacity:0.94117647" /><path
       class="fil1"
       d="m 4964.24,3287.33 c -20.14,-21.93 -49.55,-32.98 -79.33,-32.98 h -221.99 c -29.74,0 -59.18,11.05 -79.33,32.98 -31.15,33.93 -35.68,82.98 -13.58,121.27 l 118.66,178.88 -55.53,468.61 109.4,291.02 c 10.67,29.24 52.04,29.24 62.71,0 l 109.4,-291.02 -55.53,-468.61 118.66,-178.88 c 22.14,-38.29 17.61,-87.34 -13.54,-121.27 z"
       id="path1895"
       style="fill:#b30000;fill-opacity:0.94117647" /></g></g>
</svg>