<?xml version="1.0" encoding="UTF-8" standalone="no"?>
<svg
   xmlns:dc="http://purl.org/dc/elements/1.1/"
   xmlns:cc="http://creativecommons.org/ns#"
   xmlns:rdf="http://www.w3.org/1999/02/22-rdf-syntax-ns#"
   xmlns:svg="http://www.w3.org/2000/svg"
   xmlns="http://www.w3.org/2000/svg"
   width="23mm"
   height="23mm"
   version="1.1"
   viewBox="0 0 23 23"
   id="svg2584">
  <defs
     id="defs2552">
    <style
       type="text/css"
       id="style2550"><![CDATA[
    .fil0 {fill:none}
    .fil2 {fill:#FEFEFE}
    .fil1 {fill:#FEFEFE;fill-rule:nonzero}
   ]]></style>
  </defs>
  <metadata
     id="metadata2554">
    <rdf:RDF>
      <cc:Work
         rdf:about="">
        <dc:format>image/svg+xml</dc:format>
        <dc:type
           rdf:resource="http://purl.org/dc/dcmitype/StillImage" />
        <dc:title></dc:title>
      </cc:Work>
    </rdf:RDF>
  </metadata>
  <g
     id="g828">
    <path
       d="m 21.55,12.784 q 0,0.33161 -0.33161,0.70601 l -3.5942,4.2361 q -0.45998,0.54555 -1.289,0.9253 -0.82904,0.37975 -1.535,0.37975 h -11.638 q -0.3637,0 -0.64717,-0.13906 -0.28348,-0.13906 -0.28348,-0.45998 0,-0.33161 0.3316,-0.70601 l 3.5942,-4.2361 q 0.45998,-0.54555 1.289,-0.9253 0.82904,-0.37975 1.535,-0.37975 h 11.638 q 0.3637,0 0.64717,0.13906 0.28348,0.13906 0.28348,0.45998 z M 17.8809,9.1042 v 1.7115 h -8.9 q -1.0055,0 -2.1073,0.50811 -1.1018,0.50812 -1.7543,1.2783 l -3.605,4.2361 -0.0536,0.06418 q 0,-0.0428 -0.006,-0.13371 -0.006,-0.09092 -0.006,-0.13371 v -10.269 q 0,-0.98414 0.70601,-1.6901 0.70601,-0.70601 1.6902,-0.70601 h 3.4231 q 0.98413,0 1.6901,0.70601 0.70603,0.70601 0.70603,1.6901 v 0.34231 h 5.8192 q 0.98415,0 1.6902,0.70601 0.70603,0.70601 0.70603,1.6901 z"
       id="path2578"
       style="fill:none;fill-opacity:1;stroke:#ffffff;stroke-width:0.87312502;stroke-miterlimit:4;stroke-dasharray:none;stroke-opacity:1" />
    <rect
       x="1.0986329e-05"
       y="6.8664548e-08"
       width="23"
       height="23"
       id="rect2580"
       style="fill:none;stroke-width:0.87312502;stroke-miterlimit:4;stroke-dasharray:none" />
  </g>
</svg>
