<?xml version="1.0" encoding="UTF-8" standalone="no"?>
<svg
   xmlns:dc="http://purl.org/dc/elements/1.1/"
   xmlns:cc="http://creativecommons.org/ns#"
   xmlns:rdf="http://www.w3.org/1999/02/22-rdf-syntax-ns#"
   xmlns:svg="http://www.w3.org/2000/svg"
   xmlns="http://www.w3.org/2000/svg"
   id="svg4001"
   viewBox="0 0 102.21 102.21"
   style="shape-rendering:geometricPrecision; text-rendering:geometricPrecision; image-rendering:optimizeQuality; fill-rule:evenodd; clip-rule:evenodd"
   version="1.1"
   height="23mm"
   width="22.9999mm"
   xml:space="preserve"><metadata
   id="metadata4005"><rdf:RDF><cc:Work
       rdf:about=""><dc:format>image/svg+xml</dc:format><dc:type
         rdf:resource="http://purl.org/dc/dcmitype/StillImage" /><dc:title></dc:title></cc:Work></rdf:RDF></metadata>
 <defs
   id="defs3978">
  <style
   id="style3976"
   type="text/css">
   <![CDATA[
    .fil0 {fill:none}
    .fil1 {fill:#FEFEFE}
   ]]>
  </style>
 
  
  
 
   
   
  </defs>
 <g
   id="g4578"><rect
     class="fil0"
     x="0"
     width="102.21"
     height="102.21"
     id="rect3981"
     y="0"
     style="fill:none" /><g
     id="g3997"
     style="fill:#b30000;fill-opacity:1">
    <g
   id="g3989"
   style="fill:#b30000;fill-opacity:1">
     <path
   class="fil1"
   d="m 62.18,41.5 c 0,-1.32 -1.07,-2.4 -2.4,-2.4 h -28.6 c -1.32,0 -2.4,1.07 -2.4,2.4 0,1.32 1.07,2.4 2.4,2.4 h 28.6 c 1.32,0 2.4,-1.07 2.4,-2.4 z"
   id="path3983"
   style="fill:#b30000;fill-opacity:1" />
     <path
   class="fil1"
   d="m 31.18,48.69 c -1.32,0 -2.4,1.07 -2.4,2.4 0,1.32 1.07,2.4 2.4,2.4 h 18.91 c 1.32,0 2.4,-1.07 2.4,-2.4 0,-1.32 -1.07,-2.4 -2.4,-2.4 z"
   id="path3985"
   style="fill:#b30000;fill-opacity:1" />
     <path
   class="fil1"
   d="m 59.79,29.52 h -28.6 c -1.32,0 -2.4,1.07 -2.4,2.4 0,1.32 1.07,2.4 2.4,2.4 h 28.6 c 1.32,0 2.4,-1.07 2.4,-2.4 0,-1.32 -1.07,-2.4 -2.4,-2.4 z"
   id="path3987"
   style="fill:#b30000;fill-opacity:1" />
    </g>
    <g
   id="g3995"
   style="fill:#b30000;fill-opacity:1">
     <path
   class="fil1"
   d="m 80.56,48.7 c -2.58,-2.58 -6.79,-2.59 -9.37,0 L 50.55,69.31 C 50.29,69.57 50.1,69.88 50,70.23 l -2.64,8.7 c -0.23,0.77 -0.03,1.61 0.53,2.19 0.42,0.43 0.99,0.67 1.58,0.67 0.2,0 0.4,-0.03 0.59,-0.08 l 8.92,-2.47 c 0.37,-0.1 0.7,-0.3 0.97,-0.57 L 80.56,58.08 c 2.58,-2.58 2.59,-6.79 0,-9.37 z m -23.32,26.42 -4.49,1.24 1.31,-4.32 16.69,-16.67 3.13,3.12 z m 20.2,-20.18 -0.43,0.43 -3.12,-3.12 0.43,-0.43 c 0.86,-0.86 2.26,-0.86 3.12,0 0.86,0.86 0.86,2.26 0,3.12 z"
   id="path3991"
   style="fill:#b30000;fill-opacity:1" />
     <path
   class="fil1"
   d="m 28.52,20.43 c 24.57,0 9.37,0 33.94,0 2.42,0 4.62,0.99 6.21,2.59 l 0.01,0.01 c 1.59,1.59 2.59,3.79 2.59,6.21 v 7.21 2.48 3.85 c 0,1.22 -1,2.22 -2.22,2.22 v 0 c -1.22,0 -2.22,-1 -2.22,-2.22 v -3.85 -2.48 -7.21 c 0,-1.2 -0.49,-2.29 -1.28,-3.08 -0.79,-0.79 -1.88,-1.28 -3.08,-1.28 -24.57,0 -9.37,0 -33.94,0 -1.2,0 -2.29,0.49 -3.08,1.28 -0.79,0.79 -1.28,1.88 -1.28,3.08 v 43.74 c 0,1.2 0.49,2.29 1.28,3.08 0.79,0.79 1.88,1.28 3.08,1.28 h 6.4 6.33 v 0 c 1.22,0 2.22,1 2.22,2.22 v 0 c 0,1.22 -1,2.22 -2.22,2.22 v 0 h -6.33 -6.4 c -2.42,0 -4.62,-0.99 -6.21,-2.59 l -0.01,-0.01 c -1.59,-1.59 -2.59,-3.8 -2.59,-6.21 V 29.23 c 0,-2.42 0.99,-4.62 2.59,-6.21 l 0.01,-0.01 c 1.59,-1.59 3.79,-2.59 6.21,-2.59 z"
   id="path3993"
   style="fill:#b30000;fill-opacity:1" />
    </g>
   </g></g>
</svg>