<?xml version="1.0" encoding="UTF-8"?>
<!DOCTYPE svg PUBLIC "-//W3C//DTD SVG 1.1//EN" "http://www.w3.org/Graphics/SVG/1.1/DTD/svg11.dtd">
<!-- Creator: CorelDRAW 2019 (64-Bit) -->
<svg xmlns="http://www.w3.org/2000/svg" xml:space="preserve" width="22.9999mm" height="23mm" version="1.1" style="shape-rendering:geometricPrecision; text-rendering:geometricPrecision; image-rendering:optimizeQuality; fill-rule:evenodd; clip-rule:evenodd"
viewBox="0 0 102.21 102.21"
 xmlns:xlink="http://www.w3.org/1999/xlink"
 xmlns:xodm="http://www.corel.com/coreldraw/odm/2003">
 <defs>
  <style type="text/css">
   <![CDATA[
    .fil0 {fill:none}
    .fil1 {fill:#FEFEFE}
   ]]>
  </style>
 </defs>
 <g id="Capa_x0020_1">
  <metadata id="CorelCorpID_0Corel-Layer"/>
  <g id="_2935466548992">
   <rect class="fil0" x="-0" width="102.21" height="102.21"/>
   <g>
    <g>
     <path class="fil1" d="M62.18 41.5c0,-1.32 -1.07,-2.4 -2.4,-2.4l-28.6 0c-1.32,0 -2.4,1.07 -2.4,2.4 0,1.32 1.07,2.4 2.4,2.4l28.6 0c1.32,0 2.4,-1.07 2.4,-2.4z"/>
     <path class="fil1" d="M31.18 48.69c-1.32,0 -2.4,1.07 -2.4,2.4 0,1.32 1.07,2.4 2.4,2.4l18.91 0c1.32,0 2.4,-1.07 2.4,-2.4 0,-1.32 -1.07,-2.4 -2.4,-2.4l-18.91 0z"/>
     <path class="fil1" d="M59.79 29.52l-28.6 0c-1.32,0 -2.4,1.07 -2.4,2.4 0,1.32 1.07,2.4 2.4,2.4l28.6 0c1.32,0 2.4,-1.07 2.4,-2.4 0,-1.32 -1.07,-2.4 -2.4,-2.4z"/>
    </g>
    <g>
     <path class="fil1" d="M80.56 48.7c-2.58,-2.58 -6.79,-2.59 -9.37,-0l-20.64 20.61c-0.26,0.26 -0.45,0.57 -0.55,0.92l-2.64 8.7c-0.23,0.77 -0.03,1.61 0.53,2.19 0.42,0.43 0.99,0.67 1.58,0.67 0.2,0 0.4,-0.03 0.59,-0.08l8.92 -2.47c0.37,-0.1 0.7,-0.3 0.97,-0.57l20.61 -20.59c2.58,-2.58 2.59,-6.79 0,-9.37zm-23.32 26.42l-4.49 1.24 1.31 -4.32 16.69 -16.67 3.13 3.12 -16.64 16.63zm20.2 -20.18l-0.43 0.43 -3.12 -3.12 0.43 -0.43c0.86,-0.86 2.26,-0.86 3.12,0 0.86,0.86 0.86,2.26 0,3.12z"/>
     <path class="fil1" d="M28.52 20.43c24.57,0 9.37,0 33.94,0 2.42,0 4.62,0.99 6.21,2.59l0.01 0.01c1.59,1.59 2.59,3.79 2.59,6.21l0 7.21 0 2.48 0 3.85c0,1.22 -1,2.22 -2.22,2.22l0 0c-1.22,0 -2.22,-1 -2.22,-2.22l0 -3.85 0 -2.48 0 -7.21c0,-1.2 -0.49,-2.29 -1.28,-3.08 -0.79,-0.79 -1.88,-1.28 -3.08,-1.28 -24.57,0 -9.37,0 -33.94,0 -1.2,0 -2.29,0.49 -3.08,1.28 -0.79,0.79 -1.28,1.88 -1.28,3.08l0 43.74c0,1.2 0.49,2.29 1.28,3.08 0.79,0.79 1.88,1.28 3.08,1.28l6.4 0 6.33 0 0 0c1.22,0 2.22,1 2.22,2.22l0 0c0,1.22 -1,2.22 -2.22,2.22l-0 0 -6.33 0 -6.4 0c-2.42,0 -4.62,-0.99 -6.21,-2.59l-0.01 -0.01c-1.59,-1.59 -2.59,-3.8 -2.59,-6.21l0 -43.74c0,-2.42 0.99,-4.62 2.59,-6.21l0.01 -0.01c1.59,-1.59 3.79,-2.59 6.21,-2.59z"/>
    </g>
   </g>
  </g>
 </g>
</svg>
