<?xml version="1.0" encoding="UTF-8"?>
<!DOCTYPE svg PUBLIC "-//W3C//DTD SVG 1.1//EN" "http://www.w3.org/Graphics/SVG/1.1/DTD/svg11.dtd">
<!-- Creator: CorelDRAW 2019 (64-Bit) -->
<svg xmlns="http://www.w3.org/2000/svg" xml:space="preserve" width="22.9999mm" height="23mm" version="1.1" style="shape-rendering:geometricPrecision; text-rendering:geometricPrecision; image-rendering:optimizeQuality; fill-rule:evenodd; clip-rule:evenodd"
viewBox="0 0 93.35 93.35"
 xmlns:xlink="http://www.w3.org/1999/xlink"
 xmlns:xodm="http://www.corel.com/coreldraw/odm/2003">
 <defs>
  <style type="text/css">
   <![CDATA[
    .fil0 {fill:none}
    .fil2 {fill:#FEFEFE}
    .fil1 {fill:#FEFEFE;fill-rule:nonzero}
   ]]>
  </style>
 </defs>
 <g id="Capa_x0020_1">
  <metadata id="CorelCorpID_0Corel-Layer"/>
  <g id="_2935534358400">
   <rect class="fil0" x="-0" width="93.35" height="93.35"/>
   <g>
    <g>
     <path class="fil1" d="M68.57 25.07l-51.87 0 0 25.74 47.53 0 1.17 3.89 2.53 -2.53 2.53 2.53c-0.32,0.11 -0.66,0.17 -1.02,0.17l-53.61 0c-0.87,0 -1.67,-0.36 -2.25,-0.94l-0.01 -0.01c-0.58,-0.58 -0.94,-1.38 -0.94,-2.25l0 -27.47c0,-0.88 0.36,-1.67 0.94,-2.25l0 -0.01c0.58,-0.58 1.38,-0.94 2.26,-0.94l53.61 0c0.88,0 1.68,0.36 2.26,0.94 0.58,0.58 0.94,1.38 0.94,2.26l0 27.47c0,0.32 -0.05,0.64 -0.14,0.93l-2.5 -2.5 2.42 -2.42 -3.84 -1.15 0 -21.47z"/>
     <path class="fil2" d="M78.36 53.9l-3.79 -3.79 2.11 -2.11c0.39,-0.39 0.55,-0.96 0.41,-1.49 -0.14,-0.53 -0.54,-0.96 -1.07,-1.12l-15.7 -4.71c-0.55,-0.17 -1.15,-0.01 -1.56,0.39 -0.41,0.41 -0.56,1.01 -0.39,1.56l4.71 15.7c0.16,0.53 0.58,0.94 1.12,1.07 0.53,0.13 1.1,-0.02 1.49,-0.41l2.22 -2.22 3.79 3.79c0.29,0.3 0.69,0.46 1.11,0.46 0.42,0 0.82,-0.16 1.11,-0.46l4.44 -4.44c0.61,-0.61 0.61,-1.61 0,-2.22zm-3.48 1.11l-4.9 -4.9 2.42 -2.42 -10.02 -3.01 3.01 10.02 2.53 -2.53 4.9 4.9 2.07 -2.07z"/>
     <path class="fil1" d="M32.83 41.74l-9.28 0 0 3.08 9.28 0 0 -3.08zm-10.15 -4.06l11.01 0c0.88,0 1.68,0.36 2.26,0.94 0.58,0.58 0.94,1.38 0.94,2.26l0 4.81c0,0.88 -0.36,1.68 -0.94,2.26l-0.01 0c-0.58,0.58 -1.37,0.94 -2.25,0.94l-11.01 0c-0.87,0 -1.67,-0.36 -2.25,-0.94l-0.01 -0.01c-0.58,-0.58 -0.94,-1.38 -0.94,-2.25l0 -4.81c0,-0.88 0.36,-1.67 0.94,-2.25l0 -0.01c0.58,-0.58 1.38,-0.94 2.26,-0.94z"/>
     <polygon class="fil1" points="13.14,28.98 72.12,28.98 72.12,33.04 13.14,33.04 "/>
    </g>
    <path class="fil2" d="M13.01 12.88l29.57 0 8.2 0 29.57 0c2.21,0 4.22,0.9 5.67,2.36l0.01 0.01c1.46,1.46 2.36,3.47 2.36,5.67l0 39.95c0,2.21 -0.9,4.22 -2.36,5.67l-0.01 0.01c-1.46,1.46 -3.47,2.36 -5.67,2.36l-29.57 0 -8.2 0 -29.57 0c-2.21,0 -4.22,-0.9 -5.67,-2.36l-0.01 -0.01c-1.46,-1.46 -2.36,-3.47 -2.36,-5.67l0 -39.95c0,-2.21 0.9,-4.22 2.36,-5.67l0.01 -0.01c1.46,-1.46 3.47,-2.36 5.67,-2.36zm37.77 4.06l-8.2 0 -29.57 0c-1.1,0 -2.09,0.45 -2.82,1.17 -0.72,0.72 -1.17,1.72 -1.17,2.82l0 39.95c0,1.1 0.45,2.09 1.17,2.82 0.72,0.72 1.72,1.17 2.82,1.17l29.57 0 8.2 0 29.57 0c1.1,0 2.09,-0.45 2.82,-1.17 0.72,-0.72 1.17,-1.72 1.17,-2.82l0 -39.95c0,-1.1 -0.45,-2.09 -1.17,-2.82 -0.72,-0.72 -1.72,-1.17 -2.82,-1.17l-29.57 0z"/>
    <path class="fil1" d="M59.74 79c-0.93,-0.53 -1.75,-1.22 -2.44,-2.07 -1.62,-1.99 -2.46,-4.84 -2.5,-8.51l-16.24 0c-0.04,3.68 -0.88,6.52 -2.5,8.51 -0.69,0.85 -1.5,1.54 -2.44,2.07l-9.08 0c0.18,-0.5 0.5,-0.95 0.91,-1.31 0.67,-0.59 1.6,-0.96 2.63,-0.96 2.11,0 3.68,-0.62 4.68,-1.86 1.16,-1.42 1.74,-3.68 1.74,-6.75 0,-0.9 0.42,-1.72 1.09,-2.31 0.67,-0.59 1.6,-0.96 2.63,-0.96l16.91 0c1.03,0 1.96,0.37 2.63,0.96 0.67,0.59 1.09,1.41 1.09,2.31 0,3.07 0.58,5.33 1.74,6.75 1.01,1.24 2.57,1.86 4.68,1.86 1.03,0 1.96,0.37 2.63,0.96 0.41,0.36 0.73,0.81 0.91,1.31l-9.08 0z"/>
    <path class="fil2" d="M68.88 80.47l-44.41 0c-1.12,0 -2.03,-0.91 -2.03,-2.03l0 -0c0,-1.12 0.91,-2.03 2.03,-2.03l44.41 0c1.12,0 2.03,0.91 2.03,2.03l0 0c0,1.12 -0.91,2.03 -2.03,2.03z"/>
   </g>
  </g>
 </g>
</svg>
