<?xml version="1.0" encoding="UTF-8" standalone="no"?>
<svg
   xmlns:dc="http://purl.org/dc/elements/1.1/"
   xmlns:cc="http://creativecommons.org/ns#"
   xmlns:rdf="http://www.w3.org/1999/02/22-rdf-syntax-ns#"
   xmlns:svg="http://www.w3.org/2000/svg"
   xmlns="http://www.w3.org/2000/svg"
   id="svg8238"
   viewBox="0 0 93.35 93.35"
   style="shape-rendering:geometricPrecision; text-rendering:geometricPrecision; image-rendering:optimizeQuality; fill-rule:evenodd; clip-rule:evenodd"
   version="1.1"
   height="23mm"
   width="22.9999mm"
   xml:space="preserve"><metadata
   id="metadata8242"><rdf:RDF><cc:Work
       rdf:about=""><dc:format>image/svg+xml</dc:format><dc:type
         rdf:resource="http://purl.org/dc/dcmitype/StillImage" /><dc:title></dc:title></cc:Work></rdf:RDF></metadata>
 <defs
   id="defs8213">
  <style
   id="style8211"
   type="text/css">
   <![CDATA[
    .fil0 {fill:none}
    .fil2 {fill:#FEFEFE}
    .fil1 {fill:#FEFEFE;fill-rule:nonzero}
   ]]>
  </style>
 
  
  
 
   
   
  </defs>
 <g
   id="g8818"><rect
     class="fil0"
     x="0"
     width="93.349998"
     height="93.349998"
     id="rect8216"
     y="0"
     style="fill:none" /><g
     id="g8234"
     style="fill:#b30000;fill-opacity:1">
    <g
   id="g8226"
   style="fill:#b30000;fill-opacity:1">
     <path
   class="fil1"
   d="M 68.57,25.07 H 16.7 v 25.74 h 47.53 l 1.17,3.89 2.53,-2.53 2.53,2.53 c -0.32,0.11 -0.66,0.17 -1.02,0.17 H 15.83 c -0.87,0 -1.67,-0.36 -2.25,-0.94 L 13.57,53.92 C 12.99,53.34 12.63,52.54 12.63,51.67 V 24.2 c 0,-0.88 0.36,-1.67 0.94,-2.25 V 21.94 C 14.15,21.36 14.95,21 15.83,21 h 53.61 c 0.88,0 1.68,0.36 2.26,0.94 0.58,0.58 0.94,1.38 0.94,2.26 v 27.47 c 0,0.32 -0.05,0.64 -0.14,0.93 L 70,50.1 72.42,47.68 68.58,46.53 V 25.06 Z"
   id="path8218"
   style="fill:#b30000;fill-rule:nonzero;fill-opacity:1" />
     <path
   class="fil2"
   d="M 78.36,53.9 74.57,50.11 76.68,48 c 0.39,-0.39 0.55,-0.96 0.41,-1.49 -0.14,-0.53 -0.54,-0.96 -1.07,-1.12 l -15.7,-4.71 c -0.55,-0.17 -1.15,-0.01 -1.56,0.39 -0.41,0.41 -0.56,1.01 -0.39,1.56 l 4.71,15.7 c 0.16,0.53 0.58,0.94 1.12,1.07 0.53,0.13 1.1,-0.02 1.49,-0.41 l 2.22,-2.22 3.79,3.79 c 0.29,0.3 0.69,0.46 1.11,0.46 0.42,0 0.82,-0.16 1.11,-0.46 l 4.44,-4.44 c 0.61,-0.61 0.61,-1.61 0,-2.22 z m -3.48,1.11 -4.9,-4.9 2.42,-2.42 -10.02,-3.01 3.01,10.02 2.53,-2.53 4.9,4.9 2.07,-2.07 z"
   id="path8220"
   style="fill:#b30000;fill-opacity:1" />
     <path
   class="fil1"
   d="m 32.83,41.74 h -9.28 v 3.08 h 9.28 z M 22.68,37.68 h 11.01 c 0.88,0 1.68,0.36 2.26,0.94 0.58,0.58 0.94,1.38 0.94,2.26 v 4.81 c 0,0.88 -0.36,1.68 -0.94,2.26 h -0.01 c -0.58,0.58 -1.37,0.94 -2.25,0.94 H 22.68 c -0.87,0 -1.67,-0.36 -2.25,-0.94 l -0.01,-0.01 c -0.58,-0.58 -0.94,-1.38 -0.94,-2.25 v -4.81 c 0,-0.88 0.36,-1.67 0.94,-2.25 V 38.62 C 21,38.04 21.8,37.68 22.68,37.68 Z"
   id="path8222"
   style="fill:#b30000;fill-rule:nonzero;fill-opacity:1" />
     <polygon
   class="fil1"
   points="13.14,28.98 72.12,28.98 72.12,33.04 13.14,33.04 "
   id="polygon8224"
   style="fill:#b30000;fill-rule:nonzero;fill-opacity:1" />
    </g>
    <path
   class="fil2"
   d="m 13.01,12.88 h 29.57 8.2 29.57 c 2.21,0 4.22,0.9 5.67,2.36 l 0.01,0.01 c 1.46,1.46 2.36,3.47 2.36,5.67 v 39.95 c 0,2.21 -0.9,4.22 -2.36,5.67 l -0.01,0.01 c -1.46,1.46 -3.47,2.36 -5.67,2.36 H 50.78 42.58 13.01 c -2.21,0 -4.22,-0.9 -5.67,-2.36 L 7.33,66.54 C 5.87,65.08 4.97,63.07 4.97,60.87 V 20.92 c 0,-2.21 0.9,-4.22 2.36,-5.67 l 0.01,-0.01 c 1.46,-1.46 3.47,-2.36 5.67,-2.36 z m 37.77,4.06 h -8.2 -29.57 c -1.1,0 -2.09,0.45 -2.82,1.17 -0.72,0.72 -1.17,1.72 -1.17,2.82 v 39.95 c 0,1.1 0.45,2.09 1.17,2.82 0.72,0.72 1.72,1.17 2.82,1.17 h 29.57 8.2 29.57 c 1.1,0 2.09,-0.45 2.82,-1.17 0.72,-0.72 1.17,-1.72 1.17,-2.82 V 20.93 c 0,-1.1 -0.45,-2.09 -1.17,-2.82 -0.72,-0.72 -1.72,-1.17 -2.82,-1.17 z"
   id="path8228"
   style="fill:#b30000;fill-opacity:1" />
    <path
   class="fil1"
   d="M 59.74,79 C 58.81,78.47 57.99,77.78 57.3,76.93 55.68,74.94 54.84,72.09 54.8,68.42 H 38.56 c -0.04,3.68 -0.88,6.52 -2.5,8.51 -0.69,0.85 -1.5,1.54 -2.44,2.07 h -9.08 c 0.18,-0.5 0.5,-0.95 0.91,-1.31 0.67,-0.59 1.6,-0.96 2.63,-0.96 2.11,0 3.68,-0.62 4.68,-1.86 1.16,-1.42 1.74,-3.68 1.74,-6.75 0,-0.9 0.42,-1.72 1.09,-2.31 0.67,-0.59 1.6,-0.96 2.63,-0.96 h 16.91 c 1.03,0 1.96,0.37 2.63,0.96 0.67,0.59 1.09,1.41 1.09,2.31 0,3.07 0.58,5.33 1.74,6.75 1.01,1.24 2.57,1.86 4.68,1.86 1.03,0 1.96,0.37 2.63,0.96 0.41,0.36 0.73,0.81 0.91,1.31 h -9.08 z"
   id="path8230"
   style="fill:#b30000;fill-rule:nonzero;fill-opacity:1" />
    <path
   class="fil2"
   d="M 68.88,80.47 H 24.47 c -1.12,0 -2.03,-0.91 -2.03,-2.03 v 0 c 0,-1.12 0.91,-2.03 2.03,-2.03 h 44.41 c 1.12,0 2.03,0.91 2.03,2.03 v 0 c 0,1.12 -0.91,2.03 -2.03,2.03 z"
   id="path8232"
   style="fill:#b30000;fill-opacity:1" />
   </g></g>
</svg>