<?xml version="1.0" encoding="UTF-8" standalone="no"?>
<svg
   xmlns:dc="http://purl.org/dc/elements/1.1/"
   xmlns:cc="http://creativecommons.org/ns#"
   xmlns:rdf="http://www.w3.org/1999/02/22-rdf-syntax-ns#"
   xmlns:svg="http://www.w3.org/2000/svg"
   xmlns="http://www.w3.org/2000/svg"
   id="svg9018"
   viewBox="0 0 93.42 93.42"
   style="shape-rendering:geometricPrecision; text-rendering:geometricPrecision; image-rendering:optimizeQuality; fill-rule:evenodd; clip-rule:evenodd"
   version="1.1"
   height="23mm"
   width="22.9999mm"
   xml:space="preserve"><metadata
   id="metadata9022"><rdf:RDF><cc:Work
       rdf:about=""><dc:format>image/svg+xml</dc:format><dc:type
         rdf:resource="http://purl.org/dc/dcmitype/StillImage" /><dc:title></dc:title></cc:Work></rdf:RDF></metadata>
 <defs
   id="defs9009">
  <style
   id="style9007"
   type="text/css">
   <![CDATA[
    .fil0 {fill:none}
    .fil1 {fill:#FEFEFE;fill-rule:nonzero}
   ]]>
  </style>
 
  
  
 
   
   
  </defs>
 <g
   id="g9574"><rect
     class="fil0"
     x="0"
     width="93.419998"
     height="93.419998"
     id="rect9012"
     y="0"
     style="fill:none" /><path
     class="fil1"
     d="m 12.19,60.71 c -0.79,0.79 -2.08,0.79 -2.87,0 -0.79,-0.79 -0.79,-2.08 0,-2.87 L 32.27,34.89 c 0.79,-0.79 2.08,-0.79 2.87,0 L 49.45,49.2 74.71,23.94 72.17,21.4 c -0.74,-0.74 -1.41,-0.98 -0.64,-1.96 0.33,-0.41 0.81,-0.71 1.33,-0.77 l 10.43,-1.13 c 0.86,-0.09 1.49,0.52 1.4,1.36 l -1.13,10.5 c -0.05,0.46 -0.31,0.9 -0.68,1.22 -1.06,0.92 -1.36,0.16 -2.16,-0.64 L 77.57,26.81 50.88,53.5 c -0.79,0.79 -2.08,0.79 -2.87,0 L 33.7,39.19 12.19,60.7 Z M 57.86,38.03 63.31,15.45 h -3.53 l -5.39,22.58 h 3.46 z M 39.63,31.87 c 0.12,3.52 2.98,5.67 7.48,5.67 4.65,0 7.59,-2.3 7.59,-5.94 0,-2.86 -1.63,-4.47 -5.38,-5.28 l -2.28,-0.48 c -2.16,-0.49 -3.07,-1.14 -3.07,-2.3 0,-1.39 1.3,-2.31 3.24,-2.31 1.97,0 3.36,0.96 3.49,2.55 h 3.66 c -0.07,-3.39 -2.8,-5.63 -7.16,-5.63 -4.18,0 -7.16,2.28 -7.16,5.74 0,2.75 1.7,4.5 5.15,5.24 l 2.45,0.54 c 2.26,0.51 3.16,1.18 3.16,2.4 0,1.38 -1.43,2.38 -3.52,2.38 -2.08,0 -3.7,-1.02 -3.88,-2.56 H 39.63 Z M 14.24,77.98 V 61.54 l 7.21,-7.21 v 23.65 z m 16.34,0 V 45.2 l 3.12,-3.12 4.09,4.09 v 31.81 z m 15.69,0 V 54.65 l 0.3,0.3 c 1.59,1.59 4.16,1.59 5.74,0 l 1.16,-1.16 v 24.19 h -7.21 z m 15.8,0 V 45.2 l 7.21,-7.21 v 39.99 z"
     id="path9014"
     style="fill:#b30000;fill-rule:nonzero;fill-opacity:1" /></g>
</svg>