<?xml version="1.0" encoding="UTF-8"?>
<!DOCTYPE svg PUBLIC "-//W3C//DTD SVG 1.1//EN" "http://www.w3.org/Graphics/SVG/1.1/DTD/svg11.dtd">
<!-- Creator: CorelDRAW 2019 (64-Bit) -->
<svg xmlns="http://www.w3.org/2000/svg" xml:space="preserve" width="22.9999mm" height="23mm" version="1.1" style="shape-rendering:geometricPrecision; text-rendering:geometricPrecision; image-rendering:optimizeQuality; fill-rule:evenodd; clip-rule:evenodd"
viewBox="0 0 93.42 93.42"
 xmlns:xlink="http://www.w3.org/1999/xlink"
 xmlns:xodm="http://www.corel.com/coreldraw/odm/2003">
 <defs>
  <style type="text/css">
   <![CDATA[
    .fil0 {fill:none}
    .fil1 {fill:#FEFEFE;fill-rule:nonzero}
   ]]>
  </style>
 </defs>
 <g id="Capa_x0020_1">
  <metadata id="CorelCorpID_0Corel-Layer"/>
  <g id="_2935433910752">
   <rect class="fil0" x="-0" width="93.42" height="93.42"/>
   <path class="fil1" d="M12.19 60.71c-0.79,0.79 -2.08,0.79 -2.87,0 -0.79,-0.79 -0.79,-2.08 0,-2.87l22.95 -22.95c0.79,-0.79 2.08,-0.79 2.87,0l14.31 14.31 25.26 -25.26 -2.54 -2.54c-0.74,-0.74 -1.41,-0.98 -0.64,-1.96 0.33,-0.41 0.81,-0.71 1.33,-0.77l10.43 -1.13c0.86,-0.09 1.49,0.52 1.4,1.36l-1.13 10.5c-0.05,0.46 -0.31,0.9 -0.68,1.22 -1.06,0.92 -1.36,0.16 -2.16,-0.64l-3.15 -3.17 -26.69 26.69c-0.79,0.79 -2.08,0.79 -2.87,0l-14.31 -14.31 -21.51 21.51zm45.67 -22.68l5.45 -22.58 -3.53 0 -5.39 22.58 3.46 0zm-18.23 -6.16c0.12,3.52 2.98,5.67 7.48,5.67 4.65,0 7.59,-2.3 7.59,-5.94 0,-2.86 -1.63,-4.47 -5.38,-5.28l-2.28 -0.48c-2.16,-0.49 -3.07,-1.14 -3.07,-2.3 0,-1.39 1.3,-2.31 3.24,-2.31 1.97,0 3.36,0.96 3.49,2.55l3.66 0c-0.07,-3.39 -2.8,-5.63 -7.16,-5.63 -4.18,0 -7.16,2.28 -7.16,5.74 0,2.75 1.7,4.5 5.15,5.24l2.45 0.54c2.26,0.51 3.16,1.18 3.16,2.4 0,1.38 -1.43,2.38 -3.52,2.38 -2.08,0 -3.7,-1.02 -3.88,-2.56l-3.77 0zm-25.39 46.11l0 -16.44 7.21 -7.21 0 23.65 -7.21 0zm16.34 0l0 -32.78 3.12 -3.12 4.09 4.09 0 31.81 -7.21 0zm15.69 0l0 -23.33 0.3 0.3c1.59,1.59 4.16,1.59 5.74,0l1.16 -1.16 0 24.19 -7.21 0zm15.8 0l0 -32.78 7.21 -7.21 0 39.99 -7.21 0z"/>
  </g>
 </g>
</svg>
