<svg id="_x33_0" enable-background="new 0 0 64 64" height="512" viewBox="0 0 64 64" width="512" xmlns="http://www.w3.org/2000/svg"><g><g><g><path d="m39.92 7.03c.05.31.08.64.08.97v.75c0 .83-.13 1.65-.39 2.43-.15.46-.35.9-.59 1.32-1 1.41-1.2 1.62-1.41 1.82l-.71.68c.07-.32.1-.66.1-1v-1.88c0-1.83-1.25-3.43-3.03-3.88l-.66-.16-.01-.01c-.53.71-1.33 1.22-2.27 1.35l-2.31.33c-.99.15-1.72.99-1.72 1.98v2.27c0 .34.03.68.1 1l-.71-.68c-.91-.87-1.6-1.94-2-3.14-.26-.78-.39-1.6-.39-2.43 0-1.87.76-3.55 1.98-4.77s2.9-1.98 4.77-1.98h3.25c2.98 0 5.46 2.18 5.92 5.03z" fill="#b27946"/></g><g><path d="m56.5 18.97-.5 4.03-.01.01c-.74-.69-1.65-1.17-2.64-1.42l-.6-.15c-1.08-.27-1.92-1.11-2.19-2.19l-.21-.84c1.58-.84 2.65-2.5 2.65-4.41v-1.88c0-1.83-1.25-3.43-3.03-3.88l-.66-.16-.01-.01c-.53.71-1.33 1.22-2.27 1.35l-2.31.33c-.99.15-1.72.99-1.72 1.98v2.27c0 1.38.56 2.63 1.46 3.54.35.35.75.64 1.19.87l-.21.84c-.27 1.08-1.11 1.92-2.19 2.19l-.6.15c-.99.24-1.9.73-2.65 1.41l-.5-4.03c-.27-2.15-.43-4.31-.48-6.47.24-.42.44-.86.59-1.32.26-.78.39-1.6.39-2.43v-.75c0-.33-.03-.66-.08-.97.74-1.49 1.87-2.75 3.26-3.63 1.4-.89 3.05-1.4 4.82-1.4 2.48 0 4.74 1.01 6.36 2.64 1.63 1.62 2.64 3.88 2.64 6.36 0 2.66-.17 5.33-.5 7.97z" fill="#656d78"/></g><g><path d="m10.39 14.32c-.91-.87-1.6-1.94-2-3.14-.26-.78-.39-1.6-.39-2.43v-3.75c0-1.66 1.34-3 3-3h7c3.31 0 6 2.69 6 6v.75c0 .83-.13 1.65-.39 2.43-.4 1.2-1.09 2.27-2 3.14l-.71.68c.07-.32.1-.66.1-1v-1.88c0-1.83-1.25-3.43-3.03-3.88l-.66-.16-.01-.01c-.53.71-1.33 1.22-2.27 1.35l-2.31.33c-.99.15-1.72.99-1.72 1.98v2.27c0 .34.03.68.1 1z" fill="#656d78"/></g><g><path d="m12.13 24c-2.2 0-4.24.7-5.9 1.91l-.01-.01c.28-1.01.82-1.94 1.58-2.7.78-.78 1.77-1.34 2.85-1.61l2.35-.59 3 3z" fill="#b4dd7f"/></g><g><path d="m24 23.01c-.07.06-.14.13-.2.19-1.15 1.15-1.8 2.71-1.8 4.34v.46c0-2.21-1.79-4-4-4h-2l3-3 2.35.59c.99.24 1.9.73 2.65 1.42z" fill="#b4dd7f"/></g><g><path d="m28.56 25.58 3.44 4.42h-10v-2-.46c0-1.63.65-3.19 1.8-4.34.06-.06.13-.13.2-.19.5-.46 1.08-.83 1.71-1.1z" fill="#ff826e"/></g><g><path d="m41.42 24.94c-.09.08-.17.15-.25.23-.72.73-1.17 1.73-1.17 2.83 0 .73.2 1.41.54 2h-8.54l3.44-4.42 2.85-3.67c.63.27 1.2.64 1.7 1.1.07.06.14.12.21.19.51.51.92 1.1 1.22 1.74z" fill="#ff826e"/></g><g><path d="m35.44 25.58-3.44 4.42-3.44-4.42 3.44-2.58z" fill="#b4dd7f"/></g><g><path d="m38.29 21.91-2.85 3.67-3.44-2.58 3-2 2.35.59c.32.08.64.19.94.32z" fill="#a0d468"/></g><g><path d="m32 23-3.44 2.58-2.85-3.67c.3-.13.62-.24.94-.32l2.35-.59z" fill="#a0d468"/></g><g><path d="m43.25 21.44c1.08-.27 1.92-1.11 2.19-2.19l.21-.84c.7.38 1.5.59 2.35.59s1.65-.21 2.35-.59l.21.84c.27 1.08 1.11 1.92 2.19 2.19l.6.15c.99.25 1.9.73 2.64 1.42.07.06.14.12.21.19 1.15 1.15 1.8 2.71 1.8 4.34v.55c-1.85-2.48-4.8-4.09-8.13-4.09h-5.87c-.99 0-1.89.36-2.58.94-.3-.64-.71-1.23-1.22-1.74-.07-.07-.14-.13-.21-.19l.01-.01c.75-.68 1.66-1.17 2.65-1.41z" fill="#fcd770"/></g><g><path d="m17.97 8.24c1.78.45 3.03 2.05 3.03 3.88v1.88c0 .34-.03.68-.1 1-.3 1.48-1.25 2.72-2.55 3.41-.7.38-1.5.59-2.35.59l-2.35-.59c-.44-.23-.84-.52-1.19-.87-.68-.68-1.16-1.56-1.36-2.54-.07-.32-.1-.66-.1-1v-2.27c0-.99.73-1.83 1.72-1.98l2.31-.33c.94-.13 1.74-.64 2.27-1.35l.01.01z" fill="#f0d0b4"/></g><g><path d="m13.65 18.41 2.35.59c.85 0 1.65-.21 2.35-.59l.65 2.59-3 3-3-3z" fill="#f0d0b4"/></g><g><path d="m32 19c.85 0 1.65-.21 2.35-.59l.65 2.59-3 2-3-2 .65-2.59z" fill="#f0d0b4"/></g><g><path d="m33.97 8.24c1.78.45 3.03 2.05 3.03 3.88v1.88c0 .34-.03.68-.1 1-.3 1.48-1.25 2.72-2.55 3.41-.7.38-1.5.59-2.35.59l-2.35-.59c-.44-.23-.84-.52-1.19-.87-.68-.68-1.16-1.56-1.36-2.54-.07-.32-.1-.66-.1-1v-2.27c0-.99.73-1.83 1.72-1.98l2.31-.33c.94-.13 1.74-.64 2.27-1.35l.01.01z" fill="#f0d0b4"/></g><g><path d="m49.97 8.24c1.78.45 3.03 2.05 3.03 3.88v1.88c0 1.91-1.07 3.57-2.65 4.41-.7.38-1.5.59-2.35.59s-1.65-.21-2.35-.59c-.44-.23-.84-.52-1.19-.87-.9-.91-1.46-2.16-1.46-3.54v-2.27c0-.99.73-1.83 1.72-1.98l2.31-.33c.94-.13 1.74-.64 2.27-1.35l.01.01z" fill="#f0d0b4"/></g><g><path d="m44 32c-.43 0-.84-.07-1.22-.19-.95-.3-1.75-.96-2.24-1.81-.34-.59-.54-1.27-.54-2 0-1.1.45-2.1 1.17-2.83.08-.08.16-.15.25-.23.69-.58 1.59-.94 2.58-.94h5.87c3.33 0 6.28 1.61 8.13 4.09 1.25 1.69 2 3.78 2 6.04v10.04c0 1.81.72 3.55 2 4.83l-.02.1c-.51 2.55-2.56 4.46-5.07 4.83.06-.42.09-.84.09-1.27 0-1.17-.23-2.32-.67-3.38s-1.09-2.04-1.92-2.87l-.41-.41-2-6 .74-1.49c.17-.33.26-.71.26-1.08 0-.67-.27-1.28-.71-1.72s-1.05-.71-1.72-.71h-.57l-.24-.97c-.38-1.51-1.59-2.64-3.08-2.95-.07.12-.17.23-.27.33-.36.37-.86.59-1.41.59z" fill="#b27946"/></g><g><path d="m44 56v-.52c0-1.12.22-2.21.64-3.22s1.04-1.94 1.82-2.72c.74-.74 1.6-1.35 2.54-1.8.35-.17.7-.31 1.07-.43l3.93-1.31.41.41c.83.83 1.48 1.81 1.92 2.87s.67 2.21.67 3.38c0 .43-.03.85-.09 1.27-.16 1.09-.52 2.14-1.07 3.11l-1.11 1.94c-1.07 1.87-3.06 3.02-5.21 3.02h-9.52v-6h3z" fill="#ff826e"/></g><g><path d="m38.33 52 .67 4h-2c-.72 0-1.37.25-1.89.67l-2.11-12.67h4l.67 4z" fill="#fcd770"/></g><g><path d="m41 44h-4l2 12h4z" fill="#ffeaa7"/></g><g><path d="m29 44-2.11 12.67c-.52-.42-1.17-.67-1.89-.67h-2l.67-4 .66-4 .67-4z" fill="#ccd1d9"/></g><g><path d="m21 44-2 12h4l2-12z" fill="#e6e9ed"/></g><g><path d="m19 56h3v6h-9.91c-1.94 0-3.76-.94-4.88-2.51l-1.69-2.36c-.99-1.39-1.52-3.05-1.52-4.75 0-1.08.22-2.14.62-3.12.41-.98 1-1.88 1.77-2.65l.61-.61 4.91 1.4c.37.11.74.24 1.09.4.95.41 1.81 1.01 2.54 1.74.78.78 1.4 1.71 1.82 2.72s.64 2.1.64 3.22v.52z" fill="#b4dd7f"/></g><g><path d="m15.27 31h-.15c-1.83 0-3.43 1.25-3.88 3.03l-.24.97h-.57c-.67 0-1.28.27-1.72.71s-.71 1.05-.71 1.72c0 .37.09.75.26 1.08l.74 1.49-1.08 3.23-1.96-1.4c-2.48-1.78-3.96-4.64-3.96-7.7 0-2.79 1.14-5.33 2.97-7.16.39-.39.81-.75 1.26-1.06 1.66-1.21 3.7-1.91 5.9-1.91h3.87 2c2.21 0 4 1.79 4 4 0 .73-.2 1.41-.54 2-.17.3-.39.58-.63.83-.45.44-.99.78-1.6.98-.39.12-.8.19-1.23.19h-1c-.74 0-1.38-.4-1.73-1z" fill="#656d78"/></g><g><path d="m13 44.5v3.3c-.35-.16-.72-.29-1.09-.4l-4.91-1.4.92-2.77 1.08-3.23-.74-1.49c-.17-.33-.26-.71-.26-1.08 0-.67.27-1.28.71-1.72s1.05-.71 1.72-.71h.57l.24-.97c.45-1.78 2.05-3.03 3.88-3.03h.15c.35.6.99 1 1.73 1h1c.43 0 .84-.07 1.23-.19l1.77 5.19-2 1v3.44c0 1.97-1.59 3.56-3.56 3.56-.29 0-.58-.04-.87-.11z" fill="#f0d0b4"/></g><g><path d="m23 56h2c.72 0 1.37.25 1.89.67.68.55 1.11 1.39 1.11 2.33 0 .83-.34 1.58-.88 2.12s-1.29.88-2.12.88h-3v-6z" fill="#f0d0b4"/></g><g><path d="m40 56v6h-3c-.83 0-1.58-.34-2.12-.88s-.88-1.29-.88-2.12c0-.94.43-1.78 1.11-2.33.52-.42 1.17-.67 1.89-.67h2z" fill="#f0d0b4"/></g><g><path d="m49 44.5-1.57.39c-.29.07-.58.11-.87.11-1.97 0-3.56-1.59-3.56-3.56v-3.44l-2-1 1.74-5.08.04-.11c.38.12.79.19 1.22.19h1c.55 0 1.05-.22 1.41-.59.1-.1.2-.21.27-.33 1.49.31 2.7 1.44 3.08 2.95l.24.97h.57c.67 0 1.28.27 1.72.71s.71 1.05.71 1.72c0 .37-.09.75-.26 1.08l-.74 1.49 2 6-3.93 1.31c-.37.12-.72.26-1.07.43z" fill="#f0d0b4"/></g></g><path d="m62.707 48.293c-1.101-1.101-1.707-2.564-1.707-4.122v-10.04c0-2.359-.743-4.546-2-6.348v-.24c0-1.836-.694-3.561-1.949-4.891l.445-3.558c.335-2.674.504-5.397.504-8.094 0-5.514-4.486-10-10-10-3.101 0-5.925 1.414-7.797 3.768-1.17-2.236-3.509-3.768-6.203-3.768h-3.248c-2.783 0-5.221 1.479-6.588 3.687-1.183-2.193-3.502-3.687-6.164-3.687h-7c-2.206 0-4 1.794-4 4v3.752c0 .936.15 1.86.446 2.747.447 1.342 1.226 2.568 2.251 3.545l.508.484c.36 1.363 1.185 2.535 2.298 3.338l-.328 1.31-1.768.442c-1.255.313-2.402.962-3.316 1.877-.787.787-1.367 1.756-1.716 2.81-2.654 2.037-4.375 5.23-4.375 8.826 0 3.372 1.638 6.554 4.381 8.513l1.36.972-.615 1.844-.441.441c-1.731 1.731-2.685 4.033-2.685 6.482 0 1.922.59 3.764 1.708 5.328l1.684 2.358c1.311 1.835 3.441 2.931 5.696 2.931h12.912c2.206 0 4-1.794 4-4 0-1.029-.401-1.958-1.041-2.668l2.222-13.332h-10.028l-1.602 9.612c-.45-1.41-1.228-2.703-2.304-3.78-.661-.661-1.425-1.203-2.247-1.64v-1.412l.332.083c.36.091.733.137 1.106.137 2.516 0 4.562-2.046 4.562-4.562v-2.82l2.229-1.115-1.77-5.177c.592-.338 1.106-.786 1.515-1.326h18.052c.409.541.924.989 1.515 1.327l-1.77 5.177 2.229 1.114v2.82c0 2.516 2.046 4.562 4.562 4.562.374 0 .746-.046 1.106-.136l.332-.083v1.373c-.819.459-1.583 1.015-2.247 1.678-1.077 1.077-1.854 2.37-2.304 3.78l-1.602-9.612h-10.028l2.222 13.332c-.64.71-1.041 1.639-1.041 2.668 0 2.206 1.794 4 4 4h12.518c2.505 0 4.834-1.352 6.078-3.527l1.109-1.942c.494-.865.835-1.803 1.048-2.771 2.616-.67 4.672-2.787 5.228-5.563l.105-.525zm-40.912-32.765.508-.484c.69-.657 1.256-1.434 1.696-2.276.441.842 1.007 1.619 1.697 2.276l.508.484c.36 1.363 1.185 2.535 2.298 3.338l-.328 1.31-1.768.442c-.867.217-1.676.603-2.399 1.117-.726-.518-1.547-.9-2.415-1.117l-1.769-.442-.328-1.31c1.115-.803 1.94-1.975 2.3-3.338zm16 0 .353-.336c.084 1.305.195 2.61.356 3.901l.242 1.934c-.372-.165-.754-.31-1.152-.409l-1.769-.442-.328-1.31c1.113-.803 1.938-1.975 2.298-3.338zm-10.412 6.907 1.43-.358 1.456.971-1.522 1.141zm4.617-.637-1.859-1.239.199-.797c.528.152 1.084.238 1.66.238s1.132-.086 1.659-.239l.199.798zm4-7.798c0 2.206-1.794 4-4 4s-4-1.794-4-4v-2.266c0-.494.369-.919.859-.99l2.313-.331c.959-.137 1.815-.581 2.473-1.222l.083.021c1.337.335 2.272 1.532 2.272 2.911zm-16.693 8.108 1.802.451c.497.124.969.332 1.407.596-.35.447-.641.93-.873 1.44-.038-.041-.066-.089-.106-.129-.854-.854-1.967-1.339-3.159-1.428zm3.693 5.434c0-1.373.535-2.663 1.505-3.633.28-.28.595-.517.928-.723l4.522 5.814h-6.955zm6.976-1.774 2.024-1.518 2.024 1.518-2.024 2.603zm5.276-1.578-1.522-1.142 1.456-.97 1.431.358zm6.515-.641c-.091-.134-.197-.257-.297-.385.442-.269.919-.479 1.422-.605l.604-.151c1.347-.337 2.403-1.342 2.826-2.65.534.154 1.095.242 1.678.242s1.144-.088 1.677-.243c.423 1.308 1.479 2.313 2.826 2.65l.605.151c.903.226 1.728.693 2.387 1.351.357.357.632.767.866 1.199-1.829-1.321-4.068-2.108-6.492-2.108h-5.869c-.792 0-1.546.203-2.233.549zm6.233-5.549c-2.206 0-4-1.794-4-4v-2.266c0-.494.369-.919.859-.99l2.313-.331c.959-.137 1.815-.581 2.473-1.222l.083.021c1.337.335 2.272 1.532 2.272 2.911v1.877c0 2.206-1.794 4-4 4zm0-15c4.411 0 8 3.589 8 8 0 2.614-.165 5.254-.488 7.845l-.301 2.405c-.511-.272-1.051-.491-1.618-.633l-.604-.151c-.718-.179-1.276-.737-1.455-1.455l-.036-.146c1.512-1.09 2.502-2.862 2.502-4.865v-1.877c0-2.106-1.308-3.958-3.243-4.681.158-.455.243-.941.243-1.442v-1h-2v1c0 1.216-.908 2.262-2.111 2.435l-2.313.331c-1.469.209-2.576 1.485-2.576 2.968v2.266c0 2.003.99 3.775 2.503 4.866l-.036.146c-.179.718-.737 1.276-1.455 1.455l-.604.151c-.564.141-1.108.352-1.619.624l-.3-2.397c-.253-2.026-.404-4.087-.46-6.129.202-.393.385-.796.525-1.216.296-.888.446-1.812.446-2.748v-.752c0-.259-.017-.514-.044-.766 1.398-2.613 4.065-4.234 7.044-4.234zm-17.248 0h3.248c2.757 0 5 2.243 5 5v.752c0 .72-.115 1.432-.343 2.115-.163.489-.387.955-.657 1.393v-.137c0-2.106-1.308-3.958-3.243-4.681.158-.455.243-.941.243-1.442v-1h-2v1c0 1.216-.908 2.262-2.111 2.435l-2.313.331c-1.469.209-2.576 1.485-2.576 2.968v.526c-.27-.438-.494-.904-.657-1.393-.228-.683-.343-1.394-.343-2.115 0-3.171 2.581-5.752 5.752-5.752zm-21.409 7.867c-.228-.683-.343-1.394-.343-2.115v-3.752c0-1.103.897-2 2-2h7c2.757 0 5 2.243 5 5v.752c0 .72-.115 1.432-.343 2.115-.163.489-.387.955-.657 1.393v-.137c0-2.106-1.308-3.958-3.243-4.681.158-.455.243-.941.243-1.442v-1h-2v1c0 1.216-.908 2.262-2.111 2.435l-2.313.331c-1.469.209-2.576 1.485-2.576 2.968v.526c-.27-.438-.494-.904-.657-1.393zm2.657.867c0-.494.369-.919.859-.99l2.313-.331c.959-.137 1.815-.581 2.473-1.222l.083.021c1.337.335 2.272 1.532 2.272 2.911v1.877c0 2.206-1.794 4-4 4s-4-1.794-4-4zm4 8.266c.576 0 1.132-.086 1.659-.239l.233.932-1.892 1.893-1.892-1.892.233-.932c.527.152 1.083.238 1.659.238zm-5.108 2.558 1.801-.451.893.893h-1.455c-1.074 0-2.11.161-3.094.446.551-.416 1.181-.72 1.855-.888zm-4.349 18.458c-2.218-1.584-3.543-4.158-3.543-6.885 0-5.035 4.096-9.131 9.131-9.131h5.869c.802 0 1.555.312 2.122.879.566.567.878 1.321.878 2.122 0 1.654-1.347 2.999-3 2.999h-1c-.551 0-1-.449-1-1.004 0-.549.448-.996 1-.996v-2c-1.654 0-3 1.344-3 3 0 .048.012.092.014.139-1.807.411-3.277 1.789-3.742 3.648l-.055.219c-1.792.109-3.217 1.602-3.217 3.421 0 .528.125 1.058.362 1.533l.559 1.117-.518 1.553zm18.457 19.984h-2v-4h2c1.103 0 2 .897 2 2s-.897 2-2 2zm-2.18-10h-1.972l.333-2h1.972zm-.334 2-.333 2h-1.973l.333-2zm3.637 2.18c-.359-.106-.731-.18-1.123-.18h-.82l1.667-10h1.972zm-2.303-10.18-.333 2h-1.972l.333-2zm-6.835 10h-3.367l-2.724-5.447-1.789.895 2.724 5.447c.341.681 1.026 1.105 1.789 1.105h7.382v4h-8.912c-1.611 0-3.132-.783-4.069-2.094l-1.684-2.357c-.874-1.223-1.335-2.664-1.335-4.166 0-1.915.746-3.714 2.099-5.068l.192-.192 4.341 1.24c1.206.345 2.313.996 3.2 1.883 1.285 1.285 2.039 2.958 2.153 4.754zm2.786-18.503-1.771.885v4.057c0 1.412-1.149 2.561-2.562 2.561-.209 0-.418-.026-.621-.077l-3.575-.894-.485 1.94 1.243.312v1.108l-3.721-1.063 1.801-5.402-.929-1.857c-.099-.199-.151-.42-.151-.64 0-.787.64-1.427 1.427-1.427h1.354l.432-1.728c.308-1.232 1.35-2.112 2.59-2.245.548.594 1.326.973 2.197.973h1c.19 0 .371-.035.556-.056zm14.274-7.497 4.522-5.814c.333.207.648.444.928.723.269.269.492.572.694.89-.757.9-1.19 2.013-1.189 3.202 0 .342.036.675.101.998h-5.056zm17.198 15.97-.485-1.94-3.575.894c-.203.05-.412.076-.621.076-1.413 0-2.562-1.149-2.562-2.562v-4.057l-1.771-.885 1.215-3.553c.185.022.366.057.556.057h1c.769 0 1.464-.299 1.996-.777.877.356 1.558 1.113 1.791 2.049l.432 1.728h1.354c.787 0 1.427.64 1.427 1.427 0 .22-.052.441-.151.638l-.929 1.858 1.815 5.444-2.735.912v-.998zm-10.09 6.03h-1.973l-.333-2h1.972zm-1.306 4-.333-2h1.972l.333 2zm.639-8h-1.972l-.333-2h1.972zm-4.333-2 1.667 10h-.82c-.392 0-.764.074-1.123.18l-1.696-10.18zm-1.153 14c0-1.103.897-2 2-2h2v4h-2c-1.103 0-2-.897-2-2zm19.969-2.461-1.109 1.942c-.889 1.554-2.552 2.519-4.342 2.519h-8.518v-4h7.382c.763 0 1.448-.424 1.789-1.105l2.724-5.447-1.789-.895-2.724 5.447h-3.367c.114-1.796.868-3.469 2.152-4.753.898-.898 2.01-1.585 3.214-1.986l3.348-1.116c1.465 1.475 2.271 3.431 2.271 5.511 0 1.36-.356 2.702-1.031 3.883zm3.027-3.957c-.019-2.597-1.036-5.036-2.874-6.874l-.248-.248-1.795-5.384.559-1.117c.237-.474.362-1.003.362-1.532 0-1.819-1.425-3.313-3.218-3.421l-.055-.219c-.371-1.483-1.416-2.695-2.775-3.321.025-.153.048-.307.048-.466 0-1.654-1.346-3-3-3v2c.551 0 1 .449 1 1s-.449 1-1 1h-1c-1.653 0-3-1.345-3-2.999 0-.801.312-1.555.878-2.122.567-.567 1.32-.879 2.122-.879h5.869c5.035 0 9.131 4.096 9.131 9.131v10.041c0 1.901.673 3.698 1.906 5.12-.424 1.492-1.51 2.691-2.91 3.29z"/></g></svg>