<?xml version="1.0" encoding="iso-8859-1"?>
<!-- Generator: Adobe Illustrator 19.0.0, SVG Export Plug-In . SVG Version: 6.00 Build 0)  -->
<svg version="1.1" id="Capa_1" xmlns="http://www.w3.org/2000/svg" xmlns:xlink="http://www.w3.org/1999/xlink" x="0px" y="0px"
	 viewBox="0 0 512.001 512.001" style="enable-background:new 0 0 512.001 512.001;" xml:space="preserve">
<g>
	<path style="fill:#3C6A7C;" d="M343.868,146.232c-6.715,0-12.159-5.444-12.159-12.159V84.405c0-5.241-4.264-9.504-9.504-9.504
		H189.796c-5.241,0-9.504,4.264-9.504,9.504v49.669c0,6.715-5.444,12.159-12.159,12.159s-12.159-5.444-12.159-12.159V84.405
		c0-18.649,15.172-33.822,33.822-33.822h132.409c18.649,0,33.822,15.172,33.822,33.822v49.669
		C356.026,140.788,350.583,146.232,343.868,146.232z"/>
	<path style="fill:#3C6A7C;" d="M498.756,289.843h-44.399v-40.75h44.399c3.178,0,5.755,2.577,5.755,5.755v29.24
		C504.51,287.267,501.934,289.843,498.756,289.843z"/>
	<path style="fill:#3C6A7C;" d="M13.245,289.843h44.399v-40.75H13.245c-3.178,0-5.755,2.577-5.755,5.755v29.24
		C7.49,287.267,10.067,289.843,13.245,289.843z"/>
</g>
<path style="fill:#F33A3A;" d="M461.733,461.415H50.267c-4.862,0-8.803-3.941-8.803-8.803V157.107c0-4.862,3.941-8.803,8.803-8.803
	h411.467c4.862,0,8.803,3.941,8.803,8.803v295.504C470.537,457.473,466.596,461.415,461.733,461.415z"/>
<path style="fill:#DD172F;" d="M461.734,148.304h-40.632v285.34c0,4.862-3.941,8.804-8.803,8.804H41.463v10.164
	c0,4.862,3.941,8.804,8.803,8.804h411.467c4.862,0,8.803-3.942,8.803-8.804V157.107
	C470.537,152.245,466.596,148.304,461.734,148.304z"/>
<path style="fill:#FF4C4C;" d="M488.334,192.079H23.667c-3.833,0-6.94-3.107-6.94-6.94v-57.492c0-3.833,3.107-6.94,6.94-6.94
	h464.667c3.833,0,6.94,3.107,6.94,6.94v57.492C495.274,188.972,492.167,192.079,488.334,192.079z"/>
<path style="fill:#F33A3A;" d="M488.334,120.706h-49.455c3.833,0,6.94,3.107,6.94,6.94v47.41H23.667c-3.833,0-6.94-3.107-6.94-6.94
	v17.022c0,3.833,3.107,6.94,6.94,6.94H438.88h49.455c3.833,0,6.94-3.107,6.94-6.94v-17.022v-40.47
	C495.274,123.813,492.167,120.706,488.334,120.706z"/>
<path style="fill:#FFFFFF;" d="M232.008,396.503v-56.899h-56.899c-3.827,0-6.93-3.103-6.93-6.93v-34.124
	c0-3.827,3.103-6.93,6.93-6.93h56.899v-56.899c0-3.827,3.103-6.93,6.93-6.93h34.124c3.827,0,6.93,3.103,6.93,6.93v56.899h56.899
	c3.827,0,6.93,3.103,6.93,6.93v34.124c0,3.827-3.103,6.93-6.93,6.93h-56.899v56.899c0,3.827-3.103,6.93-6.93,6.93h-34.124
	C235.111,403.434,232.008,400.331,232.008,396.503z"/>
<path style="fill:#CCDFED;" d="M336.892,291.62h-56.899v-56.9c0-3.827-3.103-6.93-6.93-6.93H256v175.643h17.062
	c3.827,0,6.93-3.103,6.93-6.93v-56.899h56.899c3.827,0,6.93-3.103,6.93-6.93v-34.124C343.822,294.723,340.719,291.62,336.892,291.62
	z"/>
<path d="M50.267,468.905c-8.984,0-16.293-7.31-16.293-16.294v-38.908c0-4.13,3.36-7.49,7.49-7.49s7.49,3.36,7.49,7.49v38.908
	c0,0.725,0.589,1.314,1.313,1.314h411.467c0.724,0,1.313-0.589,1.313-1.314V199.569H48.954v158.12c0,4.13-3.36,7.49-7.49,7.49
	s-7.49-3.36-7.49-7.49v-60.356H13.245C5.942,297.333,0,291.391,0,284.088v-29.24c0-7.303,5.942-13.245,13.245-13.245h20.729v-42.034
	H23.666c-7.956,0-14.43-6.474-14.43-14.43v-57.493c0-7.956,6.474-14.43,14.43-14.43h124.818V84.405
	c0-22.78,18.533-41.312,41.312-41.312h132.409c22.78,0,41.312,18.533,41.312,41.312v28.812h18.993c4.13,0,7.49,3.36,7.49,7.49
	s-3.36,7.49-7.49,7.49H24.216v56.393h463.568v-56.393h-47.031c-4.13,0-7.49-3.36-7.49-7.49s3.36-7.49,7.49-7.49h47.581
	c7.956,0,14.43,6.474,14.43,14.43v57.493c0,7.956-6.474,14.43-14.43,14.43h-10.307v42.034h20.729
	c7.303,0,13.245,5.942,13.245,13.245v29.24c0,7.304-5.942,13.245-13.245,13.245h-20.729v155.279c0,8.984-7.309,16.294-16.293,16.294
	H50.267V468.905z M497.02,282.353v-25.77h-18.993v25.77H497.02z M33.974,282.353v-25.77H14.98v25.77H33.974z M348.537,113.216
	V84.405c0-14.519-11.812-26.332-26.332-26.332H189.796c-14.519,0-26.332,11.813-26.332,26.332v28.812h9.338V84.405
	c0-9.371,7.624-16.995,16.994-16.995h132.409c9.371,0,16.995,7.624,16.995,16.995v28.812L348.537,113.216L348.537,113.216z
	 M324.219,113.216V84.405c0-1.111-0.903-2.015-2.015-2.015H189.796c-1.111,0-2.014,0.903-2.014,2.015v28.812L324.219,113.216
	L324.219,113.216z"/>
<path d="M238.939,410.923c-7.951,0-14.42-6.469-14.42-14.42v-49.41h-49.41c-7.951,0-14.42-6.469-14.42-14.42v-34.124
	c0-7.951,6.469-14.42,14.42-14.42h49.41V234.72c0-7.952,6.469-14.42,14.42-14.42h34.124c7.951,0,14.42,6.469,14.42,14.42v49.409
	h49.41c7.951,0,14.42,6.469,14.42,14.42v34.124c0,7.951-6.469,14.42-14.42,14.42h-49.41v49.41c0,7.951-6.469,14.42-14.42,14.42
	H238.939z M272.502,395.943v-56.34c0-4.13,3.36-7.49,7.49-7.49h56.34v-33.003h-56.34c-4.13,0-7.49-3.36-7.49-7.49v-56.34h-33.003
	v56.34c0,4.13-3.36,7.49-7.49,7.49h-56.34v33.003h56.34c4.13,0,7.49,3.36,7.49,7.49v56.34H272.502z"/>
<g>
</g>
<g>
</g>
<g>
</g>
<g>
</g>
<g>
</g>
<g>
</g>
<g>
</g>
<g>
</g>
<g>
</g>
<g>
</g>
<g>
</g>
<g>
</g>
<g>
</g>
<g>
</g>
<g>
</g>
</svg>
