<?xml version="1.0" encoding="iso-8859-1"?>
<!-- Generator: Adobe Illustrator 21.0.0, SVG Export Plug-In . SVG Version: 6.00 Build 0)  -->
<svg xmlns="http://www.w3.org/2000/svg" xmlns:xlink="http://www.w3.org/1999/xlink" version="1.1" id="Capa_1" x="0px" y="0px" viewBox="0 0 512 512" style="enable-background:new 0 0 512 512;" xml:space="preserve" width="512" height="512">
<g>
	<path style="fill:#FC5755;" d="M280.639,235.982v141.986c35.672-3.962,63.508-34.282,63.508-70.993   C344.146,270.264,316.311,239.944,280.639,235.982z"/>
	<path style="fill:#FC0E3C;" d="M280.639,306.975v70.993c35.672-3.962,63.508-34.282,63.508-70.993v0H280.639z"/>
	<polygon style="fill:#FDAB29;" points="58.098,512 151.74,512 136.737,459.033 136.737,385.522 78.121,347.356 58.098,347.356  "/>
	<g>
		<path style="fill:#EDF5FF;" d="M287.702,443.089L56.541,380.299c-32.608-8.857-55.383-38.642-55.383-72.432    c0-34.562,23.427-64.517,56.971-72.846l229.573-57V443.089z"/>
	</g>
	<g>
		<path style="fill:#6598EA;" d="M336.719,221.38v-60.534h-43.448c-44.346,0-80.423-36.078-80.423-80.423S248.925,0,293.271,0    h137.148c44.346,0,80.423,36.078,80.423,80.423s-36.077,80.423-80.423,80.423h-18.985L336.719,221.38z"/>
		<g>
			<g>
				<path style="fill:#326ED3;" d="M308.09,96.441c7.846,0,15.363-6.899,15-15c-0.364-8.127-6.591-15-15-15      c-7.846,0-15.363,6.899-15,15C293.454,89.568,299.681,96.441,308.09,96.441L308.09,96.441z"/>
			</g>
		</g>
		<g>
			<g>
				<path style="fill:#326ED3;" d="M413.201,96.441c7.846,0,15.363-6.899,15-15c-0.364-8.127-6.591-15-15-15      c-7.846,0-15.363,6.899-15,15C398.565,89.568,404.792,96.441,413.201,96.441L413.201,96.441z"/>
			</g>
		</g>
		<g>
			<g>
				<path style="fill:#326ED3;" d="M361.852,96.441c7.846,0,15.363-6.899,15-15c-0.364-8.127-6.591-15-15-15      c-7.846,0-15.363,6.899-15,15C347.216,89.568,353.443,96.441,361.852,96.441L361.852,96.441z"/>
			</g>
		</g>
	</g>
	<g>
		<path style="fill:#D7E9FF;" d="M1.177,306.975c-0.003,0.298-0.019,0.593-0.019,0.891c0,33.79,22.774,63.575,55.383,72.432    l231.161,62.791V306.975H1.177z"/>
	</g>
	<polygon style="fill:#FC5755;" points="201.697,199.375 201.697,419.728 231.697,427.877 231.697,191.927  "/>
	<polygon style="fill:#FC0E3C;" points="201.697,419.728 231.697,427.877 231.697,306.975 201.697,306.975  "/>
</g>















</svg>
