<?xml version="1.0" encoding="iso-8859-1"?>
<!-- Generator: Adobe Illustrator 19.0.0, SVG Export Plug-In . SVG Version: 6.00 Build 0)  -->
<svg version="1.1" id="Capa_1" xmlns="http://www.w3.org/2000/svg" xmlns:xlink="http://www.w3.org/1999/xlink" x="0px" y="0px"
	 viewBox="0 0 512 512" style="enable-background:new 0 0 512 512;" xml:space="preserve">
<path style="fill:#414B82;" d="M67.394,477.788c11.785,0,21.339-9.553,21.339-21.339L99.27,285.883
	c0-11.785-9.554-21.339-21.339-21.339s-21.339,9.553-21.339,21.339L46.055,456.449C46.055,468.234,55.609,477.788,67.394,477.788z"
	/>
<path style="fill:#1E2D64;" d="M139.104,477.788c11.785,0,21.339-9.553,21.339-21.339l-9.66-170.566
	c0-11.785-9.554-21.339-21.339-21.339s-21.339,9.553-21.339,21.339l9.66,170.566C117.766,468.234,127.319,477.788,139.104,477.788z"
	/>
<path style="fill:#96A5D7;" d="M206.192,206.722c-0.378-1.674-9.318-41.165-13.596-54.832
	c-7.521-24.029-16.036-36.787-41.427-36.787h-47.716h-0.275H55.463c-25.374,0-33.899,12.734-41.427,36.787
	c-4.278,13.666-13.218,53.157-13.596,54.832c-1.217,5.388,0.127,11.036,3.643,15.297c46.145,55.808,50.764,61.48,52.51,63.234v0.63
	h47.096h47.096v-1.242c2.304-2.589,9.83-11.904,51.764-62.622C206.065,217.758,207.411,212.11,206.192,206.722z M56.593,229.56
	l-19.38-23.484l14.857-53.534c0.272-0.98,1.153-1.665,2.17-1.687c1.292-0.028,2.354,1.011,2.354,2.304V229.56z M150.784,228.656
	v-75.922c0-1.058,0.873-1.907,1.93-1.879l0,0c0.826,0.022,1.541,0.581,1.762,1.377l14.943,53.844L150.784,228.656z"/>
<path style="fill:#8093CF;" d="M206.192,206.722c-0.378-1.674-9.318-41.165-13.596-54.832
	c-7.521-24.029-16.036-36.787-41.427-36.787h-47.478v170.78h47.094v-1.242c2.304-2.589,9.83-11.904,51.764-62.622
	C206.065,217.758,207.411,212.11,206.192,206.722z M150.784,228.656v-75.922c0-1.058,0.873-1.907,1.93-1.879l0,0
	c0.826,0.022,1.541,0.581,1.762,1.377l14.943,53.844L150.784,228.656z"/>
<circle style="fill:#FFB69E;" cx="103.695" cy="66.903" r="36.854"/>
<polygon style="fill:#FFFFFF;" points="130.827,115.103 103.691,186.309 76.554,115.103 "/>
<path style="fill:#838387;" d="M115.467,139.451l-6.04-10.986l5.242-9.533c0.44-0.8,0.425-1.773-0.04-2.559
	c-0.465-0.786-1.311-1.269-2.224-1.269H94.989c-0.913,0-1.759,0.482-2.224,1.269c-0.465,0.786-0.481,1.759-0.04,2.559l5.224,9.502
	l-6.057,11.016c-0.833,1.514-1.103,3.274-0.764,4.969l3.765,18.805l8.798,23.085l8.767-23.003l3.774-18.889
	C116.569,142.724,116.299,140.965,115.467,139.451z"/>
<path style="fill:#68686B;" d="M103.691,186.308l8.767-23.003l3.774-18.889c0.338-1.694,0.068-3.452-0.765-4.967l-6.04-10.986
	l5.242-9.533c0.44-0.8,0.425-1.773-0.04-2.559c-0.465-0.786-1.311-1.269-2.223-1.269h-8.714L103.691,186.308L103.691,186.308z"/>
<path style="fill:#93CBFF;" d="M372.762,477.788c11.785,0,21.339-9.553,21.339-21.339l10.538-170.566
	c0-11.785-9.553-21.339-21.339-21.339c-11.785,0-21.339,9.553-21.339,21.339l-10.538,170.566
	C351.423,468.234,360.977,477.788,372.762,477.788z"/>
<path style="fill:#78BEFF;" d="M444.472,477.788c11.785,0,21.339-9.553,21.339-21.339l-9.66-170.566
	c0-11.785-9.553-21.339-21.339-21.339c-11.785,0-21.339,9.553-21.339,21.339l9.66,170.566
	C423.134,468.234,432.687,477.788,444.472,477.788z"/>
<path style="fill:#919196;" d="M511.56,206.722c-0.378-1.674-9.318-41.165-13.596-54.832c-7.521-24.029-16.036-36.787-41.427-36.787
	h-47.715h-0.275h-47.715c-25.374,0-33.899,12.734-41.427,36.787c-4.278,13.666-13.218,53.157-13.596,54.832
	c-1.217,5.388,0.127,11.036,3.643,15.297c46.145,55.808,50.764,61.48,52.51,63.234v0.63h47.096h47.096v-1.242
	c2.304-2.589,9.83-11.904,51.764-62.622C511.433,217.758,512.779,212.11,511.56,206.722z M361.961,229.56l-19.38-23.484
	l14.857-53.534c0.272-0.98,1.153-1.665,2.17-1.687c1.292-0.028,2.354,1.011,2.354,2.304V229.56z M456.152,228.656v-75.922
	c0-1.058,0.873-1.907,1.93-1.879l0,0c0.826,0.022,1.541,0.581,1.762,1.377l14.943,53.844L456.152,228.656z"/>
<path style="fill:#838387;" d="M511.56,206.722c-0.378-1.674-9.318-41.165-13.596-54.832c-7.521-24.029-16.036-36.787-41.427-36.787
	h-47.478v170.78h47.094v-1.242c2.304-2.589,9.83-11.904,51.764-62.622C511.433,217.758,512.779,212.11,511.56,206.722z
	 M456.152,228.656v-75.922c0-1.058,0.873-1.907,1.93-1.879l0,0c0.826,0.022,1.541,0.581,1.762,1.377l14.943,53.844L456.152,228.656z
	"/>
<circle style="fill:#FFB69E;" cx="409.063" cy="66.903" r="36.854"/>
<polygon style="fill:#FFFFFF;" points="436.195,115.103 409.059,186.309 381.922,115.103 "/>
<path style="fill:#414B82;" d="M420.835,139.451l-6.04-10.986l5.242-9.533c0.44-0.8,0.425-1.773-0.04-2.559
	c-0.465-0.786-1.311-1.269-2.224-1.269h-17.415c-0.913,0-1.759,0.482-2.224,1.269c-0.465,0.786-0.481,1.759-0.04,2.559l5.224,9.502
	l-6.057,11.016c-0.833,1.514-1.103,3.274-0.764,4.969l3.765,18.805l8.798,23.085l8.767-23.003l3.774-18.889
	C421.937,142.724,421.667,140.965,420.835,139.451z"/>
<path style="fill:#1E2D64;" d="M409.059,186.308l8.767-23.003l3.774-18.889c0.338-1.694,0.068-3.452-0.765-4.967l-6.04-10.986
	l5.242-9.533c0.44-0.8,0.425-1.773-0.04-2.559c-0.465-0.786-1.311-1.269-2.223-1.269h-8.714v71.206H409.059z"/>
<path style="fill:#823214;" d="M183.873,329.677h-4.409v-45.232h-23.619v45.232h-4.302c-4.132,0-7.481,3.349-7.481,7.481v82.425
	c0,4.131,3.349,7.481,7.481,7.481h32.331c4.132,0,7.481-3.349,7.481-7.481v-82.425C191.354,333.026,188.004,329.677,183.873,329.677
	z"/>
<path style="fill:#692810;" d="M183.873,329.677h-4.409v-45.232h-11.81v142.619h16.22c4.132,0,7.481-3.349,7.481-7.481v-82.425
	C191.354,333.026,188.004,329.677,183.873,329.677z"/>
<rect x="155.848" y="284.443" style="fill:#373C41;" width="23.619" height="45.235"/>
<path style="fill:#5F6E9B;" d="M209.192,511.238c13.436,0,24.329-10.892,24.329-24.329l12.014-194.464
	c0-13.436-10.892-24.329-24.329-24.329s-24.329,10.892-24.329,24.329l-12.014,194.464
	C184.864,500.345,195.756,511.238,209.192,511.238z"/>
<g>
	<path style="fill:#414B82;" d="M290.95,511.238c13.436,0,24.329-10.892,24.329-24.329l-11.013-194.464
		c0-13.436-10.892-24.329-24.329-24.329c-13.436,0-24.329,10.892-24.329,24.329l11.013,194.464
		C266.621,500.345,277.514,511.238,290.95,511.238z"/>
	<path style="fill:#414B82;" d="M363.285,219.632c4.009-4.858,5.543-11.298,4.154-17.44c-0.432-1.909-10.624-46.933-15.502-62.514
		c-4.411-14.093-8.699-24.301-16.437-31.641c-9.57-9.077-20.937-10.301-30.795-10.301h-54.043h-0.672h-53.837
		c-26.735,0-48.594,21.415-48.726,47.738c0,0.034,0,0.068,0,0.102v148.946c0,11.197,9.077,20.274,20.274,20.274
		c11.197,0,20.274-9.077,20.274-20.274V145.641c0.043-3.856,3.93-7.358,8.178-7.358h0.725v154.161h107.387v-11.368L363.285,219.632z
		 M304.266,223.141v-84.703c0.008,0,0.021,0,0.038,0.001c2.231,0.049,4.167,1.541,4.787,3.684
		c3.328,11.506,13.668,47.448,16.422,59.333L304.266,223.141z"/>
</g>
<circle style="fill:#FFB69E;" cx="250.582" cy="42.781" r="42.019"/>
<path style="fill:#FFFFFF;" d="M187.981,284.522v10.458c0,11.198-9.077,20.274-20.274,20.274s-20.274-9.077-20.274-20.274v-10.458
	H187.981z"/>
<path style="fill:#FFB69E;" d="M187.981,294.458v0.522c0,11.198-9.077,20.274-20.274,20.274s-20.274-9.077-20.274-20.274v-0.522
	H187.981z"/>
<path style="fill:#1E2D64;" d="M367.438,202.192c-0.432-1.909-10.624-46.933-15.502-62.514
	c-4.411-14.093-8.699-24.301-16.437-31.641c-9.57-9.077-20.937-10.301-30.795-10.301h-54.042h-0.1v194.709h53.705v-11.368
	l59.018-61.444C367.292,214.774,368.826,208.334,367.438,202.192z M304.266,223.141v-84.703c0.008,0,0.021,0,0.038,0.001
	c2.231,0.049,4.167,1.541,4.787,3.684c3.328,11.506,13.668,47.448,16.422,59.331L304.266,223.141z"/>
<polygon style="fill:#FFFFFF;" points="281.513,97.736 250.575,178.919 219.635,97.736 "/>
<path style="fill:#FF3C3C;" d="M264.872,131.157c0.385-1.931,0.077-3.937-0.872-5.663l-6.887-12.525l5.976-10.869
	c1.077-1.959-0.342-4.364-2.581-4.364h-19.856c-2.236,0-3.659,2.403-2.581,4.364l5.956,10.833l-6.906,12.56
	c-0.949,1.726-1.258,3.734-0.871,5.666l4.292,21.44l10.03,26.32l9.995-26.226L264.872,131.157z"/>
<path style="fill:#DC1428;" d="M250.575,178.919l9.995-26.226l4.303-21.535c0.385-1.931,0.077-3.937-0.872-5.663l-6.887-12.525
	l5.976-10.869c1.077-1.959-0.342-4.364-2.581-4.364h-9.847h-0.1v81.149L250.575,178.919z"/>
<rect x="265.49" y="161.595" style="fill:#414B82;" width="24.029" height="7.008"/>
<g>
</g>
<g>
</g>
<g>
</g>
<g>
</g>
<g>
</g>
<g>
</g>
<g>
</g>
<g>
</g>
<g>
</g>
<g>
</g>
<g>
</g>
<g>
</g>
<g>
</g>
<g>
</g>
<g>
</g>
</svg>
