<?xml version="1.0" encoding="iso-8859-1"?>
<!-- Generator: Adobe Illustrator 19.0.0, SVG Export Plug-In . SVG Version: 6.00 Build 0)  -->
<svg version="1.1" id="Capa_1" xmlns="http://www.w3.org/2000/svg" xmlns:xlink="http://www.w3.org/1999/xlink" x="0px" y="0px"
	 viewBox="0 0 512.008 512.008" style="enable-background:new 0 0 512.008 512.008;" xml:space="preserve">
<g>
	<g transform="translate(1 1)">
		<path style="fill:#283593;" d="M502.467,434.204c0.005,18.107-7.186,35.474-19.989,48.277
			c-12.804,12.804-30.17,19.994-48.277,19.989c-4.294-0.005-8.579-0.405-12.8-1.195c-32.188-6.152-55.467-34.302-55.467-67.072
			s23.279-60.92,55.467-67.072c4.221-0.79,8.506-1.19,12.8-1.195c18.107-0.005,35.474,7.186,48.277,19.989
			C495.281,398.73,502.472,416.097,502.467,434.204z"/>
		<ellipse style="fill:#3F51B5;" cx="421.4" cy="434.204" rx="55.467" ry="67.072"/>
		<circle style="fill:#CFD8DC;" cx="434.2" cy="425.671" r="25.6"/>
		<path style="fill:#00BCD4;" d="M468.333,480.455v12.8c-21.097,12.288-47.17,12.288-68.267,0v-12.8
			c1.464-17.435,16.683-30.447,34.133-29.184c8.798-0.122,17.344,2.939,24.064,8.619
			C464.521,464.899,468.214,472.441,468.333,480.455z"/>
		<path style="fill:#283593;" d="M144.067,434.204c0.005,18.107-7.186,35.474-19.989,48.277s-30.17,19.994-48.277,19.989
			c-4.294-0.005-8.579-0.405-12.8-1.195c-32.188-6.152-55.467-34.302-55.467-67.072S30.812,373.284,63,367.132
			c4.221-0.79,8.506-1.19,12.8-1.195c18.107-0.005,35.474,7.186,48.277,19.989S144.072,416.097,144.067,434.204z"/>
		<ellipse style="fill:#3F51B5;" cx="63" cy="434.204" rx="55.467" ry="67.072"/>
		<circle style="fill:#CFD8DC;" cx="75.8" cy="425.671" r="25.6"/>
		<path style="fill:#E91E63;" d="M109.933,480.455v12.8c-21.097,12.288-47.17,12.288-68.267,0v-12.8
			c1.464-17.435,16.683-30.447,34.133-29.184c8.798-0.122,17.344,2.939,24.064,8.619
			C106.121,464.899,109.814,472.441,109.933,480.455z"/>
		<path style="fill:#283593;" d="M314.733,340.338c0.005,18.107-7.186,35.474-19.989,48.277s-30.17,19.994-48.277,19.989
			c-4.294-0.005-8.579-0.405-12.8-1.195c-32.188-6.152-55.467-34.302-55.467-67.072s23.279-60.92,55.467-67.072
			c4.221-0.79,8.506-1.19,12.8-1.195c18.107-0.005,35.474,7.186,48.277,19.989C307.548,304.864,314.738,322.231,314.733,340.338z"/>
		<ellipse style="fill:#3F51B5;" cx="233.667" cy="340.338" rx="55.467" ry="67.072"/>
		<circle style="fill:#CFD8DC;" cx="246.467" cy="331.804" r="25.6"/>
		<path style="fill:#FFEB3A;" d="M280.6,386.588v12.8c-21.097,12.288-47.17,12.288-68.267,0v-12.8
			c1.464-17.435,16.683-30.447,34.133-29.184c8.798-0.122,17.344,2.939,24.064,8.619C276.788,371.032,280.48,378.574,280.6,386.588z
			"/>
		<path style="fill:#FFE0B2;" d="M442.392,19.57c-24.678,0.049-49.333-1.49-73.813-4.608c-26.795-3.413-61.355-7.424-75.605-7.424
			c-24.491,0-73.643,72.277-85.931,108.373c-8.021,23.723-19.285,62.891-20.309,87.125c-0.125,5.666,2.059,11.139,6.05,15.162
			c3.991,4.023,9.446,6.251,15.113,6.172c12.971,0,19.883-12.715,23.637-23.211c0-0.085,0.085-0.171,0.085-0.341
			c0.171,5.035,2.901,44.032,45.568,25.259c1.195-0.512,2.389-1.024,3.584-1.621l1.194-0.683c0.461,0.91,0.974,1.794,1.536,2.645
			c1.041,1.416,2.182,2.757,3.413,4.011c10.26,9.984,26.604,9.984,36.864,0l18.432-18.091
			c14.592-14.336,55.211-43.947,75.264-59.307c29.662-0.82,58.74-8.44,84.992-22.272V19.57H442.392z M342.211,140.06l-48.299,47.36
			c4.011-36.949,23.979-82.176,32.171-99.84c5.422-2.899,10.096-7.018,13.653-12.032c11.414,9.891,19.936,22.689,24.661,37.035
			C357.662,122.256,350.248,131.438,342.211,140.06z"/>
		<g>
			<path style="fill:#BFA885;" d="M502.467,19.57v111.189c-26.252,13.832-55.33,21.452-84.992,22.272
				c-20.053,15.36-60.672,44.971-75.264,59.307l-18.432,18.091c-8.35,8.14-21.065,9.808-31.232,4.096
				c2.086-1.052,3.988-2.435,5.632-4.096l18.432-18.091c14.592-14.336,55.211-43.947,75.264-59.307
				c29.662-0.82,58.74-8.44,84.992-22.272V19.57H502.467z"/>
			<path style="fill:#BFA885;" d="M326.083,87.58c-8.192,17.664-28.16,62.891-32.171,99.84l-6.997,6.912
				c-4.895,4.705-7.641,11.215-7.595,18.005c-0.018,3.965,0.888,7.88,2.645,11.435l-1.194,0.683
				c-1.195,0.597-2.389,1.109-3.584,1.621c-42.667,18.773-45.397-20.224-45.568-25.259v-0.085
				c6.485-17.323,21.419-62.805,51.285-97.792c15.258-2.141,29.921-7.367,43.093-15.36H326.083z"/>
		</g>
	</g>
	<g>
		<path d="M503.475,12.013h-60.109c-24.322,0.054-48.623-1.463-72.75-4.542c-26.775-3.408-61.796-7.467-76.613-7.467
			c-31.942,0-82.492,80.133-94.058,114.2c-10.451,28.886-17.407,58.919-20.721,89.458c-0.339,7.823,2.561,15.441,8.017,21.058
			c5.672,5.861,13.481,9.169,21.637,9.167c8.088-0.061,15.745-3.654,20.961-9.834c2.549,4.916,6.346,9.075,11.01,12.06
			c5.067,3.102,10.914,4.695,16.854,4.592c7.761-0.268,15.393-2.06,22.461-5.275c0.602,0.691,1.097,1.452,1.759,2.1
			c13.592,13.2,35.216,13.2,48.808,0l18.429-18.075c11.138-10.917,39.058-31.917,59.446-47.25c4.787-3.606,9.097-6.86,12.93-9.761
			c29.958-1.309,59.261-9.198,85.828-23.106c0.343-0.233,0.668-0.492,0.972-0.775c0.498-0.318,0.962-0.687,1.382-1.102
			c0.645-0.87,1.212-1.797,1.692-2.768c0.182-0.576,0.302-1.17,0.357-1.771c0.109-0.388,0.189-0.783,0.239-1.183V20.663
			l-0.012-0.058l0.012-0.058c0.001-2.264-0.897-4.435-2.498-6.035S505.739,12.011,503.475,12.013z M249.921,221.654
			c-5.364-4.625-8.515-11.308-8.67-18.389l1.245-3.403c10.345-31.709,25.909-61.469,46.05-88.055
			c7.324-1.259,14.521-3.166,21.508-5.699c-10.935,25.035-18.735,51.325-23.221,78.272l-4.911,4.816
			c-6.519,6.348-10.188,15.067-10.171,24.166c0.002,2.299,0.237,4.591,0.702,6.843C265.526,223.998,257.275,224.529,249.921,221.654
			z M333.809,94.38c2.546-1.659,4.983-3.48,7.294-5.454c6.367,6.71,11.387,14.581,14.788,23.183
			c-5.719,8.024-11.958,15.664-18.679,22.869l-28.832,28.271C314.905,139.619,323.411,116.581,333.809,94.38z M398.35,158.563
			c-21.921,16.492-49.204,37.008-61.137,48.708l-18.429,18.075c-6.941,6.725-17.967,6.725-24.908,0
			c-3.234-3.148-5.058-7.47-5.058-11.983c0-4.513,1.824-8.835,5.058-11.983l55.287-54.217
			c13.708-15.654,26.382-32.183,37.942-49.483c2.651-3.898,1.64-9.207-2.258-11.858c-3.898-2.651-9.207-1.64-11.858,2.258
			c-0.071,0.107-2.3,3.379-5.663,8.166c-5.486-9.733-12.516-18.511-20.816-25.991c-3.131-2.81-7.856-2.88-11.069-0.164l-0.162,0.119
			c-0.287,0.183-0.562,0.385-0.823,0.603c-0.281,0.387-0.528,0.798-0.737,1.228c-0.202,0.214-0.393,0.438-0.572,0.672
			c-2.958,3.522-6.562,6.446-10.617,8.617c-12.199,7.335-25.738,12.162-39.825,14.2c-0.354,0.099-0.702,0.223-1.039,0.37
			c-1.237,0.214-2.371,0.825-3.229,1.742c-0.354,0.236-0.69,0.499-1.003,0.788c-28.417,33.308-43.658,75.392-50.983,95.617
			l-1.132,3.101c-0.415,0.747-0.712,1.553-0.88,2.391c-4.181,11.464-9.412,17.283-15.558,17.283
			c-3.513,0.031-6.884-1.382-9.325-3.908c-2.22-2.283-3.406-5.377-3.279-8.558c3.25-28.906,9.907-57.325,19.833-84.667
			c13.35-39.317,61.396-102.617,77.896-102.617c10.863,0,37.304,2.6,74.446,7.333c24.848,3.144,49.871,4.705,74.917,4.675h51.575
			v97.323c-23.806,11.885-49.927,18.41-76.525,19.118c-0.346,0.049-0.689,0.121-1.026,0.215c-1.142,0.101-2.241,0.479-3.203,1.103
			c-0.308,0.126-0.607,0.27-0.897,0.433C409.083,150.488,403.958,154.346,398.35,158.563z"/>
		<path d="M76.8,512.004c42.415,0,76.8-34.385,76.8-76.8s-34.385-76.8-76.8-76.8S0,392.789,0,435.204
			C0.048,477.6,34.404,511.956,76.8,512.004z M51.2,489.091v-7.637c1.521-12.687,12.879-21.849,25.6-20.65
			c6.797-0.124,13.405,2.234,18.587,6.633c4.326,3.381,6.901,8.528,7.013,14.017v7.637C86.223,496.887,67.377,496.887,51.2,489.091
			L51.2,489.091z M59.733,426.671c0-9.426,7.641-17.067,17.067-17.067s17.067,7.641,17.067,17.067s-7.641,17.067-17.067,17.067
			C67.379,443.727,59.744,436.092,59.733,426.671z M76.8,375.471c24.165-0.012,45.954,14.543,55.195,36.871
			c9.241,22.328,4.112,48.025-12.993,65.094c-1.105-8.969-5.58-17.182-12.518-22.973c-1.689-1.433-3.491-2.728-5.388-3.872
			c13.2-13.37,13.115-34.894-0.191-48.159c-13.306-13.265-34.83-13.284-48.159-0.043c-13.329,13.241-13.453,34.765-0.277,48.159
			c-9.753,5.76-16.337,15.663-17.876,26.884c-17.102-17.07-22.229-42.766-12.987-65.092S52.636,375.459,76.8,375.471z"/>
		<path d="M247.467,264.538c-42.415,0-76.8,34.385-76.8,76.8s34.385,76.8,76.8,76.8s76.8-34.385,76.8-76.8
			C324.219,298.942,289.862,264.585,247.467,264.538z M221.867,395.225v-7.637c1.521-12.687,12.879-21.849,25.6-20.65
			c6.797-0.124,13.405,2.234,18.587,6.633c4.326,3.381,6.901,8.528,7.013,14.017v7.637
			C256.89,403.02,238.043,403.02,221.867,395.225L221.867,395.225z M230.4,332.804c0-9.426,7.641-17.067,17.067-17.067
			s17.067,7.641,17.067,17.067c0,9.426-7.641,17.067-17.067,17.067C238.045,349.86,230.411,342.225,230.4,332.804z M289.669,383.569
			c-1.105-8.969-5.58-17.182-12.518-22.973c-1.689-1.433-3.491-2.728-5.388-3.872c13.2-13.37,13.115-34.894-0.191-48.159
			s-34.83-13.284-48.159-0.043c-13.329,13.241-13.453,34.765-0.276,48.159c-9.753,5.76-16.337,15.663-17.876,26.884
			c-17.102-17.077-22.229-42.777-12.988-65.109c9.241-22.332,31.029-36.895,55.197-36.894c24.168,0.001,45.955,14.566,55.194,36.899
			C311.902,340.794,306.773,366.494,289.669,383.569L289.669,383.569z"/>
		<path d="M435.2,358.404c-42.415,0-76.8,34.385-76.8,76.8s34.385,76.8,76.8,76.8s76.8-34.385,76.8-76.8
			C511.952,392.809,477.596,358.452,435.2,358.404z M409.6,489.091v-7.636c1.52-12.687,12.878-21.849,25.6-20.65
			c6.796-0.122,13.404,2.232,18.592,6.625c4.322,3.387,6.895,8.535,7.008,14.025v7.636
			C444.624,496.887,425.776,496.887,409.6,489.091z M418.133,426.671c0-9.426,7.641-17.067,17.067-17.067
			c9.426,0,17.067,7.641,17.067,17.067s-7.641,17.067-17.067,17.067C425.779,443.725,418.146,436.092,418.133,426.671z
			 M477.402,477.434c-1.103-8.969-5.579-17.183-12.518-22.972c-1.69-1.431-3.493-2.725-5.39-3.869
			c13.202-13.369,13.119-34.894-0.186-48.16c-13.305-13.267-34.83-13.287-48.161-0.046c-13.331,13.241-13.455,34.766-0.278,48.16
			c-9.752,5.76-16.336,15.662-17.874,26.883c-17.103-17.077-22.229-42.777-12.989-65.109c9.241-22.332,31.029-36.895,55.197-36.894
			c24.169,0.001,45.955,14.566,55.194,36.899C499.636,434.659,494.507,460.359,477.402,477.434L477.402,477.434z"/>
	</g>
</g>
<g>
</g>
<g>
</g>
<g>
</g>
<g>
</g>
<g>
</g>
<g>
</g>
<g>
</g>
<g>
</g>
<g>
</g>
<g>
</g>
<g>
</g>
<g>
</g>
<g>
</g>
<g>
</g>
<g>
</g>
</svg>
