<?xml version="1.0" encoding="iso-8859-1"?>
<!-- Generator: Adobe Illustrator 19.0.0, SVG Export Plug-In . SVG Version: 6.00 Build 0)  -->
<svg version="1.1" id="Capa_1" xmlns="http://www.w3.org/2000/svg" xmlns:xlink="http://www.w3.org/1999/xlink" x="0px" y="0px"
	 viewBox="0 0 434 434" style="enable-background:new 0 0 434 434;" xml:space="preserve">
<polygon style="fill:#FDC75B;" points="423.9,368.112 423.9,415.712 10.1,415.712 10.1,368.112 50.8,368.112 114.9,368.112 
	183,368.112 251,368.112 319.1,368.112 387.6,368.112 "/>
<g>
	<path style="fill:#ED664C;" d="M415.8,103.013v45.7h-28.2h-68.5H251h-68h-68.1h-64H22.6v-45.7l196.6-84.2L415.8,103.013z
		 M242.1,88.713c0-12.6-10.2-22.8-22.8-22.8c-12.6,0-22.8,10.2-22.8,22.8s10.2,22.8,22.8,22.8
		C231.9,111.513,242.1,101.313,242.1,88.713z"/>
	<circle style="fill:#ED664C;" cx="219.2" cy="88.713" r="22.8"/>
</g>
<path d="M219.2,55.812c-18.1,0-32.8,14.7-32.8,32.8s14.7,32.8,32.8,32.8s32.8-14.7,32.8-32.8
	C252.1,70.613,237.3,55.812,219.2,55.812z M219.2,101.513c-7.1,0-12.8-5.8-12.8-12.8s5.8-12.8,12.8-12.8s12.8,5.8,12.8,12.8
	S226.3,101.513,219.2,101.513z"/>
<path d="M423.9,358.212H398v-200h17.8c5.5,0,10.2-4,10.2-9.5v-45.7c0-4-2.5-7.6-6.1-9.2l-196.7-84.2c-2.5-1.1-5.4-1.1-7.9,0
	l-196.4,84.2c-3.7,1.6-5.9,5.2-5.9,9.2v45.7c0,5.5,4.1,9.5,9.6,9.5H41v200H10.1c-5.5,0-10.1,4.4-10.1,9.9v47.6
	c0,5.5,4.6,9.5,10.1,9.5h413.8c5.5,0,10.1-4,10.1-9.5v-47.6C434,362.612,429.4,358.212,423.9,358.212z M378,358.212h-49v-200h49
	V358.212z M173,158.212v200h-48v-200H173z M193,158.212h48v200h-48V158.212z M261,158.212h48v200h-48V158.212z M33,109.612
	l186.5-79.9l186.5,79.9v28.6H33V109.612z M61,158.212h44v200H61V158.212z M414,405.212H20v-27h394V405.212z"/>
<g>
</g>
<g>
</g>
<g>
</g>
<g>
</g>
<g>
</g>
<g>
</g>
<g>
</g>
<g>
</g>
<g>
</g>
<g>
</g>
<g>
</g>
<g>
</g>
<g>
</g>
<g>
</g>
<g>
</g>
</svg>
