<svg height="512pt" viewBox="-91 0 512 512" width="512pt" xmlns="http://www.w3.org/2000/svg"><path d="m289.652344 504.5h-249.523438c-18.019531 0-32.628906-14.609375-32.628906-32.628906v-321.339844c0-18.023438 14.609375-32.628906 32.628906-32.628906h249.523438c18.023437 0 32.628906 14.609375 32.628906 32.628906v321.339844c0 18.019531-14.609375 32.628906-32.628906 32.628906zm0 0" fill="#f7ef87"/><path d="m107.398438 117.898438h-67.269532c-18.019531 0-32.628906 14.609374-32.628906 32.628906v321.34375c0 18.019531 14.609375 32.628906 32.628906 32.628906h140.621094c-68.507812-76.429688-96.214844-268.230469-73.351562-386.601562zm0 0" fill="#efd176"/><path d="m164.890625 331.277344c-49.449219 0-101.847656-33.851563-157.390625-22.792969v163.386719c0 18.019531 14.609375 32.628906 32.628906 32.628906h249.523438c18.023437 0 32.628906-14.609375 32.628906-32.628906v-163.386719c-55.542969-11.058594-107.941406 22.792969-157.390625 22.792969zm0 0" fill="#e1b89a"/><path d="m108.863281 321.386719c-32.570312-8.992188-66.339843-19.875-101.363281-12.902344v163.386719c0 18.019531 14.609375 32.628906 32.628906 32.628906h140.621094c-35.128906-39.1875-59.527344-108.707031-71.886719-183.113281zm0 0" fill="#d2996f"/><path d="m186.339844 28.949219c0 11.84375-9.601563 21.445312-21.449219 21.445312-11.84375 0-21.449219-9.601562-21.449219-21.445312 0-11.847657 9.605469-21.449219 21.449219-21.449219 11.847656 0 21.449219 9.601562 21.449219 21.449219zm0 0" fill="#e26e7e"/><path d="m102.6875 98h-18.234375c-5.042969 0-9.136719 4.089844-9.136719 9.136719v34.226562c0 5.046875 4.09375 9.140625 9.136719 9.140625h18.234375c5.046875 0 9.136719-4.09375 9.136719-9.140625v-34.226562c0-5.046875-4.089844-9.136719-9.136719-9.136719zm0 0" fill="#6a96d7"/><path d="m227.09375 98h18.230469c5.046875 0 9.140625 4.089844 9.140625 9.136719v34.226562c0 5.046875-4.09375 9.140625-9.140625 9.140625h-18.230469c-5.046875 0-9.136719-4.09375-9.136719-9.140625v-34.226562c0-5.046875 4.089844-9.136719 9.136719-9.136719zm0 0" fill="#8eafe2"/><path d="m185.628906 187.585938-17.8125 17.8125c-1.617187 1.617187-4.234375 1.617187-5.851562 0l-17.8125-17.808594c-3.535156-3.535156-9.265625-3.535156-12.800782 0l-15.46875 15.46875c-3.535156 3.535156-3.535156 9.265625 0 12.800781l17.8125 17.8125c1.613282 1.613281 1.613282 4.234375 0 5.851563l-17.8125 17.8125c-3.535156 3.53125-3.535156 9.265624 0 12.800781l15.46875 15.46875c3.535157 3.535156 9.265626 3.535156 12.800782 0l17.8125-17.8125c1.617187-1.613281 4.234375-1.613281 5.851562 0l17.8125 17.8125c3.535156 3.535156 9.265625 3.535156 12.800782 0l15.46875-15.46875c3.535156-3.535157 3.535156-9.265625 0-12.800781l-17.808594-17.8125c-1.617188-1.617188-1.617188-4.238282 0-5.851563l17.808594-17.8125c3.535156-3.535156 3.535156-9.265625 0-12.800781l-15.46875-15.46875c-3.535157-3.539063-9.265626-3.539063-12.800782-.003906zm0 0" fill="#e26e7e"/><path d="m274.148438 237.125c-1.917969 0-3.839844-.734375-5.304688-2.195312-2.929688-2.933594-2.929688-7.679688 0-10.609376l8.210938-8.210937c2.929687-2.929687 7.679687-2.929687 10.609374 0 2.929688 2.929687 2.929688 7.675781 0 10.605469l-8.214843 8.214844c-1.460938 1.460937-3.382813 2.195312-5.300781 2.195312zm0 0" fill="#efd176"/><path d="m272.769531 268.34375c-1.917969 0-3.835937-.734375-5.300781-2.195312-2.929688-2.929688-2.929688-7.679688 0-10.609376l11.484375-11.484374c2.929687-2.925782 7.675781-2.925782 10.605469 0 2.929687 2.929687 2.929687 7.679687 0 10.605468l-11.484375 11.488282c-1.464844 1.460937-3.382813 2.195312-5.304688 2.195312zm0 0" fill="#efd176"/><path d="m47.914062 369.332031c-1.917968 0-3.839843-.730469-5.304687-2.195312-2.925781-2.929688-2.925781-7.675781 0-10.605469l8.214844-8.214844c2.929687-2.925781 7.675781-2.925781 10.605469 0 2.929687 2.929688 2.929687 7.679688 0 10.609375l-8.210938 8.210938c-1.464844 1.464843-3.382812 2.195312-5.304688 2.195312zm0 0" fill="#e1b89a"/><path d="m236.945312 438.539062h-144.109374c-4.140626 0-7.5 3.359376-7.5 7.5 0 4.144532 3.359374 7.5 7.5 7.5h144.109374c4.140626 0 7.5-3.355468 7.5-7.5 0-4.140624-3.359374-7.5-7.5-7.5zm0-69.9375h-144.109374c-4.140626 0-7.5 3.359376-7.5 7.5 0 4.144532 3.359374 7.5 7.5 7.5h144.109374c4.140626 0 7.5-3.355468 7.5-7.5 0-4.140624-3.359374-7.5-7.5-7.5zm0 34.96875h-144.109374c-4.140626 0-7.5 3.359376-7.5 7.5 0 4.144532 3.359374 7.5 7.5 7.5h144.109374c4.140626 0 7.5-3.355468 7.5-7.5 0-4.140624-3.359374-7.5-7.5-7.5zm52.707032-293.171874h-27.6875v-3.261719c0-9.175781-7.464844-16.636719-16.640625-16.636719h-18.230469c-2.09375 0-4.089844.402344-5.9375 1.113281l-33.519531-44.792969c3.878906-4.925781 6.203125-11.128906 6.203125-17.871093 0-15.964844-12.988282-28.949219-28.949219-28.949219s-28.949219 12.984375-28.949219 28.949219c0 6.742187 2.324219 12.949219 6.207032 17.875l-33.519532 44.789062c-1.851562-.707031-3.847656-1.113281-5.941406-1.113281h-18.230469c-9.175781 0-16.636719 7.464844-16.636719 16.636719v3.265625h-27.691406c-22.125 0-40.128906 18-40.128906 40.128906v16.804688c0 4.140624 3.359375 7.5 7.5 7.5 4.144531 0 7.5-3.359376 7.5-7.5v-16.804688c0-13.855469 11.273438-25.128906 25.128906-25.128906h27.691406v15.964844c0 9.171874 7.460938 16.636718 16.636719 16.636718h18.230469c9.175781 0 16.636719-7.464844 16.636719-16.636718v-15.96875h91.132812v15.964843c0 9.175781 7.464844 16.640625 16.636719 16.640625h18.234375c9.171875 0 16.636719-7.464844 16.636719-16.640625v-15.964843h27.6875c13.859375 0 25.128906 11.273437 25.128906 25.128906v149.167968c-30.71875-3.753906-59.886719 4.402344-88.183594 12.324219-21.605468 6.046875-42.015625 11.757813-61.707031 11.757813s-40.101563-5.710938-61.707031-11.757813c-28.292969-7.917969-57.460938-16.078125-88.183594-12.324219v-97.078124c0-4.144532-3.355469-7.5-7.5-7.5s-7.5 3.355468-7.5 7.5v105.78125.085937 163.386719c0 22.125 18.003906 40.128906 40.128906 40.128906h249.523438c13.996094 0 27.183594-7.457031 34.40625-19.464844 2.132812-3.546875.988281-8.15625-2.5625-10.292968-3.550782-2.132813-8.15625-.988282-10.292969 2.5625-4.59375 7.636718-12.648437 12.195312-21.550781 12.195312h-249.523438c-13.855468 0-25.128906-11.273438-25.128906-25.128906v-157.046875c28.46875-3.9375 56.742188 3.96875 84.140625 11.640625 21.632813 6.054687 44 12.3125 65.75 12.3125s44.117187-6.261719 65.75-12.3125c27.398437-7.667969 55.667969-15.574219 84.140625-11.636719v139.890625c0 4.140625 3.359375 7.5 7.5 7.5 4.144531 0 7.5-3.359375 7.5-7.5v-304.191406c0-22.125-18-40.128906-40.128906-40.128906zm-185.328125 30.964843c0 .902344-.734375 1.640625-1.636719 1.640625h-18.234375c-.898437 0-1.636719-.734375-1.636719-1.640625v-34.226562c0-.902344.734375-1.636719 1.636719-1.636719h18.234375c.902344 0 1.636719.734375 1.636719 1.636719zm60.566406-126.363281c7.691406 0 13.949219 6.257812 13.949219 13.949219 0 7.6875-6.257813 13.945312-13.949219 13.945312s-13.949219-6.257812-13.949219-13.945312c0-7.691407 6.257813-13.949219 13.949219-13.949219zm45.566406 92.136719v3.265625h-91.132812v-3.265625c0-1.410157-.195313-2.769531-.527344-4.078125l35.351563-47.238282c3.324218 1.332032 6.949218 2.074219 10.742187 2.074219 3.796875 0 7.417969-.738281 10.742187-2.074219l35.351563 47.238282c-.332031 1.308594-.527344 2.667968-.527344 4.078125zm36.507813 34.226562c0 .902344-.734375 1.640625-1.640625 1.640625h-18.230469c-.902344 0-1.636719-.734375-1.636719-1.640625v-34.226562c0-.902344.734375-1.636719 1.636719-1.636719h18.230469c.902343 0 1.640625.734375 1.640625 1.636719zm0 0"/></svg>