<svg id="line_color" height="512" viewBox="0 0 74 74" width="512" xmlns="http://www.w3.org/2000/svg" data-name="line color"><path d="m50.669 31.1a12.924 12.924 0 1 0 -8.564 0z" fill="#e1e6e9"/><path d="m59.35 18.92a12.786 12.786 0 0 1 -4.6 9.87 12.814 12.814 0 0 0 2.24-7.27 12.941 12.941 0 0 0 -21.25-9.91 12.944 12.944 0 0 1 23.61 7.31z" fill="#d5d6db"/><path d="m54.212 41.283h-16.034l1.505 27.951a2.33 2.33 0 0 0 2.326 2.2h8.372a2.329 2.329 0 0 0 2.326-2.2z" fill="#9297ab"/><path d="m50.381 71.939h-8.371a2.831 2.831 0 0 1 -2.826-2.677l-1.5-27.952a.5.5 0 0 1 .5-.527h16.028a.5.5 0 0 1 .5.527l-1.5 27.951a2.828 2.828 0 0 1 -2.831 2.678zm-11.676-30.156 1.477 27.425a1.831 1.831 0 0 0 1.828 1.731h8.371a1.83 1.83 0 0 0 1.827-1.731l1.477-27.425z" fill="#323c6b"/><rect fill="#05afd6" height="22.011" rx="1.242" width="10.359" x="17.758" y="42.978"/><path d="m26.875 43.228h-7.875a1.242 1.242 0 0 0 -1.242 1.242v2.378a1.242 1.242 0 0 1 1.242-1.242h7.875a1.242 1.242 0 0 1 1.242 1.242v-2.378a1.242 1.242 0 0 0 -1.242-1.242z" fill="#27a2db"/><path d="m50.69 64.19h-15.97a11.4 11.4 0 0 1 -2.73-.34l-3.88-1v-17.94h.06a8.621 8.621 0 0 0 4.89-1.44 13.483 13.483 0 0 1 6.29-2.18h3.76l4.14 4.33a2.582 2.582 0 0 1 .56.88l2.38 2z" fill="#fcd462"/><path d="m50.689 64.69h-15.969a11.864 11.864 0 0 1 -2.85-.355l-3.885-1a.5.5 0 0 1 -.375-.484v-17.941a.5.5 0 0 1 .5-.5 8.156 8.156 0 0 0 4.668-1.353 13.87 13.87 0 0 1 6.546-2.266h3.786a.5.5 0 0 1 .362.154l4.139 4.33a3.1 3.1 0 0 1 .617.923l2.283 1.92a.5.5 0 0 1 .178.367l.5 15.69a.5.5 0 0 1 -.5.516zm-22.079-2.228 3.505.9a10.874 10.874 0 0 0 2.6.324h15.458l-.473-14.947-2.208-1.856a.5.5 0 0 1 -.146-.206 2.071 2.071 0 0 0 -.453-.71l-3.993-4.177h-3.55a13.107 13.107 0 0 0 -6 2.09 9 9 0 0 1 -4.74 1.52z" fill="#323c6b"/><path d="m50.694 64.69h-15.978a11.484 11.484 0 0 1 -2.854-.36l-3.872-.993a.5.5 0 0 1 -.376-.484v-17.943a.5.5 0 0 1 .5-.5 8.123 8.123 0 0 0 4.663-1.351 13.9 13.9 0 0 1 6.543-2.267h3.792a.5.5 0 0 1 .362.154l4.14 4.33a3.108 3.108 0 0 1 -.031 4.348 3.043 3.043 0 0 1 -2.238.932 3.1 3.1 0 0 1 -2.231-.95l-2.114-2.182h-4.32a.5.5 0 0 1 0-1h4.532a.5.5 0 0 1 .359.153l2.26 2.334a2.1 2.1 0 0 0 1.516.645h.008a2.122 2.122 0 0 0 1.535-3.588l-3.99-4.176h-3.554a13.1 13.1 0 0 0 -6 2.089 8.953 8.953 0 0 1 -4.732 1.52v17.064l3.5.9a10.458 10.458 0 0 0 2.606.329h15.974a.5.5 0 0 1 0 1z" fill="#323c6b"/><path d="m55.682 61.9a2.284 2.284 0 0 1 -2.29 2.291h-3.292a2.291 2.291 0 1 1 0-4.582h3.293a2.288 2.288 0 0 1 2.289 2.291z" fill="#fcd462"/><path d="m55.682 57.318a2.284 2.284 0 0 1 -2.291 2.291h-3.291a2.294 2.294 0 0 1 -1.623-3.909 2.239 2.239 0 0 1 1.622-.679h3.292a2.3 2.3 0 0 1 2.291 2.297z" fill="#fcd462"/><path d="m55.682 52.726a2.284 2.284 0 0 1 -2.29 2.291h-3.292a2.291 2.291 0 1 1 0-4.582h3.293a2.288 2.288 0 0 1 2.289 2.291z" fill="#fcd462"/><path d="m55.682 48.144a2.284 2.284 0 0 1 -2.291 2.291h-3.291a2.294 2.294 0 0 1 -1.622-3.913 2.239 2.239 0 0 1 1.622-.679h3.292a2.3 2.3 0 0 1 2.29 2.301z" fill="#fcd462"/><path d="m55.492 61.9a2.286 2.286 0 0 1 -2.292 2.29h-1.83a2.288 2.288 0 0 0 2.289-2.29 2.282 2.282 0 0 0 -2.289-2.29h1.83a2.283 2.283 0 0 1 2.292 2.29z" fill="#f7be56"/><path d="m55.492 57.32a2.286 2.286 0 0 1 -2.292 2.29h-1.83a2.3 2.3 0 0 0 0-4.59h1.83a2.292 2.292 0 0 1 2.292 2.3z" fill="#f7be56"/><path d="m55.492 52.73a2.286 2.286 0 0 1 -2.292 2.29h-1.83a2.3 2.3 0 0 0 0-4.59h1.83a2.292 2.292 0 0 1 2.292 2.3z" fill="#f7be56"/><path d="m55.492 48.14a2.269 2.269 0 0 1 -2.292 2.29h-1.83a2.3 2.3 0 0 0 0-4.59h1.83a2.3 2.3 0 0 1 2.292 2.3z" fill="#f7be56"/><g fill="#323c6b"><path d="m40.78 8.68a.43.43 0 0 1 -.19-.04.525.525 0 0 1 -.16-.1.647.647 0 0 1 -.111-.17.612.612 0 0 1 -.039-.19.677.677 0 0 1 .039-.19.473.473 0 0 1 .111-.16.558.558 0 0 1 .16-.11.507.507 0 0 1 .55.11.645.645 0 0 1 .11.16.628.628 0 0 1 .03.19.582.582 0 0 1 -.03.19.991.991 0 0 1 -.11.17.524.524 0 0 1 -.36.14z"/><path d="m44.05 7.5a.509.509 0 0 1 -.35-.15.475.475 0 0 1 -.15-.36.433.433 0 0 1 .04-.19.4.4 0 0 1 .11-.16.5.5 0 0 1 .7 0 .575.575 0 0 1 .111.16.646.646 0 0 1 .04.19.711.711 0 0 1 -.04.2.575.575 0 0 1 -.111.16.505.505 0 0 1 -.35.15z"/><path d="m35.4 14.19a.507.507 0 0 1 -.359-.15.645.645 0 0 1 -.11-.16.582.582 0 0 1 -.031-.19.629.629 0 0 1 .031-.19.645.645 0 0 1 .11-.16.507.507 0 0 1 .55-.11.426.426 0 0 1 .16.11.442.442 0 0 1 .109.16.615.615 0 0 1 .04.19.56.56 0 0 1 -.04.19.442.442 0 0 1 -.109.16.487.487 0 0 1 -.351.15z"/><path d="m38.66 13a.406.406 0 0 1 -.19-.04.435.435 0 0 1 -.16-.1.386.386 0 0 1 -.11-.17.406.406 0 0 1 -.04-.19.469.469 0 0 1 .15-.35.457.457 0 0 1 .16-.11.5.5 0 0 1 .38 0 .457.457 0 0 1 .16.11.473.473 0 0 1 .15.35.418.418 0 0 1 -.04.19.386.386 0 0 1 -.11.17.548.548 0 0 1 -.35.14z"/><path d="m41.92 11.81a.634.634 0 0 1 -.191-.03.986.986 0 0 1 -.16-.11.528.528 0 0 1 -.149-.35.619.619 0 0 1 .04-.2.59.59 0 0 1 .109-.16.6.6 0 0 1 .16-.11.508.508 0 0 1 .551.11 1.027 1.027 0 0 1 .11.16.647.647 0 0 1 .04.2.55.55 0 0 1 -.15.35.508.508 0 0 1 -.36.14z"/><path d="m45.189 10.63a.584.584 0 0 1 -.189-.04.6.6 0 0 1 -.17-.11.562.562 0 0 1 -.1-.16.448.448 0 0 1 -.04-.19.418.418 0 0 1 .04-.19.5.5 0 0 1 .1-.17.573.573 0 0 1 .17-.1.5.5 0 0 1 .38 0 .55.55 0 0 1 .16.1.483.483 0 0 1 .109.17.56.56 0 0 1 .04.19.615.615 0 0 1 -.04.19.548.548 0 0 1 -.109.16.586.586 0 0 1 -.16.11.652.652 0 0 1 -.191.04z"/><path d="m48.45 9.44a.639.639 0 0 1 -.19-.04.457.457 0 0 1 -.16-.11.572.572 0 0 1 -.11-.16.433.433 0 0 1 -.04-.19.406.406 0 0 1 .04-.19.619.619 0 0 1 .11-.17.435.435 0 0 1 .16-.1.5.5 0 0 1 .38 0 .435.435 0 0 1 .16.1.452.452 0 0 1 .11.17.418.418 0 0 1 .04.19.448.448 0 0 1 -.04.19.419.419 0 0 1 -.11.16.457.457 0 0 1 -.16.11.585.585 0 0 1 -.19.04z"/><path d="m51.72 8.25a.479.479 0 0 1 -.361-.15.468.468 0 0 1 -.109-.16.56.56 0 0 1 -.04-.19.615.615 0 0 1 .04-.19.468.468 0 0 1 .109-.16.509.509 0 0 1 .551-.11.408.408 0 0 1 .159.11.675.675 0 0 1 .111.16.471.471 0 0 1 0 .38.675.675 0 0 1 -.111.16.408.408 0 0 1 -.159.11.433.433 0 0 1 -.19.04z"/><path d="m36.54 17.32a.406.406 0 0 1 -.19-.04.47.47 0 0 1 -.17-.1.968.968 0 0 1 -.111-.16.727.727 0 0 1 -.029-.2.5.5 0 0 1 .14-.35.49.49 0 0 1 .17-.11.5.5 0 0 1 .54.11.593.593 0 0 1 .11.16.646.646 0 0 1 .04.19.711.711 0 0 1 -.04.2.593.593 0 0 1 -.11.16.5.5 0 0 1 -.35.14z"/><path d="m39.8 16.13a.588.588 0 0 1 -.191-.03.657.657 0 0 1 -.159-.11.4.4 0 0 1 -.11-.16.477.477 0 0 1 -.04-.2.433.433 0 0 1 .04-.19.4.4 0 0 1 .11-.16.462.462 0 0 1 .159-.11.509.509 0 0 1 .54.11.411.411 0 0 1 .111.16.464.464 0 0 1 .04.19.477.477 0 0 1 -.04.2.411.411 0 0 1 -.111.16.5.5 0 0 1 -.349.14z"/><path d="m43.06 14.95a.509.509 0 0 1 -.35-.15.572.572 0 0 1 -.11-.16.646.646 0 0 1 -.04-.19.515.515 0 0 1 .15-.36.534.534 0 0 1 .71 0 .712.712 0 0 1 .11.17.584.584 0 0 1 .039.19.508.508 0 0 1 -.149.35.535.535 0 0 1 -.36.15z"/><path d="m46.33 13.76a.406.406 0 0 1 -.19-.04.384.384 0 0 1 -.161-.11.361.361 0 0 1 -.109-.16.433.433 0 0 1 -.04-.19.511.511 0 0 1 .149-.36.448.448 0 0 1 .161-.1.5.5 0 0 1 .38 0 .435.435 0 0 1 .16.1.554.554 0 0 1 .15.36.646.646 0 0 1 -.04.19.47.47 0 0 1 -.11.16.355.355 0 0 1 -.16.11.433.433 0 0 1 -.19.04z"/><path d="m49.59 12.57a.44.44 0 0 1 -.191-.04.358.358 0 0 1 -.159-.11.483.483 0 0 1 0-.7.491.491 0 0 1 .54-.11.352.352 0 0 1 .159.11.481.481 0 0 1 0 .7.352.352 0 0 1 -.159.11.406.406 0 0 1 -.19.04z"/><path d="m52.859 11.38a.475.475 0 0 1 -.359-.15.5.5 0 0 1 .55-.81.586.586 0 0 1 .16.11.486.486 0 0 1 0 .7.426.426 0 0 1 -.16.11.435.435 0 0 1 -.191.04z"/><path d="m34.41 21.64a.628.628 0 0 1 -.19-.03.871.871 0 0 1 -.16-.11.515.515 0 0 1 -.15-.36.646.646 0 0 1 .04-.19.551.551 0 0 1 .11-.16.558.558 0 0 1 .16-.11.531.531 0 0 1 .55.11.537.537 0 0 1 .1.16.448.448 0 0 1 .04.19.418.418 0 0 1 -.04.19.478.478 0 0 1 -.1.17.543.543 0 0 1 -.36.14z"/><path d="m37.68 20.46a.579.579 0 0 1 -.19-.04.639.639 0 0 1 -.171-.11.958.958 0 0 1 -.109-.16.6.6 0 0 1 -.03-.19.66.66 0 0 1 .03-.2.958.958 0 0 1 .109-.16.74.74 0 0 1 .171-.11.514.514 0 0 1 .54.11.593.593 0 0 1 .11.16.711.711 0 0 1 .04.2.646.646 0 0 1 -.04.19.593.593 0 0 1 -.11.16.511.511 0 0 1 -.35.15z"/><path d="m40.939 19.27a.509.509 0 0 1 -.349-.15.433.433 0 0 1 -.111-.16.448.448 0 0 1 -.04-.19.418.418 0 0 1 .04-.19.467.467 0 0 1 .111-.17.427.427 0 0 1 .16-.1.5.5 0 0 1 .54.1.437.437 0 0 1 .109.17.394.394 0 0 1 .04.19.42.42 0 0 1 -.04.19.405.405 0 0 1 -.109.16.512.512 0 0 1 -.351.15z"/><path d="m44.21 18.08a.472.472 0 0 1 -.36-.15.457.457 0 0 1 -.11-.16.471.471 0 0 1 0-.38.457.457 0 0 1 .11-.16.506.506 0 0 1 .549-.11.415.415 0 0 1 .161.11.47.47 0 0 1 .11.16.612.612 0 0 1 .04.19.679.679 0 0 1 -.04.19.47.47 0 0 1 -.11.16.415.415 0 0 1 -.161.11.426.426 0 0 1 -.189.04z"/><path d="m47.47 16.89a.469.469 0 0 1 -.35-.15.348.348 0 0 1 -.11-.16.394.394 0 0 1 -.04-.19.42.42 0 0 1 .04-.19.348.348 0 0 1 .11-.16.457.457 0 0 1 .16-.11.5.5 0 0 1 .38 0 .444.444 0 0 1 .159.11.459.459 0 0 1 .111.16.433.433 0 0 1 .04.19.406.406 0 0 1 -.04.19.459.459 0 0 1 -.111.16.347.347 0 0 1 -.159.11.433.433 0 0 1 -.19.04z"/><path d="m50.729 15.7a.5.5 0 0 1 -.349-.14.619.619 0 0 1 -.11-.17.406.406 0 0 1 -.041-.19.435.435 0 0 1 .041-.19.572.572 0 0 1 .11-.16.514.514 0 0 1 .54-.11.466.466 0 0 1 .16.11.405.405 0 0 1 .109.16.42.42 0 0 1 .04.19.394.394 0 0 1 -.04.19.375.375 0 0 1 -.109.17.444.444 0 0 1 -.16.1.41.41 0 0 1 -.191.04z"/><path d="m54 14.51a.5.5 0 0 1 -.36-.14.543.543 0 0 1 -.14-.36.5.5 0 0 1 .14-.35.871.871 0 0 1 .16-.11.523.523 0 0 1 .389 0 .879.879 0 0 1 .161.11.514.514 0 0 1 .15.35.559.559 0 0 1 -.15.36.879.879 0 0 1 -.161.11.617.617 0 0 1 -.189.03z"/><path d="m57.26 13.33a.509.509 0 0 1 -.35-.15.4.4 0 0 1 -.11-.16.433.433 0 0 1 -.04-.19.477.477 0 0 1 .04-.2.4.4 0 0 1 .11-.16.51.51 0 0 1 .54-.11.638.638 0 0 1 .159.11.5.5 0 0 1 .151.36.466.466 0 0 1 -.151.35.453.453 0 0 1 -.159.11.652.652 0 0 1 -.19.04z"/><path d="m35.55 24.78a.509.509 0 0 1 -.35-.15.551.551 0 0 1 -.11-.16.5.5 0 0 1 0-.39.551.551 0 0 1 .11-.16.514.514 0 0 1 .54-.11.733.733 0 0 1 .17.11.537.537 0 0 1 .1.16.477.477 0 0 1 .04.2.433.433 0 0 1 -.04.19.537.537 0 0 1 -.1.16.634.634 0 0 1 -.17.11.585.585 0 0 1 -.19.04z"/><path d="m38.819 23.59a.579.579 0 0 1 -.189-.04.5.5 0 0 1 -.17-.11.562.562 0 0 1 -.1-.16.448.448 0 0 1 -.04-.19.525.525 0 0 1 .141-.36.478.478 0 0 1 .17-.1.5.5 0 0 1 .38 0 .444.444 0 0 1 .16.1.5.5 0 0 1 .11.17.584.584 0 0 1 .039.19.644.644 0 0 1 -.039.19.572.572 0 0 1 -.11.16.466.466 0 0 1 -.16.11.645.645 0 0 1 -.192.04z"/><path d="m42.08 22.4a.433.433 0 0 1 -.19-.04.523.523 0 0 1 -.27-.27.433.433 0 0 1 -.04-.19.406.406 0 0 1 .04-.19.461.461 0 0 1 .109-.17.448.448 0 0 1 .161-.1.507.507 0 0 1 .54.1.464.464 0 0 1 .11.17.418.418 0 0 1 .04.19.448.448 0 0 1 -.04.19.363.363 0 0 1 -.11.16.469.469 0 0 1 -.35.15z"/><path d="m45.35 21.21a.475.475 0 0 1 -.36-.15.5.5 0 0 1 -.15-.35.615.615 0 0 1 .04-.19.645.645 0 0 1 .11-.16.582.582 0 0 1 .159-.11.528.528 0 0 1 .391 0 .586.586 0 0 1 .16.11.5.5 0 0 1 .15.35.509.509 0 0 1 -.15.35.426.426 0 0 1 -.16.11.436.436 0 0 1 -.19.04z"/><path d="m48.609 20.02a.548.548 0 0 1 -.349-.14.467.467 0 0 1 -.111-.17.418.418 0 0 1 -.04-.19.47.47 0 0 1 .151-.35.448.448 0 0 1 .16-.11.5.5 0 0 1 .38 0 .517.517 0 0 1 .309.46.394.394 0 0 1 -.04.19.437.437 0 0 1 -.109.17.444.444 0 0 1 -.16.1.435.435 0 0 1 -.191.04z"/><path d="m51.87 18.83a.628.628 0 0 1 -.19-.03.645.645 0 0 1 -.16-.11.551.551 0 0 1 -.11-.16.711.711 0 0 1 -.04-.2.719.719 0 0 1 .04-.19.551.551 0 0 1 .11-.16.645.645 0 0 1 .16-.11.5.5 0 0 1 .38 0 .945.945 0 0 1 .169.11.521.521 0 0 1 .1.16.481.481 0 0 1 .04.19.493.493 0 0 1 -.04.2.521.521 0 0 1 -.1.16.945.945 0 0 1 -.169.11.587.587 0 0 1 -.19.03z"/><path d="m55.14 17.65a.717.717 0 0 1 -.2-.04.582.582 0 0 1 -.159-.11.5.5 0 0 1 -.14-.35.394.394 0 0 1 .04-.19.478.478 0 0 1 .1-.17.936.936 0 0 1 .159-.11.528.528 0 0 1 .391 0 .945.945 0 0 1 .16.11.643.643 0 0 1 .11.17.585.585 0 0 1 .04.19.646.646 0 0 1 -.04.19.593.593 0 0 1 -.11.16.586.586 0 0 1 -.16.11.646.646 0 0 1 -.191.04z"/><path d="m58.4 16.46a.468.468 0 0 1 -.349-.15.365.365 0 0 1 -.111-.16.448.448 0 0 1 -.04-.19.47.47 0 0 1 .151-.35.35.35 0 0 1 .16-.11.5.5 0 0 1 .38 0 .361.361 0 0 1 .16.11.468.468 0 0 1 .149.35.42.42 0 0 1 -.04.19.346.346 0 0 1 -.109.16.361.361 0 0 1 -.16.11.435.435 0 0 1 -.191.04z"/><path d="m36.689 27.91a.483.483 0 0 1 -.349-.15.6.6 0 0 1 -.111-.16.679.679 0 0 1 -.04-.19.612.612 0 0 1 .04-.19.647.647 0 0 1 .111-.17.527.527 0 0 1 .71 0 .991.991 0 0 1 .11.17.582.582 0 0 1 .029.19.626.626 0 0 1 -.029.19.906.906 0 0 1 -.11.16.51.51 0 0 1 -.361.15z"/><path d="m39.96 26.72a.406.406 0 0 1 -.19-.04.38.38 0 0 1 -.17-.11.435.435 0 0 1 -.1-.16.406.406 0 0 1 -.04-.19.548.548 0 0 1 .14-.35.444.444 0 0 1 .17-.11.5.5 0 0 1 .54.11.47.47 0 0 1 .11.16.679.679 0 0 1 .04.19.514.514 0 0 1 -.15.35.469.469 0 0 1 -.35.15z"/><path d="m43.22 25.53a.433.433 0 0 1 -.19-.04.355.355 0 0 1 -.16-.11.483.483 0 0 1 0-.7.5.5 0 0 1 .7 0 .5.5 0 0 1 -.349.85z"/><path d="m46.49 24.34a.522.522 0 0 1 -.36-.14.991.991 0 0 1 -.11-.17.585.585 0 0 1 -.041-.19.648.648 0 0 1 .041-.19.906.906 0 0 1 .11-.16.527.527 0 0 1 .55-.11.533.533 0 0 1 .27.27.646.646 0 0 1 .04.19.585.585 0 0 1 -.04.19.5.5 0 0 1 -.11.17.537.537 0 0 1 -.16.1.433.433 0 0 1 -.19.04z"/><path d="m49.75 23.16a.514.514 0 0 1 -.351-.15.472.472 0 0 1 -.149-.35.448.448 0 0 1 .04-.2.427.427 0 0 1 .109-.16.651.651 0 0 1 .161-.11.5.5 0 0 1 .379 0 .633.633 0 0 1 .161.11.442.442 0 0 1 .11.16.448.448 0 0 1 .04.2.514.514 0 0 1 -.15.35.452.452 0 0 1 -.161.11.633.633 0 0 1 -.189.04z"/><path d="m53.01 21.97a.659.659 0 0 1 -.191-.04.462.462 0 0 1 -.159-.11.551.551 0 0 1 -.11-.16.646.646 0 0 1 -.04-.19.585.585 0 0 1 .04-.19.485.485 0 0 1 .11-.17.51.51 0 0 1 .54-.1.431.431 0 0 1 .159.1.379.379 0 0 1 .111.17.406.406 0 0 1 .04.19.433.433 0 0 1 -.04.19.411.411 0 0 1 -.111.16.453.453 0 0 1 -.159.11.585.585 0 0 1 -.19.04z"/><path d="m56.28 20.78a.506.506 0 0 1 -.36-.15.5.5 0 0 1 -.14-.35.582.582 0 0 1 .03-.19.991.991 0 0 1 .11-.17.524.524 0 0 1 .55-.1.537.537 0 0 1 .16.1.619.619 0 0 1 .11.17.585.585 0 0 1 .04.19.509.509 0 0 1 -.15.35.572.572 0 0 1 -.16.11.433.433 0 0 1 -.19.04z"/><path d="m41.1 29.85a.543.543 0 0 1 -.36-.14.585.585 0 0 1 -.1-.17.394.394 0 0 1 -.04-.19.42.42 0 0 1 .04-.19.435.435 0 0 1 .1-.16.619.619 0 0 1 .17-.11.5.5 0 0 1 .54.11.572.572 0 0 1 .11.16.433.433 0 0 1 .04.19.5.5 0 0 1 -.5.5z"/><path d="m44.359 28.66a.437.437 0 0 1 -.349-.14.517.517 0 0 1 -.111-.17.612.612 0 0 1 -.04-.19.679.679 0 0 1 .04-.19.6.6 0 0 1 .111-.16.448.448 0 0 1 .16-.11.527.527 0 0 1 .55.11.515.515 0 0 1 .1.16.42.42 0 0 1 .04.19.394.394 0 0 1 -.04.19.462.462 0 0 1 -.1.17.543.543 0 0 1 -.361.14z"/><path d="m47.63 27.48a.533.533 0 0 1 -.36-.15.811.811 0 0 1 -.11-.16.719.719 0 0 1 -.04-.19.554.554 0 0 1 .15-.36.525.525 0 0 1 .549-.11.838.838 0 0 1 .16.11.555.555 0 0 1 .151.36.761.761 0 0 1 -.04.19.555.555 0 0 1 -.111.16.838.838 0 0 1 -.16.11.639.639 0 0 1 -.189.04z"/><path d="m50.89 26.29a.646.646 0 0 1 -.19-.04.457.457 0 0 1 -.16-.11.355.355 0 0 1 -.11-.16.42.42 0 0 1 -.04-.19.394.394 0 0 1 .04-.19.452.452 0 0 1 .11-.17.435.435 0 0 1 .16-.1.5.5 0 0 1 .38 0 .435.435 0 0 1 .16.1.452.452 0 0 1 .11.17.406.406 0 0 1 .04.19.433.433 0 0 1 -.04.19.355.355 0 0 1 -.11.16.457.457 0 0 1 -.16.11.646.646 0 0 1 -.19.04z"/><path d="m54.149 25.1a.468.468 0 0 1 -.349-.15.51.51 0 0 1 -.151-.35.612.612 0 0 1 .04-.19.473.473 0 0 1 .111-.16.35.35 0 0 1 .16-.11.5.5 0 0 1 .38 0 .46.46 0 0 1 .17.11.421.421 0 0 1 .1.16.394.394 0 0 1 .04.19.554.554 0 0 1 -.139.35.46.46 0 0 1 -.17.11.585.585 0 0 1 -.192.04z"/><path d="m57.42 23.91a.524.524 0 0 1 -.36-.14.543.543 0 0 1 -.14-.36.628.628 0 0 1 .03-.19.619.619 0 0 1 .11-.16.506.506 0 0 1 .549-.11.562.562 0 0 1 .161.11.645.645 0 0 1 .11.16.679.679 0 0 1 .04.19.612.612 0 0 1 -.04.19.991.991 0 0 1 -.11.17.53.53 0 0 1 -.161.1.429.429 0 0 1 -.189.04z"/><path d="m52.03 29.42a.43.43 0 0 1 -.19-.04.355.355 0 0 1 -.16-.11.365.365 0 0 1 -.111-.16.447.447 0 0 1 -.039-.19.418.418 0 0 1 .039-.19.467.467 0 0 1 .111-.17.435.435 0 0 1 .16-.1.5.5 0 0 1 .38 0 .435.435 0 0 1 .16.1.452.452 0 0 1 .11.17.406.406 0 0 1 .04.19.433.433 0 0 1 -.04.19.533.533 0 0 1 -.27.27.406.406 0 0 1 -.19.04z"/><path d="m55.29 28.23a.473.473 0 0 1 -.351-.15.513.513 0 0 1 -.149-.35.646.646 0 0 1 .04-.19.455.455 0 0 1 .109-.16.5.5 0 0 1 .54-.11.375.375 0 0 1 .17.11.675.675 0 0 1 .111.16.628.628 0 0 1 .03.19.5.5 0 0 1 -.141.35.375.375 0 0 1 -.17.11.4.4 0 0 1 -.189.04z"/><path d="m50.669 31.6h-8.564a.5.5 0 0 1 -.162-.027 13.465 13.465 0 1 1 8.887 0 .49.49 0 0 1 -.161.027zm-8.48-1h8.4a12.424 12.424 0 1 0 -8.4 0z"/></g><rect fill="#fe7058" height="11.505" rx="1.608" width="23.116" x="34.844" y="29.777"/><path d="m56.353 29.777h-2.375a1.607 1.607 0 0 1 1.607 1.608v8.29a1.607 1.607 0 0 1 -1.607 1.608h2.375a1.607 1.607 0 0 0 1.607-1.608v-8.29a1.607 1.607 0 0 0 -1.607-1.608z" fill="#ea6453"/><path d="m56.353 41.783h-19.9a2.11 2.11 0 0 1 -2.107-2.108v-8.29a2.11 2.11 0 0 1 2.107-2.108h19.9a2.111 2.111 0 0 1 2.108 2.108v8.29a2.111 2.111 0 0 1 -2.108 2.108zm-19.9-11.506a1.109 1.109 0 0 0 -1.107 1.108v8.29a1.109 1.109 0 0 0 1.107 1.108h19.9a1.109 1.109 0 0 0 1.108-1.108v-8.29a1.109 1.109 0 0 0 -1.108-1.108z" fill="#323c6b"/><path d="m53.392 64.69h-3.292a2.791 2.791 0 1 1 0-5.581h3.293a2.791 2.791 0 1 1 0 5.581zm-3.292-4.581a1.791 1.791 0 1 0 0 3.581h3.293a1.791 1.791 0 1 0 0-3.581z" fill="#323c6b"/><path d="m53.392 60.109h-3.292a2.794 2.794 0 0 1 -1.976-4.767 2.746 2.746 0 0 1 1.976-.825h3.293a2.8 2.8 0 1 1 0 5.592zm-3.292-4.592a1.751 1.751 0 0 0 -1.265.528 1.795 1.795 0 0 0 1.265 3.064h3.293a1.784 1.784 0 0 0 1.791-1.791 1.8 1.8 0 0 0 -1.791-1.8z" fill="#323c6b"/><path d="m53.392 55.517h-3.292a2.791 2.791 0 1 1 0-5.582h3.293a2.791 2.791 0 1 1 0 5.582zm-3.292-4.582a1.791 1.791 0 1 0 0 3.582h3.293a1.791 1.791 0 0 0 0-3.582z" fill="#323c6b"/><path d="m53.392 50.935h-3.292a2.794 2.794 0 0 1 -1.976-4.766 2.742 2.742 0 0 1 1.976-.826h3.293a2.8 2.8 0 1 1 0 5.592zm-3.292-4.592a1.748 1.748 0 0 0 -1.265.529 1.794 1.794 0 0 0 1.265 3.063h3.293a1.784 1.784 0 0 0 1.791-1.791 1.8 1.8 0 0 0 -1.791-1.8z" fill="#323c6b"/><path d="m26.875 65.488h-7.875a1.743 1.743 0 0 1 -1.742-1.742v-19.526a1.743 1.743 0 0 1 1.742-1.742h7.875a1.743 1.743 0 0 1 1.742 1.742v19.526a1.743 1.743 0 0 1 -1.742 1.742zm-7.875-22.01a.743.743 0 0 0 -.742.742v19.526a.743.743 0 0 0 .742.742h7.875a.743.743 0 0 0 .742-.742v-19.526a.743.743 0 0 0 -.742-.742z" fill="#323c6b"/><path d="m50.2 39.122h-.406a.65.65 0 1 1 0-1.3h.406a.65.65 0 1 1 0 1.3z" fill="#fff"/><path d="m47.417 37.823h-6.042a.65.65 0 1 0 0 1.3h6.042a.65.65 0 1 0 0-1.3z" fill="#fff"/></svg>