<svg height="512" viewBox="0 0 64 64" width="512" xmlns="http://www.w3.org/2000/svg"><g id="Paticipatation-2" data-name="Paticipatation"><path d="m37.29 35.46a1.948 1.948 0 0 1 -.58 1.32l-1.88 1.88-.92.91-1.34 1.34-.57.58-1.64 1.63a1.981 1.981 0 0 1 1.4-.56.661.661 0 0 1 .24.03 1.832 1.832 0 0 1 1.17.55 2 2 0 0 1 0 2.83l-1.17 1.17-1 1-6.31 6.32h-5.66l-1.41 1.41-9.2-9.19 1.42-1.42 1.41-5.65 11.27-11.28.04-.04a2.033 2.033 0 0 1 1.42-.59 1.993 1.993 0 0 1 1.41.59.435.435 0 0 1 .06.07 1.994 1.994 0 0 1 -.06 2.76l.61-.61 2.22-2.22a2 2 0 0 1 1.42-.59 1.472 1.472 0 0 1 .36.04 1.988 1.988 0 0 1 1.63 2.06 1.948 1.948 0 0 1 -.58 1.32l2.12-2.12a2.059 2.059 0 0 1 1.41-.58 2 2 0 0 1 1.42 3.41l-1.17 1.17-.83.83-.12.12a1.059 1.059 0 0 1 .12-.1 1.9 1.9 0 0 1 1.2-.48.34.34 0 0 1 .1-.01 2 2 0 0 1 1.99 2.1z" fill="#ffc477"/><path d="m56.99 45.26 4.24 4.25-11.31 11.31-4.24-4.24.7-.71 9.2-9.19z" fill="#3d9ae2"/><path d="m41 3v6h-2-13-1v-6z" fill="#3d9ae2"/><path d="m42 16v16a1.955 1.955 0 0 1 -.59 1.41 3.084 3.084 0 0 1 -.27.24 2.046 2.046 0 0 1 -1.14.35 2.006 2.006 0 0 1 -2-2v4a.808.808 0 0 1 -.01.16 2.01 2.01 0 0 1 -1.99 1.84 2.315 2.315 0 0 1 -.46-.05 2.015 2.015 0 0 1 -1.54-1.95v3a1.791 1.791 0 0 1 -.09.57 1.987 1.987 0 0 1 -1.34 1.34 1.85 1.85 0 0 1 -1.14 0 2 2 0 0 1 -1.34-1.34 1.791 1.791 0 0 1 -.09-.57v-3a1.955 1.955 0 0 1 -.59 1.41 2.007 2.007 0 0 1 -.95.54 2.315 2.315 0 0 1 -.46.05 2 2 0 0 1 -1.99-1.84.808.808 0 0 1 -.01-.16v-9a1.775 1.775 0 0 1 -.1.61 1.8 1.8 0 0 1 -.45.75.176.176 0 0 1 -.04.05 1.975 1.975 0 0 1 -2.89-.08 1.927 1.927 0 0 1 -.52-1.33v-12l4-4v-2h13v2z" fill="#ffc477"/><path d="m17.62 55.87.7.71-4.24 4.24-11.31-11.31 4.24-4.25 1.41 1.42z" fill="#3d9ae2"/><path d="m55.58 46.68-9.2 9.19-1.41-1.41h-5.66l-7.31-7.32-1.17-1.17a2 2 0 0 1 0-2.83 1.832 1.832 0 0 1 1.17-.55.661.661 0 0 1 .24-.03 1.981 1.981 0 0 1 1.4.56l-1.64-1.63-.57-.58-1.34-1.34-.92-.91-1.88-1.88a1.948 1.948 0 0 1 -.58-1.32 2 2 0 0 1 1.99-2.1.34.34 0 0 1 .1.01 1.9 1.9 0 0 1 1.2.48 1.059 1.059 0 0 1 .12.1l-.12-.12-.83-.83-1.17-1.17a2 2 0 0 1 1.42-3.41 2.059 2.059 0 0 1 1.41.58l2.12 2.12a1.948 1.948 0 0 1 -.58-1.32 1.988 1.988 0 0 1 1.63-2.06 1.472 1.472 0 0 1 .36-.04 2 2 0 0 1 1.42.59l2.22 2.22.61.61a2.005 2.005 0 0 1 1.41-3.42 2.033 2.033 0 0 1 1.42.59l.56.56 10.75 10.76 1.41 5.65z" fill="#ffc477"/><g fill="#ffb655"><path d="m27 32.83a2 2 0 0 1 0-2.83 2.092 2.092 0 0 1 .59-.41 2.015 2.015 0 0 0 .41 2.24l1.17 1.17.83.83.12.12a1.059 1.059 0 0 0 -.12-.1 1.9 1.9 0 0 0 -1.2-.48.34.34 0 0 0 -.1-.01 1.924 1.924 0 0 0 -.93.24z"/><path d="m32.95 31.12-1.34-1.34a1.6 1.6 0 0 1 .34-.49 1.835 1.835 0 0 1 .6-.41 1.851 1.851 0 0 0 -.18.92 1.948 1.948 0 0 0 .58 1.32z"/><path d="m30.43 41.91-1.34-1.34-.92-.91-1.88-1.88a1.948 1.948 0 0 1 -.58-1.32 1.992 1.992 0 0 1 .58-1.51 1.835 1.835 0 0 1 .6-.41 1.851 1.851 0 0 0 -.18.92 1.948 1.948 0 0 0 .58 1.32l1.88 1.88.92.91 1.34 1.34.57.58 1.64 1.63a1.981 1.981 0 0 0 -1.4-.56.661.661 0 0 0 -.24.03 1.667 1.667 0 0 0 -.69.2l-.31-.3z"/><path d="m38 30.51-.74-.74a2.036 2.036 0 0 1 .35-.48 2.092 2.092 0 0 1 .59-.41 2.015 2.015 0 0 0 .41 2.24z"/><path d="m32 47.14-1 1-1.17-1.17a2 2 0 0 1 0-2.83 1.96 1.96 0 0 1 .59-.41 2.015 2.015 0 0 0 .41 2.24z"/></g><path d="m61.938 48.8-4.24-4.25a1 1 0 0 0 -.708-.294 1 1 0 0 0 -.708.3l-.706.706-.512-.512-1.344-5.382a1.008 1.008 0 0 0 -.262-.465l-10.458-10.466v-12.437a1 1 0 0 0 -.143-.515l-2.857-4.762v-.723h1a1 1 0 0 0 1-1v-6a1 1 0 0 0 -1-1h-16a1 1 0 0 0 -1 1v6a1 1 0 0 0 1 1v.586l-3.707 3.707a1 1 0 0 0 -.293.707v12a2.969 2.969 0 0 0 .252 1.184l-10.71 10.716a1.008 1.008 0 0 0 -.262.465l-1.343 5.384-.515.514-.706-.706a1 1 0 0 0 -1.414 0l-4.243 4.243a1 1 0 0 0 0 1.414l11.314 11.313a1 1 0 0 0 1.414 0l4.242-4.243a1 1 0 0 0 0-1.411l.413-.413h5.248a1 1 0 0 0 .707-.293l6.603-6.611 6.6 6.611a1 1 0 0 0 .707.293h5.246l.415.415a1 1 0 0 0 0 1.409l4.24 4.24a1 1 0 0 0 1.414 0l11.31-11.31a1 1 0 0 0 .006-1.414zm-35.938-44.8h14v4h-14zm.707 7.707a1 1 0 0 0 .293-.707v-1h11v1a1 1 0 0 0 .143.515l2.857 4.762v10.623a3.126 3.126 0 0 0 -2 .012v-1.912h-2v3.1l-.513-.513a2.987 2.987 0 0 0 -1.487-.814v-1.773h-2v2.036a2.841 2.841 0 0 0 -1.332 1.388l-.131-.131a2.934 2.934 0 0 0 -.537-.419v-2.874h-2v2.452a2.989 2.989 0 0 0 -1.707.841 2.942 2.942 0 0 0 -.444.585 2.946 2.946 0 0 0 -.2-.5 2.931 2.931 0 0 0 .351-1.378v-6h-2v5.9a3.009 3.009 0 0 0 -2 0v-11.486zm-12.627 47.699-9.9-9.9 2.829-2.828 9.9 9.9zm10.195-5.946h-5.245a1 1 0 0 0 -.707.293l-.705.7-7.781-7.776.71-.71a1.006 1.006 0 0 0 .263-.465l1.343-5.381 11.1-11.115a1.011 1.011 0 0 1 1.409-.024c.016.019.031.038.048.056a.991.991 0 0 1 -.032 1.375l-4.95 4.95 1.414 1.414 4.95-4.95a3.016 3.016 0 0 0 .446-.589 2.962 2.962 0 0 0 .749 1.3l.125.125a3.024 3.024 0 0 0 -.835.581 2.984 2.984 0 0 0 -.847 1.777l-.433.433-2.74 2.74 1.414 1.414 2.383-2.383a2.924 2.924 0 0 0 .223.263l1.175 1.171-2.365 2.365 1.414 1.414 2.367-2.367.132.131a.893.893 0 0 0 .077.086l1.2 1.2-5.19 5.185 1.414 1.414 2.6-2.6a2.975 2.975 0 0 0 .717 1.189l.463.464zm15.45 0-8.188-8.2a1 1 0 0 1 0-1.416.891.891 0 0 1 .463-.254.984.984 0 0 0 .242-.03.984.984 0 0 1 .689.266l4.258 4.258 1.414-1.414-10.62-10.61a.961.961 0 0 1 -.279-.658 1 1 0 0 1 .956-1.044 1.054 1.054 0 0 0 .113.009 1.025 1.025 0 0 1 .636.287l7.78 7.78 1.414-1.414-9.9-9.9a1 1 0 0 1 0-1.416.99.99 0 0 1 .713-.287.955.955 0 0 1 .3.05.921.921 0 0 1 .4.237l9.9 9.9 1.414-1.414-7.782-7.79a.96.96 0 0 1 -.279-.66 1 1 0 0 1 .288-.74 1.077 1.077 0 0 1 .588-.287.527.527 0 0 1 .115-.01 1.006 1.006 0 0 1 .713.3l7.78 7.78 1.414-1.414-4.95-4.95a1 1 0 0 1 0-1.416 1.022 1.022 0 0 1 1.416 0l11.114 11.118 1.343 5.379a1.006 1.006 0 0 0 .263.465l.708.708-7.781 7.783-.7-.7a1 1 0 0 0 -.707-.293zm10.2 5.946-2.831-2.831 9.9-9.9 2.824 2.832z"/><path d="m19.65 17.561-1.3-1.52a21.031 21.031 0 0 0 -7.115 19.108l1.977-.3a19.189 19.189 0 0 1 -.212-2.849 18.987 18.987 0 0 1 6.65-14.439z"/><path d="m33.049 52.975-.1-2c-.63.031-1.272.031-1.9 0l-.1 2c.347.016.7.025 1.049.025s.702-.009 1.051-.025z"/><path d="m52.9 34.1c.069-.691.1-1.4.1-2.1a20.986 20.986 0 0 0 -7.35-15.959l-1.3 1.52a18.987 18.987 0 0 1 6.65 14.439c0 .636-.032 1.276-.094 1.9z"/><path d="m9.5 36.792a23.039 23.039 0 0 1 12.917-25.707l-.834-1.817a25.042 25.042 0 0 0 -14.04 27.94z"/><path d="m28.166 54.682-.332 1.972a25.253 25.253 0 0 0 8.332 0l-.332-1.972a23.38 23.38 0 0 1 -7.668 0z"/><path d="m55 32a23.126 23.126 0 0 1 -.5 4.792l1.957.416a25.044 25.044 0 0 0 -11.957-26.863l-1 1.732a23.087 23.087 0 0 1 11.5 19.923z"/></g></svg>