<svg id="Layer_1" enable-background="new 0 0 512 512" height="512" viewBox="0 0 512 512" width="512" xmlns="http://www.w3.org/2000/svg"><g><g><g><path d="m256.017 169.095c-13.51 18.16-33.4 28.14-59.17 29.74v60.651h-15v-60.651c-4.2-.26-8.25-.75-12.14-1.46h-.01c-19.94-3.62-35.71-13.09-47.01-28.28-39.83-53.521-8.77-159.273-7.42-163.743 1.19-3.97 5.37-6.23 9.33-5.03 3.97 1.19 6.22 5.37 5.03 9.33-.24.81-19.07 64.971-9.34 115.212 6.53-.47 17.55-1.15 31.58-1.69-2.26-59.181 7.95-114.622 8.41-117.052.76-4.07 4.67-6.75 8.75-5.99 4.07.76 6.75 4.68 5.99 8.75-.11.58-10.35 56.231-8.15 113.832 13.47-.32 28.77-.44 44.96-.12 2.2-57.601-8.04-113.132-8.15-113.712-.76-4.07 1.92-7.99 5.99-8.75s7.99 1.92 8.75 5.99c.46 2.42 10.67 57.731 8.41 116.902 3.7.14 7.44.3 11.19.48 6.75.35 13.57.78 20.39 1.31 9.72-50.231-9.1-114.352-9.34-115.162-1.19-3.97 1.06-8.15 5.03-9.33 3.96-1.19 8.14 1.06 9.33 5.03 1.35 4.47 32.41 110.222-7.41 163.743z" fill="#99e6fc"/><path d="m256.017 169.095c-13.51 18.16-33.4 28.14-59.17 29.74v60.651h-15v-60.651c-4.2-.26-8.25-.75-12.14-1.46 41.05-11.53 60.35-41.061 68.31-73.871 6.75.35 13.57.78 20.39 1.31 9.72-50.231-9.1-114.352-9.34-115.162-1.19-3.97 1.06-8.15 5.03-9.33 3.96-1.19 8.14 1.06 9.33 5.03 1.35 4.47 32.41 110.222-7.41 163.743z" fill="#01c0fa"/></g><g><path d="m244.047 441.289c-1.13 23.87-5.85 43.251-17.33 55.861-8.97 9.85-21.55 14.85-37.37 14.85-4.8 0-9.31-.46-13.5-1.38-9.63-2.1-17.62-6.61-23.87-13.47-11.47-12.59-16.19-31.94-17.32-55.781l10.41-22.041-9.64-19.84c.94-14.78 2.41-30.47 3.93-46.731 2.81-30.01 5.71-61.051 5.71-90.862 0-3.78 2.8-6.96 6.54-7.44.79-.1 19.47-2.47 37.74-2.47 5.93 0 11.91.25 17.29.59 11.22.71 19.92 1.81 20.45 1.88 3.74.48 6.54 3.66 6.54 7.44 0 29.811 2.9 60.851 5.71 90.862 1.52 16.23 2.98 31.89 3.93 46.651l-9.63 19.92z" fill="#dc8758"/><path d="m244.047 441.289c-1.13 23.87-5.85 43.251-17.33 55.861-8.97 9.85-21.55 14.85-37.37 14.85-4.8 0-9.31-.46-13.5-1.38 9.63-2.1 17.62-6.61 23.87-13.47 23.69-26 18.56-80.861 12.62-144.392-2.74-29.25-5.56-70.511-5.7-100.182 11.22.71 19.92 1.81 20.45 1.88 3.74.48 6.54 3.66 6.54 7.44 0 29.811 2.9 60.851 5.71 90.862 1.52 16.23 2.98 31.89 3.93 46.651l-9.63 19.92z" fill="#c86d36"/><path d="m244.047 441.289c-9.11-.79-18.14-1.32-26.93-1.65-35.48-1.35-66.91.51-82.46 1.73-.61-12.79-.19-26.871.77-41.881 15.23-1.21 45.98-3.06 80.73-1.75 8.84.33 17.94.87 27.11 1.67.96 15.01 1.38 29.091.78 41.881z" fill="#685e68"/><path d="m244.047 441.289c-9.11-.79-18.14-1.32-26.93-1.65.51-12.82.03-26.911-.96-41.901 8.84.33 17.94.87 27.11 1.67.96 15.01 1.38 29.091.78 41.881z" fill="#554e56"/></g></g><g><path d="m369.588 286.587h-32c-4.143 0-7.5 3.357-7.5 7.5v31.147c0 4.143 3.357 7.5 7.5 7.5h32c4.143 0 7.5-3.357 7.5-7.5v-31.147c0-4.143-3.358-7.5-7.5-7.5z" fill="#01c0fa"/><path d="m403.457 288.35c-.39 3.47-3.11 6.21-6.57 6.62-.69.08-8.37.99-20.01 1.64-6.71.37-14.73.66-23.49.66-10.51 0-22.08-.42-33.72-1.6-3.96-.41-6.92-3.84-6.73-7.81 5.48-118 .05-278.44-.01-280.1-.13-4.07 3.01-7.51 7.08-7.74.93-.05 23.19-1.01 45.25 22.3 17.46 18.45 29.95 46.77 37.11 84.18 9.18 47.91 9.54 105.78 1.09 181.85z" fill="#99e6fc"/><g><path d="m400.607 461.99c-1.23 15.19-4.96 27.81-13.04 36.79-7.89 8.77-19.32 13.22-33.98 13.22-4.47 0-8.64-.41-12.5-1.24-8.8-1.88-16-5.88-21.48-11.98-8.07-8.98-11.81-21.6-13.04-36.78l10.54-22.4-9.51-20.2c.76-8.57 1.72-17.49 2.7-26.66 2.35-21.98 4.79-44.71 4.79-66.47 0-3.82 2.87-7.03 6.67-7.45.66-.08 16.42-1.82 31.83-1.82 4.61 0 9.25.16 13.51.38 9.98.51 17.86 1.38 18.32 1.44 3.8.42 6.67 3.63 6.67 7.45 0 21.76 2.44 44.49 4.79 66.47.98 9.17 1.94 18.08 2.7 26.64l-9.51 20.22z" fill="#dc8758"/><path d="m390.067 439.6 10.54 22.39c-1.23 15.19-4.96 27.81-13.04 36.79-7.89 8.77-19.32 13.22-33.98 13.22-4.47 0-8.64-.41-12.5-1.24 8.8-1.88 16-5.88 21.48-11.98 18.48-20.57 14.23-60.18 9.31-106.04-2.3-21.56-4.7-53.61-4.78-75.36 9.98.51 17.86 1.38 18.32 1.44 3.8.42 6.67 3.63 6.67 7.45 0 21.76 2.44 44.49 4.79 66.47.98 9.17 1.94 18.08 2.7 26.64z" fill="#c86d36"/><path d="m400.607 461.99c-8.39-.89-16.76-1.46-24.86-1.8-32.98-1.39-61.57 1.06-69.18 1.81-1.03-12.62-.33-27.03 1.03-42.6 7.89-.78 35.22-3.1 66.82-1.82 8.19.32 16.66.9 25.16 1.8 1.36 15.57 2.06 29.98 1.03 42.61z" fill="#685e68"/><path d="m399.577 419.38c1.36 15.57 2.06 29.98 1.03 42.61-8.39-.89-16.76-1.46-24.86-1.8.86-12.69.07-27.09-1.33-42.61 8.19.32 16.66.9 25.16 1.8z" fill="#554e56"/></g><path d="m403.457 288.35c-.39 3.47-3.11 6.21-6.57 6.62-.69.08-8.37.99-20.01 1.64 24.223-261.088-56.87-296.59-56.87-296.59.93-.05 23.19-1.01 45.25 22.3 17.46 18.45 29.95 46.77 37.11 84.18 9.18 47.91 9.54 105.78 1.09 181.85z" fill="#01c0fa"/></g></g></svg>