<?xml version="1.0" encoding="iso-8859-1"?>
<!-- Generator: Adobe Illustrator 19.0.0, SVG Export Plug-In . SVG Version: 6.00 Build 0)  -->
<svg version="1.1" id="Layer_1" xmlns="http://www.w3.org/2000/svg" xmlns:xlink="http://www.w3.org/1999/xlink" x="0px" y="0px"
	 viewBox="0 0 512 512" style="enable-background:new 0 0 512 512;" xml:space="preserve">
<path style="fill:#FAEBC8;" d="M456.017,121.206H55.983c-9.606,0-17.393-7.787-17.393-17.393V34.242
	c0-9.606,7.787-17.393,17.393-17.393h400.034c9.606,0,17.393,7.787,17.393,17.393v69.571
	C473.41,113.419,465.623,121.206,456.017,121.206z"/>
<path style="fill:#F5DCB4;" d="M55.983,121.206h400.034c9.605,0,17.393-7.788,17.393-17.393V51.635H38.59v52.178
	C38.59,113.418,46.378,121.206,55.983,121.206z"/>
<path style="fill:#8C5F50;" d="M438.624,155.992c9.605,0,17.393,7.787,17.393,17.393v52.178c0,9.605-7.788,17.393-17.393,17.393
	h-26.089v-86.964H438.624z"/>
<path style="fill:#9B735A;" d="M412.535,190.777h43.482v-17.393c0-9.606-7.787-17.393-17.393-17.393h-26.089V190.777z"/>
<path style="fill:#8C5F50;" d="M447.321,277.741c9.605,0,17.393,7.787,17.393,17.393v156.535c0,9.605-7.788,17.393-17.393,17.393
	h-34.786V277.741H447.321z"/>
<path style="fill:#9B735A;" d="M412.535,277.741h34.786c9.606,0,17.393,7.787,17.393,17.393v52.178h-52.178V277.741z"/>
<path style="fill:#8C5F50;" d="M73.376,155.992c-9.605,0-17.393,7.787-17.393,17.393v52.178c0,9.605,7.788,17.393,17.393,17.393
	h26.089v-86.964H73.376z"/>
<path style="fill:#9B735A;" d="M99.465,190.777H55.983v-17.393c0-9.606,7.787-17.393,17.393-17.393h26.089V190.777z"/>
<path style="fill:#8C5F50;" d="M64.679,277.741c-9.605,0-17.393,7.787-17.393,17.393v156.535c0,9.605,7.788,17.393,17.393,17.393
	h34.786V277.741H64.679z"/>
<path style="fill:#9B735A;" d="M99.465,277.741H64.679c-9.606,0-17.393,7.787-17.393,17.393v52.178h52.178V277.741z"/>
<path style="fill:#FFC850;" d="M403.839,121.206H108.161c-9.605,0-17.393,7.787-17.393,17.393v313.07
	c0,28.818,23.361,52.178,52.178,52.178h226.106c28.818,0,52.178-23.361,52.178-52.178v-313.07
	C421.231,128.992,413.444,121.206,403.839,121.206z"/>
<path style="fill:#E1A546;" d="M160.34,451.669v-313.07c0-9.606,3.074-17.393,6.866-17.393h-59.044
	c-9.605,0-17.393,7.787-17.393,17.393v313.07c0,28.818,23.361,52.178,52.178,52.178h37.989
	C169.561,503.847,160.34,480.486,160.34,451.669z"/>
<path style="fill:#8C5F50;" d="M369.053,469.062H142.947c-9.606,0-17.393-7.787-17.393-17.393V295.134
	c0-9.606,7.787-17.393,17.393-17.393h226.106c9.606,0,17.393,7.787,17.393,17.393v156.535
	C386.446,461.275,378.659,469.062,369.053,469.062z"/>
<path style="fill:#FAEBC8;" d="M264.696,208.17h-17.393c-9.606,0-17.393-7.787-17.393-17.393l0,0
	c0-9.606,7.787-17.393,17.393-17.393h17.393c9.606,0,17.393,7.787,17.393,17.393l0,0C282.089,200.383,274.303,208.17,264.696,208.17
	z"/>
<path style="fill:#9B735A;" d="M151.643,347.312h208.713c14.409,0,26.089-11.68,26.089-26.089v-26.089
	c0-9.606-7.787-17.393-17.393-17.393H142.947c-9.606,0-17.393,7.787-17.393,17.393v26.089
	C125.554,335.632,137.234,347.312,151.643,347.312z"/>
<path style="fill:#EBC9A0;" d="M264.696,390.794h-17.393c-4.803,0-8.696-3.894-8.696-8.696v-43.482c0-4.803,3.894-8.696,8.696-8.696
	h17.393c4.803,0,8.696,3.894,8.696,8.696v43.482C273.393,386.9,269.499,390.794,264.696,390.794z"/>
<path style="fill:#FAEBC8;" d="M264.696,364.705h-17.393c-4.803,0-8.696-3.894-8.696-8.696v-17.393c0-4.803,3.894-8.696,8.696-8.696
	h17.393c4.803,0,8.696,3.894,8.696,8.696v17.393C273.393,360.811,269.499,364.705,264.696,364.705z"/>
<g>
	<path style="fill:#735048;" d="M177.732,164.688h-34.786V16.849c0-4.803,3.894-8.696,8.696-8.696h17.393
		c4.803,0,8.696,3.894,8.696,8.696V164.688z"/>
	<path style="fill:#735048;" d="M369.053,164.688h-34.786V16.849c0-4.803,3.894-8.696,8.696-8.696h17.393
		c4.803,0,8.696,3.894,8.696,8.696V164.688z"/>
</g>
<g>
	<path style="fill:#FAEBC8;" d="M177.732,208.17h-34.786c-4.803,0-8.696-3.894-8.696-8.696v-34.786c0-4.803,3.894-8.696,8.696-8.696
		h34.786c4.803,0,8.696,3.894,8.696,8.696v34.786C186.429,204.276,182.535,208.17,177.732,208.17z"/>
	<path style="fill:#FAEBC8;" d="M369.053,208.17h-34.786c-4.803,0-8.696-3.894-8.696-8.696v-34.786c0-4.803,3.894-8.696,8.696-8.696
		h34.786c4.803,0,8.696,3.894,8.696,8.696v34.786C377.749,204.276,373.856,208.17,369.053,208.17z"/>
</g>
<path d="M456.017,8.696h-80.925C372.214,3.517,366.691,0,360.357,0h-17.393c-6.334,0-11.858,3.517-14.735,8.696H183.771
	C180.894,3.517,175.37,0,169.036,0h-17.393c-6.334,0-11.858,3.517-14.735,8.696H55.983c-14.086,0-25.546,11.46-25.546,25.546v69.571
	c0,14.086,11.46,25.546,25.546,25.546h28.369c-1.116,2.868-1.736,5.982-1.736,9.24v9.24h-9.24c-14.086,0-25.546,11.46-25.546,25.546
	v52.178c0,14.086,11.46,25.546,25.546,25.546h9.24v18.48H64.679c-14.086,0-25.546,11.46-25.546,25.546v156.535
	c0,14.086,11.46,25.546,25.546,25.546h23.629C97.945,497.744,118.808,512,142.947,512h226.106c24.139,0,45.002-14.256,54.638-34.786
	h23.629c14.086,0,25.546-11.46,25.546-25.546V295.134c0-14.086-11.46-25.546-25.546-25.546h-17.936v-18.48h9.24
	c14.086,0,25.546-11.46,25.546-25.546v-52.178c0-14.086-11.46-25.546-25.546-25.546h-9.24v-9.24c0-3.258-0.62-6.372-1.736-9.24
	h28.369c14.086,0,25.546-11.46,25.546-25.546V34.242C481.563,20.156,470.103,8.696,456.017,8.696z M369.597,164.688v34.786
	c0,0.3-0.243,0.544-0.544,0.544h-34.786c-0.3,0-0.544-0.243-0.544-0.544v-34.786c0-0.3,0.243-0.544,0.544-0.544h9.24v9.24
	c0,4.503,3.65,8.153,8.153,8.153c4.503,0,8.153-3.65,8.153-8.153v-9.24h9.24C369.353,164.144,369.597,164.388,369.597,164.688z
	 M314.863,113.053l-4.59-22.947c-2.38-11.899-12.915-20.535-25.05-20.535h-58.447c-12.135,0-22.669,8.637-25.049,20.535
	l-4.59,22.947h-11.252V59.788h78.808c4.503,0,8.153-3.65,8.153-8.153s-3.65-8.153-8.153-8.153h-78.808v-18.48h140.229v18.48h-26.636
	c-4.503,0-8.153,3.65-8.153,8.153s3.65,8.153,8.153,8.153h26.636v53.265H314.863z M298.233,113.053h-84.467l3.949-19.748
	c0.861-4.304,4.671-7.428,9.059-7.428h58.447c4.389,0,8.2,3.124,9.059,7.428L298.233,113.053z M178.276,164.688v34.786
	c0,0.3-0.243,0.544-0.544,0.544h-34.786c-0.3,0-0.544-0.243-0.544-0.544v-34.786c0-0.3,0.243-0.544,0.544-0.544h9.24v9.24
	c0,4.503,3.65,8.153,8.153,8.153c4.503,0,8.153-3.65,8.153-8.153v-9.24h9.24C178.033,164.144,178.276,164.388,178.276,164.688z
	 M342.42,16.849c0-0.3,0.243-0.544,0.544-0.544h17.393c0.3,0,0.544,0.243,0.544,0.544v130.989h-18.48V16.849z M151.1,16.849
	c0-0.3,0.243-0.544,0.544-0.544h17.393c0.296,0,0.534,0.237,0.541,0.53c0,0.004-0.001,0.009-0.001,0.013
	c0,0.022,0.003,0.042,0.003,0.063v130.926H151.1V16.849z M55.983,25.002h78.811v18.48H46.743v-9.24
	C46.743,29.147,50.888,25.002,55.983,25.002z M46.743,103.813V59.788h88.051v53.265H55.983
	C50.888,113.053,46.743,108.908,46.743,103.813z M73.376,164.144h9.24v18.48h-18.48v-9.24
	C64.136,168.289,68.281,164.144,73.376,164.144z M73.376,234.803c-5.095,0-9.24-4.145-9.24-9.24V198.93h18.48v35.873H73.376z
	 M64.679,285.894h17.936v53.265H55.439v-44.025C55.439,290.039,59.584,285.894,64.679,285.894z M64.679,460.909
	c-5.095,0-9.24-4.145-9.24-9.24v-96.204h27.176v96.204c0,3.142,0.242,6.227,0.708,9.24H64.679z M447.321,460.909h-18.644
	c0.465-3.013,0.708-6.098,0.708-9.24v-96.204h27.176v96.204C456.561,456.764,452.416,460.909,447.321,460.909z M447.321,285.894
	c5.095,0,9.24,4.145,9.24,9.24v44.025h-27.176v-53.265H447.321z M438.624,234.803h-9.24V198.93h18.48v26.633
	C447.864,230.658,443.719,234.803,438.624,234.803z M438.624,164.144c5.095,0,9.24,4.145,9.24,9.24v9.24h-18.48v-18.48H438.624z
	 M413.079,138.599v313.07c0,24.276-19.75,44.025-44.025,44.025H142.947c-24.276,0-44.025-19.75-44.025-44.025v-313.07
	c0-5.095,4.145-9.24,9.24-9.24h26.633v20.594c-5.18,2.877-8.696,8.401-8.696,14.735v34.786c0,9.291,7.558,16.849,16.849,16.849
	h34.786c9.291,0,16.849-7.558,16.849-16.849v-34.786c0-6.334-3.517-11.858-8.696-14.735v-20.594h140.229v20.594
	c-5.18,2.877-8.696,8.401-8.696,14.735v34.786c0,9.291,7.558,16.849,16.849,16.849h34.786c9.291,0,16.849-7.558,16.849-16.849
	v-34.786c0-6.334-3.517-11.858-8.696-14.735v-20.594h26.633C408.934,129.359,413.079,133.504,413.079,138.599z M456.017,113.053
	h-78.811V59.788h26.633c4.503,0,8.153-3.65,8.153-8.153s-3.65-8.153-8.153-8.153h-26.633v-18.48h78.811
	c5.095,0,9.24,4.145,9.24,9.24v9.24h-26.633c-4.503,0-8.153,3.65-8.153,8.153s3.65,8.153,8.153,8.153h26.633v44.025
	C465.257,108.908,461.112,113.053,456.017,113.053z"/>
<path d="M142.947,269.588c-14.086,0-25.546,11.46-25.546,25.546v156.535c0,14.086,11.46,25.546,25.546,25.546h8.694
	c4.503,0,8.153-3.65,8.153-8.153c0-4.503-3.65-8.153-8.153-8.153h-8.694c-5.095,0-9.24-4.145-9.24-9.24V350.377
	c5.22,3.223,11.364,5.088,17.936,5.088h78.811v26.633c0,9.291,7.558,16.849,16.849,16.849h17.393
	c9.291,0,16.849-7.558,16.849-16.849v-26.633h17.937c4.503,0,8.153-3.65,8.153-8.153c0-4.503-3.65-8.153-8.153-8.153h-17.937v-0.544
	c0-9.291-7.558-16.849-16.849-16.849h-17.393c-9.291,0-16.849,7.558-16.849,16.849v0.544h-78.811
	c-9.89,0-17.936-8.046-17.936-17.936v-26.089c0-5.095,4.145-9.24,9.24-9.24h226.106c5.095,0,9.24,4.145,9.24,9.24v26.089
	c0,9.89-8.046,17.936-17.936,17.936h-26.092c-4.503,0-8.153,3.65-8.153,8.153c0,4.503,3.65,8.153,8.153,8.153h26.092
	c6.572,0,12.716-1.865,17.936-5.088v101.292c0,5.095-4.145,9.24-9.24,9.24H186.429c-4.503,0-8.153,3.65-8.153,8.153
	c0,4.503,3.65,8.153,8.153,8.153h182.624c14.086,0,25.546-11.46,25.546-25.546V295.134c0-14.086-11.46-25.546-25.546-25.546H142.947
	z M246.76,338.616c0-0.3,0.243-0.544,0.544-0.544h17.393c0.3,0,0.544,0.243,0.544,0.544v8.686c0,0.003,0,0.007,0,0.011
	c0,0.004,0,0.007,0,0.011v34.775c0,0.3-0.243,0.544-0.544,0.544h-17.393c-0.3,0-0.544-0.243-0.544-0.544V338.616z"/>
<path d="M247.304,216.323h17.393c14.086,0,25.546-11.46,25.546-25.546c0-14.086-11.46-25.546-25.546-25.546h-17.393
	c-14.086,0-25.546,11.46-25.546,25.546C221.758,204.863,233.218,216.323,247.304,216.323z M247.304,181.537h17.393
	c5.095,0,9.24,4.145,9.24,9.24c0,5.095-4.145,9.24-9.24,9.24h-17.393c-5.095,0-9.24-4.145-9.24-9.24
	C238.064,185.682,242.209,181.537,247.304,181.537z"/>
<g>
</g>
<g>
</g>
<g>
</g>
<g>
</g>
<g>
</g>
<g>
</g>
<g>
</g>
<g>
</g>
<g>
</g>
<g>
</g>
<g>
</g>
<g>
</g>
<g>
</g>
<g>
</g>
<g>
</g>
</svg>
