<svg id="Fill_out_line" height="512" viewBox="0 0 512 512" width="512" xmlns="http://www.w3.org/2000/svg" data-name="Fill out line"><path d="m88 208h336v280h-336z" fill="#f0de9c"/><path d="m88 224h32v208h-32z" fill="#37a0c5"/><path d="m392 224h32v208h-32z" fill="#37a0c5"/><path d="m248 488h-48v-88h24v32h24z" fill="#af7d4d"/><path d="m424.993 256a26.79 26.79 0 0 1 -25.83291-19.69333l-23.16009-84.30667h48l25.99732 67.593a26.79 26.79 0 0 1 -25.00432 36.407z" fill="#c6d6e2"/><path d="m369.42811 256h-1.55195a26.79 26.79 0 0 1 -26.43337-22.43352l-13.44279-81.56648h48l19.261 70.11344a26.79 26.79 0 0 1 -25.83289 33.88656z" fill="#8ccee9"/><path d="m313.57348 256h-2.50409a26.79 26.79 0 0 1 -26.74966-25.3213l-4.31973-78.6787h48l12.00685 72.85363a26.78994 26.78994 0 0 1 -26.43337 31.14637z" fill="#c6d6e2"/><path d="m257.40881 256h-2.81762a26.79 26.79 0 0 1 -26.74966-28.25859l4.15847-75.74141h48l4.15847 75.74141a26.79 26.79 0 0 1 -26.74966 28.25859z" fill="#8ccee9"/><path d="m232 152-4.31973 78.6787a26.79 26.79 0 0 1 -26.74966 25.3213h-2.50409a26.78994 26.78994 0 0 1 -26.43337-31.14637l12.00685-72.85363z" fill="#c6d6e2"/><path d="m184 152-13.44279 81.56648a26.79 26.79 0 0 1 -26.43337 22.43352h-1.552a26.79 26.79 0 0 1 -25.83284-33.88656l19.261-70.11344z" fill="#8ccee9"/><path d="m136 152-23.16007 84.30667a26.79 26.79 0 0 1 -25.83293 19.69333 26.79 26.79 0 0 1 -25.00428-36.407l25.99728-67.593z" fill="#c6d6e2"/><path d="m344 488h48v-88h-24v32h-24z" fill="#af7d4d"/><path d="m272 392h48v24h-48z" fill="#c6d6e2"/><path d="m288 288h16a32 32 0 0 1 32 32 0 0 0 0 1 0 0h-80a0 0 0 0 1 0 0 32 32 0 0 1 32-32z" fill="#c6d6e2"/><path d="m88 24h336v128h-336z" fill="#37a0c5"/><g fill="#f0de9c"><path d="m264 48v24a8 8 0 0 1 -16 0v-24a8 8 0 0 1 16 0z"/><path d="m312 104a24.002 24.002 0 0 1 -24 24h-64a24.00894 24.00894 0 0 1 -24-24z"/><path d="m296 104h-80a40.56885 40.56885 0 0 1 .8-8 40.01346 40.01346 0 0 1 78.4 0 40.56885 40.56885 0 0 1 .8 8z"/></g><circle cx="344" cy="72" fill="#c6d6e2" r="24"/><path d="m344 432h144v56h-144z" fill="#349b66"/><path d="m24 432h144v56h-144z" fill="#349b66"/><path d="m488 424h-56v-160.71a34.78715 34.78715 0 0 0 25.46-46.57l-25.46-66.21v-126.51a7.9979 7.9979 0 0 0 -8-8h-336a7.9979 7.9979 0 0 0 -8 8v126.51l-25.46 66.21a34.78715 34.78715 0 0 0 25.46 46.57v160.71h-56a7.9979 7.9979 0 0 0 -8 8v56a7.9979 7.9979 0 0 0 8 8h464a7.9979 7.9979 0 0 0 8-8v-56a7.9979 7.9979 0 0 0 -8-8zm-88 0v-170.62988a34.71789 34.71789 0 0 0 16 9.42968v161.2002zm-64 8v48h-32v-56h16a8.00008 8.00008 0 0 0 8-8v-24a8.00008 8.00008 0 0 0 -8-8h-48a8.00008 8.00008 0 0 0 -8 8v24a8.00008 8.00008 0 0 0 8 8h16v56h-32v-48a7.9979 7.9979 0 0 0 -8-8h-16v-24a7.9979 7.9979 0 0 0 -8-8h-16v-128.73a34.76613 34.76613 0 0 0 19.77-11.91992c.49.60986 1.01 1.2 1.56006 1.77978a34.45484 34.45484 0 0 0 25.26003 10.87014h2.81982a34.45484 34.45484 0 0 0 25.26-10.87012c.55-.57983 1.07007-1.16992 1.56006-1.77978a35.34823 35.34823 0 0 0 3.77 3.89306v24.75684a40.04018 40.04018 0 0 0 -40 40 7.9979 7.9979 0 0 0 8 8h80a7.9979 7.9979 0 0 0 8-8 40.04018 40.04018 0 0 0 -40-40v-16.73a34.32831 34.32831 0 0 0 7.07007.73h2.5a34.74109 34.74109 0 0 0 26.52996-12.28c.21008-.24.41-.49.6-.74a34.66032 34.66032 0 0 0 27.18 13.02h1.54993a34.87794 34.87794 0 0 0 14.57007-3.16016v131.16016h-16a7.9979 7.9979 0 0 0 -8 8v24h-16a7.9979 7.9979 0 0 0 -8 8zm-56-24v-8h32v8zm-155.56006-183.73 17.66006-64.27h32.47009l-11.91016 72.27a18.72575 18.72575 0 0 1 -18.53993 15.73h-1.54993a18.79649 18.79649 0 0 1 -18.13013-23.73zm3.56006 36.56984a34.87794 34.87794 0 0 0 14.57007 3.16016h1.54993a34.66032 34.66032 0 0 0 27.18-13.02c.18994.25.38989.5.6.74a34.7192 34.7192 0 0 0 20.1 11.6799v40.6001h-64zm70.42993-12.83984a18.78368 18.78368 0 0 1 -18.53993-21.8501l10.9-66.1499h32.76l-3.86011 70.24a18.79017 18.79017 0 0 1 -18.76 17.76zm72.62012-5.87012a18.62778 18.62778 0 0 1 -13.64014 5.87012h-2.81982a18.78805 18.78805 0 0 1 -18.76-19.77l3.74-68.23h32.85986l3.74 68.17993v.05a18.56839 18.56839 0 0 1 -5.1199 13.89995zm21.26-11.88989-3.86005-70.23999h32.76l10.9 66.1499a18.78368 18.78368 0 0 1 -18.53993 21.8501h-2.5a18.79017 18.79017 0 0 1 -18.76001-17.76zm11.68995 65.76001a24.04436 24.04436 0 0 1 22.63 16h-61.26a24.04436 24.04436 0 0 1 22.63-16zm80.37-55.3999a18.646 18.646 0 0 1 -14.94007 7.3999h-1.54993a18.72575 18.72575 0 0 1 -18.53991-15.73l-11.91016-72.27h32.47007l17.65 64.23c0 .01.01.03.01.04a18.66841 18.66841 0 0 1 -3.19 16.3301zm-8.37 167.3999h8v16h-8zm66.53-185.54a18.79162 18.79162 0 0 1 -17.54 25.54 18.848 18.848 0 0 1 -18.12-13.81006l-20.38-74.18994h32.02zm-346.53-190.46h320v112h-320zm-24.48 207.8501a18.53785 18.53785 0 0 1 -2.05-17.3901l24.02-62.46h32.02l-20.38 74.18994a18.848 18.848 0 0 1 -18.12 13.81006 18.53854 18.53854 0 0 1 -15.49-8.1499zm24.48 22.9497a34.71789 34.71789 0 0 0 16-9.42968v170.62988h-16zm64 217.2002h-128v-40h128zm8-56h-40v-104h64v160h-16v-48a7.9979 7.9979 0 0 0 -8-8zm40-16h8v24a7.9979 7.9979 0 0 0 8 8h16v40h-32zm272 72h-128v-40h128z"/><path d="m312 96h-8.67944a48.10631 48.10631 0 0 0 -39.32056-39.32056v-8.67944a8 8 0 0 0 -16 0v8.67944a48.10631 48.10631 0 0 0 -39.32056 39.32056h-8.67944a8.00008 8.00008 0 0 0 -8 8 32.03635 32.03635 0 0 0 32 32h64a32.03635 32.03635 0 0 0 32-32 8.00008 8.00008 0 0 0 -8-8zm-56-24a32.0583 32.0583 0 0 1 30.98779 24h-61.97558a32.0583 32.0583 0 0 1 30.98779-24zm32 48h-64a16.008 16.008 0 0 1 -13.85254-8h91.70508a16.008 16.008 0 0 1 -13.85254 8z"/><path d="m196.4375 78.65625a7.99943 7.99943 0 0 0 3.5625-6.65625v-24h-16v19.43164a35.21285 35.21285 0 0 1 -8 2.926v-22.35764h-16v22.35767a35.22267 35.22267 0 0 1 -8-2.926v-19.43167h-16v24a7.99943 7.99943 0 0 0 3.5625 6.65625 51.28005 51.28005 0 0 0 20.4375 7.99951v49.34424h16v-49.34424a51.28005 51.28005 0 0 0 20.4375-7.99951z"/><path d="m344 40a32.00193 32.00193 0 0 0 -8 62.9873v33.0127h16v-33.0127a32.00193 32.00193 0 0 0 -8-62.9873zm0 48a16 16 0 1 1 16-16 16.01833 16.01833 0 0 1 -16 16z"/></svg>